<?xml version="1.0" standalone="no"?>
<!DOCTYPE svg PUBLIC "-//W3C//DTD SVG 1.1//EN" "http://www.w3.org/Graphics/SVG/1.1/DTD/svg11.dtd" >
<svg xmlns="http://www.w3.org/2000/svg">
<metadata>
This is a custom SVG webfont generated by Font Squirrel.
Foundry     : Morgan Allan Knutson
</metadata>
<defs>
<font id="Mensch" horiz-adv-x="1705" >
<font-face units-per-em="2048" ascent="1536" descent="-512" />
<missing-glyph horiz-adv-x="1024" />
<glyph unicode=" "  horiz-adv-x="1024" />
<glyph unicode="&#x09;" horiz-adv-x="1024" />
<glyph unicode="&#xa0;" horiz-adv-x="1024" />
<glyph unicode="!" horiz-adv-x="288" d="M61 84q0 -35 24 -58.5t58 -23.5q35 0 58.5 23.5t23.5 58.5t-23.5 58.5t-58.5 23.5t-58.5 -23.5t-23.5 -58.5zM72 338v1089q0 29 21.5 50.5t49.5 21.5q29 0 50.5 -21.5t21.5 -50.5v-1089q0 -31 -21.5 -51.5t-50.5 -20.5t-50 20.5t-21 51.5z" />
<glyph unicode="&#x22;" horiz-adv-x="577" d="M119 1393v213q0 29 20.5 51t48.5 22q29 -2 51.5 -23.5t22.5 -49.5v-213q0 -29 -20.5 -50.5t-48.5 -23.5q-31 2 -52.5 23.5t-21.5 50.5zM334 1393v213q0 29 20.5 51t48.5 22q29 -2 51.5 -23.5t22.5 -49.5v-213q0 -29 -20.5 -50.5t-48.5 -23.5q-31 2 -52.5 23.5t-21.5 50.5 z" />
<glyph unicode="#" />
<glyph unicode="$" d="M530 408q0 29 20.5 50t51.5 21q29 0 50.5 -21.5t21.5 -49.5q0 -135 100 -166v501l-82 64q-41 33 -73.5 75t-52 93t-19.5 117v33q0 26 8 60t24.5 70.5t47.5 69.5q59 63 147 78v57q0 29 21.5 50.5t50.5 21.5q31 0 51.5 -21.5t20.5 -50.5v-59q53 -10 86.5 -32.5t52.5 -45.5 q31 -35 45 -75t18 -73.5t2 -58t-2 -31.5q-4 -18 -12 -30q-8 -10 -23.5 -19.5t-40.5 -5.5q-27 4 -39 15.5t-18 25.5q-8 16 -8 35q2 16 -2 55t-29 68q-14 16 -30 22v-432q41 -29 77.5 -60.5t71.5 -72.5q96 -121 96 -278q0 -98 -35.5 -158t-72.5 -88q-53 -47 -137 -64v-53 q0 -31 -20.5 -51.5t-51.5 -20.5q-29 0 -50.5 20.5t-21.5 51.5v49q-84 16 -143 66q-35 29 -68 88.5t-33 159.5zM690 1094q0 -53 21.5 -92t62.5 -76v329q-23 -8 -43 -28q-16 -18 -24.5 -40t-12.5 -42q-4 -23 -4 -45v-6zM918 246q39 14 70.5 50t31.5 112q0 78 -27.5 131 t-74.5 96v-389z" />
<glyph unicode="%" />
<glyph unicode="&#x26;" />
<glyph unicode="'" horiz-adv-x="305" d="M88 1393v213q0 29 20.5 50t51.5 21q29 0 50 -21.5t21 -49.5v-213q0 -29 -21.5 -50.5t-49.5 -21.5q-31 0 -51.5 21.5t-20.5 50.5z" />
<glyph unicode="(" horiz-adv-x="622" d="M109 729q0 29 1 78t5 110.5t11 130t19 136.5q31 156 80 252q47 80 98.5 104.5t90.5 24.5q23 0 39 -16.5t16 -39.5q0 -25 -16.5 -40t-38.5 -15q-10 0 -35 -9t-55 -65q-23 -37 -39.5 -91t-30.5 -126q-12 -66 -18.5 -131t-10.5 -123.5t-5 -105.5t-1 -74q0 -29 1 -76 t5 -105.5t10.5 -125t18.5 -129.5q14 -72 30.5 -126t39.5 -91q31 -55 55 -64.5t35 -9.5q23 0 39 -15.5t16 -39.5q0 -23 -16.5 -39.5t-38.5 -16.5q-39 0 -90.5 25t-98.5 107q-49 92 -80 249q-12 68 -19 136.5t-11 130t-5 111.5t-1 79z" />
<glyph unicode=")" horiz-adv-x="616" d="M127 -53q0 25 16.5 40t38.5 15q10 0 35 9t55 65q23 37 39.5 91t30.5 126q12 63 18.5 129.5t10.5 125t5 105.5t1 76q0 27 -1 74t-5 105.5t-10.5 124t-18.5 130.5q-14 72 -30.5 126t-39.5 91q-31 55 -55 64.5t-35 9.5q-23 0 -39 15.5t-16 39.5q0 23 16.5 39.5t38.5 16.5 q39 0 90.5 -24.5t98.5 -104.5q49 -96 80 -252q12 -68 19 -136.5t11 -130t5 -110.5t1 -78t-1 -79t-5 -111.5t-11 -130t-19 -136.5q-31 -158 -80 -249q-47 -82 -98.5 -107t-90.5 -25q-23 0 -39 16.5t-16 39.5z" />
<glyph unicode="*" horiz-adv-x="698" d="M41 1151q0 16 10 26.5t27 10.5h211l-105 184q-10 14 -5 28.5t18 22.5q14 8 29.5 4t23.5 -18l106 -180l105 180q8 16 22.5 19.5t30.5 -3.5q12 -10 16.5 -24.5t-4.5 -28.5l-104 -184h211q16 0 27.5 -10.5t11.5 -26.5q0 -39 -39 -39h-211l106 -182q14 -33 -14 -53 q-8 -4 -20 -5q-20 0 -33 19l-105 182l-106 -182q-10 -20 -33 -21q-8 0 -20 7q-12 10 -17.5 23t4.5 30l105 182h-211q-37 0 -37 39z" />
<glyph unicode="+" horiz-adv-x="1001" d="M70 623q0 31 21.5 51t49.5 20h285v285q0 29 21.5 50.5t50.5 21.5t50 -21.5t21 -50.5v-285h283q31 0 51.5 -20.5t20.5 -50.5q0 -29 -20.5 -50.5t-51.5 -21.5h-283v-283q0 -29 -21.5 -50t-49.5 -21q-29 0 -50.5 21.5t-21.5 49.5v283h-285q-29 0 -50 21.5t-21 50.5z" />
<glyph unicode="," horiz-adv-x="378" d="M64.5 -135q-9.5 29 5.5 53l96 186q14 27 43 36.5t55 -5.5q27 -14 35 -43t-6 -53l-98 -186q-14 -27 -41 -36.5t-56 5.5q-24 14 -33.5 43z" />
<glyph unicode="-" d="M559 684q0 29 21.5 50.5t50.5 21.5h418q29 0 50 -21.5t21 -50.5q0 -31 -21.5 -51.5t-49.5 -20.5h-418q-29 0 -50.5 20.5t-21.5 51.5z" />
<glyph unicode="." horiz-adv-x="215" d="M27 68q0 33 22.5 56t56.5 23q33 0 55.5 -23.5t22.5 -55.5q0 -33 -22.5 -56.5t-55.5 -23.5q-35 0 -57 23.5t-22 56.5z" />
<glyph unicode="/" horiz-adv-x="602" d="M55 72l351 1335q6 29 31.5 44t54.5 7t44 -33.5t7 -54.5l-350 -1335q-6 -29 -32 -44.5t-55 -6.5q-31 8 -45 33.5t-6 54.5z" />
<glyph unicode="0" horiz-adv-x="823" d="M76 301v37v825q0 96 29.5 167t78.5 117t109.5 68.5t122.5 22.5q39 0 104.5 -14.5t128.5 -69.5q12 -10 25.5 -24.5t25.5 -32.5q2 -2 2 -3t3 -3q27 -39 45 -95.5t18 -134.5v-837q0 -8 -1 -39t-10 -73t-29.5 -89t-57.5 -86q-94 -100 -252 -100t-248 100q-29 29 -51 74 q0 4 -4 8q-23 49 -33 117q-6 38 -6 65zM219 444l342 895q-41 39 -85 47.5t-60 8.5q-76 0 -131 -49q-66 -61 -66 -183v-719zM260 152q4 -4 8 -9.5t8 -9.5q47 -53 142 -53q94 0 147 53q25 25 37 56.5t17.5 59t5.5 47.5v21v7v778z" />
<glyph unicode="1" horiz-adv-x="843" d="M82 49q0 31 21.5 51.5t50.5 20.5h208v1175l-149 -151q-23 -20 -51.5 -20.5t-50.5 20.5q-20 23 -20.5 51.5t20.5 50.5l274 273q33 33 78 16q43 -20 43 -68v-1347h207q31 0 51 -20.5t20 -51.5q0 -29 -20.5 -50.5t-50.5 -21.5h-559q-29 0 -50.5 21.5t-21.5 50.5z" />
<glyph unicode="2" horiz-adv-x="829" d="M39 27q0 186 108 376q47 82 105 157l117 147l95 119q46 58 81 118t56.5 119t21.5 121q0 2 2 4v20q0 18 -5.5 44t-17.5 54.5t-35 53.5q-47 53 -151 53q-98 0 -144 -51q-20 -23 -28 -52.5t-13 -54.5q-4 -31 0 -59q4 -25 -2 -47q-4 -18 -17 -33.5t-40 -17.5q-29 -4 -43 8 t-25 29q-10 18 -14 41q-2 4 -3 30.5t3 65.5q12 115 74 184q90 100 252 100q164 0 258 -100q37 -39 55.5 -83t27.5 -84t9 -69v-38q0 -143 -92 -303q-41 -68 -91 -134l-104 -129l-97 -120q-48 -61 -88 -125t-68.5 -131.5t-39.5 -141.5h349q76 0 92 25q12 16 15 49t3 64 t20.5 51t51.5 20q29 0 50 -20.5t21 -50.5q0 -61 -8 -109.5t-37 -87.5q-20 -29 -45.5 -45.5t-54.5 -25.5t-56.5 -11t-51.5 -2h-424q-31 0 -51.5 21.5t-20.5 50.5z" />
<glyph unicode="3" horiz-adv-x="870" d="M74 293.5q2 25.5 2 30.5q2 20 10 34q8 12 23.5 20.5t44.5 4.5q27 -4 41 -16.5t19 -25.5t5 -25v-13l-2 -17q-2 -17 1 -43t12.5 -54.5t29.5 -51.5q45 -51 143 -51q166 0 228 80q45 57 45 168q0 233 -94 332q-78 80 -240 79q-31 0 -51.5 21.5t-20.5 50.5v2q0 29 20.5 50.5 t51.5 21.5q72 0 128 5t85 30q55 45 55 252v6v19q0 17 -5 43t-16 54.5t-34 53.5q-51 53 -152 53q-100 0 -143 -51q-20 -23 -28.5 -51.5t-11.5 -54t-2 -43.5l1 -17q4 -29 -14.5 -52.5t-46.5 -27.5q-29 -4 -53.5 13.5t-28.5 45.5q0 4 -2 31t2 66q12 111 76 184q86 100 251 100 q164 0 256 -98q37 -39 56.5 -84t29 -85t9.5 -70v-37q0 -131 -23 -218q-25 -92 -84 -143q-4 -2 -5 -4t-5 -4q25 -18 47 -41q135 -139 135 -432q0 -162 -76 -256q-104 -135 -340 -135q-164 0 -251 100q-63 72 -76 184q-4 41 -2 66.5z" />
<glyph unicode="4" horiz-adv-x="833" d="M18 745l187 709q8 29 33.5 44t54.5 7t44 -32.5t7 -53.5l-164 -620h455v637q0 31 21.5 51t50.5 20t50 -20.5t21 -50.5v-1420q0 -29 -21.5 -50t-49.5 -21q-29 0 -50.5 21.5t-21.5 49.5v639h-549q-37 0 -55 29q-23 24 -13 61z" />
<glyph unicode="5" horiz-adv-x="774" d="M8 147q-8 29 8.5 54.5t44.5 34.5q29 6 53.5 -9.5t32.5 -44.5q2 -8 9.5 -24.5t27 -31.5t56 -26.5t98.5 -11.5q180 0 244 125q29 57 32.5 117.5t3.5 95.5q0 39 -9 100.5t-39.5 117.5t-91 97t-165.5 41h-217q-31 0 -51 21q-20 20 -20 51v608q0 29 21.5 49.5t49.5 20.5h486 q29 0 50 -20.5t21 -51.5q0 -29 -21.5 -50t-49.5 -21h-414v-463h145q82 0 144.5 -19.5t108.5 -50.5t77 -67.5t51 -73.5q23 -41 36 -82t20.5 -80t9.5 -71.5t2 -55.5q0 -18 -1 -50t-6 -69t-15.5 -78t-30.5 -79q-18 -35 -47 -72t-73 -66.5t-106.5 -48t-144.5 -18.5 q-90 0 -150.5 21.5t-98.5 52t-56.5 65t-24.5 63.5z" />
<glyph unicode="6" horiz-adv-x="954" d="M37 743q4 211 88 377q70 131 192 240q51 43 100.5 72.5t89.5 49t64.5 29t26.5 9.5q20 6 41 4q16 -2 31.5 -10.5t23.5 -32.5q8 -27 1 -44.5t-19 -29.5q-14 -14 -35 -25l-20 -7q-20 -7 -53 -23.5t-75 -42t-85 -62.5q-227 -195 -228 -506v-4q0 -23 -1 -44t-1 -44l6 6 q23 25 53.5 50.5t72.5 47t94.5 35t115.5 13.5q66 0 117 -13.5t91 -34t68.5 -46t47.5 -50.5q39 -51 52 -94t15 -53q23 -111 -2 -221q-25 -121 -98 -207q-111 -123 -283 -123h-30q-248 18 -367 240q-110 198 -94 544zM228 366.5q5 -57.5 28 -100.5q82 -152 252 -164 q123 -6 194 74q47 55 65.5 139t2.5 168q0 4 -9 32t-34 58q-72 84 -207 84q-84 0 -138 -29.5t-87 -64.5t-47.5 -65.5t-14.5 -32.5q-10 -41 -5 -98.5z" />
<glyph unicode="7" horiz-adv-x="825" d="M39 1436q0 31 20.5 51t51.5 20h639q35 0 57 -26q10 -14 13 -30.5t-1 -33.5l-407 -1407q-6 -23 -25.5 -37t-42.5 -14q-14 0 -20 2q-29 10 -43.5 36t-6.5 54l379 1313h-542q-31 0 -51.5 21.5t-20.5 50.5z" />
<glyph unicode="8" horiz-adv-x="829" d="M6 332q0 297 133 432q23 23 47 41q-6 6 -10 8q-59 53 -84 143q-23 86 -22 218v16v33q0 18 2 41q16 113 78 184q86 100 251 100h11h8q166 0 254 -100q63 -74 76 -184q6 -41 2 -74v-16q0 -68 -5.5 -122.5t-17.5 -95.5q-25 -92 -84 -143q-6 -6 -10 -8l24 -21l25 -20 q133 -139 133 -432v-17q0 -8 -2 -16h2q-2 -2 -2 -10q-8 -129 -74 -213q-78 -102 -233 -127q-20 -4 -43 -6t-45 -2h-8h-11q-41 0 -79 6q-158 25 -242 129q-74 94 -74 256zM150 322q0 -8 8 -46t35 -79q51 -88 149 -107q33 -6 70 -6q39 0 73 6q92 18 146 103q23 35 31 66.5 t10 45.5q2 8 2 27q0 233 -94 332q-57 61 -168 75q-109 -14 -170 -75q-92 -96 -92 -332v-10zM213 1167q2 -201 57 -243q20 -18 56 -25.5t86 -9.5q47 2 82.5 9t58.5 26q55 43 55 252v6v6v6q0 12 -2 30.5t-8 40t-16.5 45t-28.5 42.5q-49 53 -141 53q-94 0 -142 -53 q-18 -18 -29.5 -42t-17.5 -45.5t-8 -40t-2 -30.5v-6q2 -13 0 -21z" />
<glyph unicode="9" horiz-adv-x="884" d="M19 1110q1 57 12 113q29 125 100 204q119 135 311 123q178 -12 283 -106q102 -96 141 -297v-2q43 -276 -180 -733q-41 -82 -81 -153l-71 -123l-53 -84q-20 -32 -22 -34q-23 -31 -60 -30q-20 0 -41 12q-23 16 -27.5 46t11.5 54q0 2 40 61.5t94 157t111.5 219t96.5 246.5 q-47 -31 -111.5 -51t-150.5 -22h-2q-66 0 -117 13t-90 33.5t-67.5 46t-47.5 50.5q-41 51 -54 93t-15 52q-11 54 -10 111zM170 1026q2 -4 10 -30.5t35 -57.5q66 -84 205 -84q160 4 252 107q29 31 41 57t16 37q0 16 -1 33.5t-3 33.5q-16 84 -43 138.5t-63.5 85t-83 44 t-101.5 17.5q-123 8 -196 -74q-47 -53 -65.5 -137t-2.5 -168v-2z" />
<glyph unicode=":" horiz-adv-x="344" d="M82 346q0 33 22.5 56.5t57.5 23.5q33 0 55.5 -23.5t22.5 -56.5t-22.5 -56.5t-55.5 -23.5q-35 0 -57.5 23.5t-22.5 56.5zM82 981q0 33 22.5 56.5t57.5 23.5q33 0 55.5 -23.5t22.5 -56.5t-22.5 -56.5t-55.5 -23.5q-35 0 -57.5 23.5t-22.5 56.5z" />
<glyph unicode=";" horiz-adv-x="333" d="M82 981q0 33 22.5 56.5t57.5 23.5q33 0 55.5 -23.5t22.5 -56.5t-22.5 -56.5t-55.5 -23.5q-35 0 -57.5 23.5t-22.5 56.5zM86 346q0 -33 22.5 -56.5t57.5 -23.5h6q8 -66 -49 -123q-14 -14 -14 -33.5t14 -35.5q18 -14 35 -15q16 0 35 15q59 59 71 118.5t2 102.5 q-4 27 -12 47t-16 33q-8 23 -28 37t-44 14q-35 0 -57.5 -23.5t-22.5 -56.5z" />
<glyph unicode="&#x3c;" horiz-adv-x="794" d="M88 578q0 31 21 49l485 487q23 20 51.5 20.5t50.5 -20.5q20 -23 20.5 -51.5t-20.5 -50.5l-436 -434l430 -428q23 -23 23 -51.5t-21 -51.5q-20 -20 -51 -20t-51 20l-481 479q-21 19 -21 52z" />
<glyph unicode="=" horiz-adv-x="1083" d="M49 467q0 31 21.5 51.5t50.5 20.5h827q29 0 50.5 -20.5t21.5 -51.5q0 -29 -21.5 -50.5t-50.5 -21.5h-827q-29 0 -50.5 21.5t-21.5 50.5zM49 856q0 31 21.5 51.5t50.5 20.5h827q29 0 50.5 -20.5t21.5 -51.5q0 -29 -21.5 -50.5t-50.5 -21.5h-827q-29 0 -50.5 21.5 t-21.5 50.5z" />
<glyph unicode="&#x3e;" horiz-adv-x="815" d="M104 1042.5q0 28.5 21 51.5q23 20 51.5 20t50.5 -20l486 -488q20 -18 20 -49q0 -33 -20 -51l-482 -479q-20 -20 -51 -21q-31 0 -51 21q-20 23 -20 51t22 51l430 428l-436 434q-21 23 -21 51.5z" />
<glyph unicode="?" horiz-adv-x="860" d="M70 1157q0 74 28.5 139.5t76.5 114.5t113.5 77t139.5 28t139.5 -28t114.5 -77t76.5 -114.5t27.5 -139.5t-19 -127t-49 -93t-66 -67.5t-68 -48.5q-53 -37 -77 -60.5t-24 -62.5v-70v-46q0 -18 1 -30.5t1 -23.5v-118q0 -29 -21.5 -50.5t-49.5 -21.5q-31 0 -51.5 21.5 t-20.5 50.5v116q-2 20 -2 55v117q0 49 15.5 86t39 66t51.5 50l56 40q59 39 100 83t41 134q0 45 -17.5 84t-46 67.5t-67.5 46t-84 17.5t-84 -17.5t-68.5 -46t-46 -67.5t-16.5 -84q0 -29 -20.5 -50.5t-51.5 -21.5q-29 0 -50 21.5t-21 50.5zM326 98q0 -35 23.5 -58.5 t58.5 -23.5t58 23.5t23 58.5t-23.5 58.5t-57.5 23.5q-35 0 -58.5 -23.5t-23.5 -58.5z" />
<glyph unicode="@" />
<glyph unicode="A" horiz-adv-x="866" d="M82 53l285 1415q2 8 4 11v2v2q4 10 10 14v4h2v2h2v2h2v2h2q4 4 8 6.5t11 4.5v2h2q4 2 9 2t9 2h2h4h2q4 -2 9.5 -2t9.5 -2h2v-2q8 -2 12 -4.5t8 -6.5h2v-2h2v-2h2v-2l2 -4q2 -4 5.5 -7t5.5 -7v-2v-2q2 -2 2 -11l286 -1415q2 -8 2 -15q0 -20 -12 -37q-16 -24 -43 -30h-12 q-23 0 -42.5 15.5t-23.5 38.5l-55 266h-332l-53 -266q-4 -23 -23.5 -38.5t-44.5 -15.5h-12q-27 6 -42 30q-11 17 -11 36q0 8 2 16zM293 424h278l-141 692z" />
<glyph unicode="B" horiz-adv-x="991" d="M178 63v1381q0 29 20.5 50.5t51.5 21.5h2h262q125 0 211 -127q80 -115 80 -269q0 -74 -20.5 -143.5t-59.5 -124.5q-12 -18 -27 -33q47 -33 86 -88q86 -127 86 -301q0 -84 -22.5 -160.5t-63.5 -140.5q-47 -66 -107.5 -102.5t-125.5 -36.5h-291q-2 0 -4 2q-2 -2 -6 -2 q-31 0 -51.5 21t-20.5 52zM322 135h229q29 0 58.5 20.5t54.5 55.5q31 45 47 102.5t16 116.5q0 61 -16.5 118.5t-46.5 100.5q-51 76 -113 76h-229v-590zM322 870h192q25 0 51.5 19.5t47 53.5t33.5 79t13 98t-13 98.5t-33.5 79t-47 53t-51.5 19.5h-192v-500z" />
<glyph unicode="C" horiz-adv-x="991" d="M166 340v37v788q0 94 29.5 164t76.5 115t106.5 66.5t119.5 21.5q37 0 101.5 -14.5t123.5 -67.5q41 -35 79 -102.5t38 -182.5q0 -31 -21.5 -52t-52.5 -21t-52.5 21.5t-21.5 51.5q0 76 -23.5 120t-56 65.5t-64.5 27.5t-50 6q-35 0 -67 -12t-54 -35q-63 -57 -64 -172v-792 v-6v-22q0 -19 4.5 -47t15.5 -59.5t34 -56.5q45 -49 133 -49q92 0 137 51q23 25 34 53.5t16 55t5 45.5v18q-2 31 18.5 53.5t51.5 24.5q29 2 52.5 -18.5t25.5 -48.5v-31q0 -27 -9 -68q-18 -115 -86 -184q-92 -98 -245 -98q-154 0 -242 98q-35 35 -55.5 84t-30.5 108 q-6 37 -6 64z" />
<glyph unicode="D" horiz-adv-x="976" d="M176 61v1381q0 29 20.5 50t51.5 21h112h158q61 0 120.5 -21.5t107 -66.5t77 -114.5t29.5 -163.5v-789q0 -96 -29.5 -164.5t-77 -114.5t-106.5 -67.5t-121 -21.5h-158h-112q-31 0 -51.5 21t-20.5 50zM319 135h41h158q76 0 127 47q63 59 64 176v789q0 113 -64 176 q-53 47 -127 47h-158h-41v-1235z" />
<glyph unicode="E" horiz-adv-x="974" d="M158 61v1381q0 29 21.5 50t51.5 21h543q31 0 52.5 -21.5t21.5 -49.5q0 -31 -21.5 -52.5t-52.5 -21.5h-471v-629h354q31 0 51.5 -21.5t20.5 -51.5q0 -29 -20.5 -50.5t-51.5 -21.5h-354v-459h471q31 0 52.5 -21.5t21.5 -52.5q0 -29 -21.5 -50t-52.5 -21h-543q-31 0 -52 21 t-21 50z" />
<glyph unicode="F" horiz-adv-x="960" d="M180 61v1381q0 29 21.5 50t52.5 21h543q31 0 52 -21.5t21 -49.5q0 -31 -21.5 -52.5t-51.5 -21.5h-471v-629h354q31 0 51.5 -21.5t20.5 -51.5q0 -29 -20.5 -50.5t-51.5 -21.5h-354v-533q0 -29 -21.5 -50t-50.5 -21q-31 0 -52.5 21t-21.5 50z" />
<glyph unicode="G" horiz-adv-x="976" d="M142 326v16q0 14 1 20v803q0 94 30 164t77 115t106.5 66.5t120.5 21.5q131 0 223 -82q39 -35 75 -103.5t36 -183.5q0 -29 -21.5 -50t-50.5 -21q-31 0 -52 21.5t-21 49.5q0 78 -24 123t-54.5 67.5t-62 29t-48.5 6.5q-74 0 -127 -48q-63 -59 -63 -176v-809v-2v-21 q0 -19 4 -48t15 -62t36 -57q45 -49 135 -49q96 0 141 51q23 25 35.5 55.5t17.5 57t5 45.5v18v2v260h-144q-31 0 -52 21.5t-21 52.5q0 29 21.5 50.5t51.5 21.5h287v-402q1 -5 2 -19q0 -7 -1 -16q-1 -27 -7 -61q-23 -113 -88 -184q-92 -98 -248 -99q-156 0 -241 99 q-70 72 -89 194q-4 35 -5 62z" />
<glyph unicode="H" horiz-adv-x="1054" d="M174 61v1381q0 29 21.5 50t50.5 21q31 0 52 -21.5t21 -49.5v-703h431v703q0 29 21.5 50t51.5 21q29 0 50.5 -21.5t21.5 -49.5v-1381q0 -29 -21.5 -50t-50.5 -21q-31 0 -52 21.5t-21 49.5v533h-431v-533q0 -29 -21.5 -50t-51.5 -21q-29 0 -50.5 21t-21.5 50z" />
<glyph unicode="I" horiz-adv-x="507" d="M178 61v1381q0 29 20.5 50t51.5 21q29 0 50.5 -21.5t21.5 -49.5v-1381q0 -29 -21.5 -50t-50.5 -21q-31 0 -51.5 21t-20.5 50z" />
<glyph unicode="J" horiz-adv-x="1009" d="M168 367q4 25 12 45q8 16 23.5 29.5t44.5 9.5t42 -19.5t17 -32.5q6 -20 4 -45q-1 -9 0 -17q0 -26 4 -52q4 -29 15.5 -62t36.5 -57q45 -51 135 -51t141 51q23 25 35 54.5t17 56t5 46.5v21v4v1094q0 29 21.5 50t50.5 21q31 0 52.5 -21.5t21.5 -49.5l-2 -1092q2 -8 1 -34.5 t-7 -61.5q-10 -55 -32 -103.5t-56 -82.5q-92 -96 -248 -97q-156 0 -242 97q-70 76 -88 196q-5 35 -5 61q0 13 1 42z" />
<glyph unicode="K" horiz-adv-x="1040" d="M176 70v440v2v932q0 31 21.5 52.5t50.5 21.5q31 0 52.5 -21.5t21.5 -52.5v-678l438 713q16 27 45 34t55 -10q25 -16 32 -44.5t-9 -55.5l-322 -522l391 -772q9 -16 9 -33q0 -11 -4 -22q-9 -28 -35 -42q-14 -8 -33 -8q-20 0 -37.5 10.5t-28.5 28.5l-350 694l-151 -248v-419 q0 -31 -21.5 -51.5t-52.5 -20.5q-29 0 -50.5 20.5t-21.5 51.5z" />
<glyph unicode="L" horiz-adv-x="1056" d="M233 61v1381q0 29 21.5 50t50.5 21q31 0 51.5 -21.5t20.5 -49.5v-1307h473q29 0 50.5 -21.5t21.5 -52.5q0 -29 -21.5 -50t-50.5 -21h-545q-29 0 -50.5 21t-21.5 50z" />
<glyph unicode="M" horiz-adv-x="1167" d="M139 61v1381v4v2v2q2 0 2 2v2v4q2 4 6 17l3 2v2l2 2v2q2 0 2 2q4 4 5 6t5 4l2 2q0 2 2 2h2v2h2q0 2 2 2h2v2h2h2q0 2 2 2t2 1t2 1h2l2 2h3h2h2q0 2 2 2h2h4h4h2h2h2h2h2h2h2h2l2 -2q8 0 17 -4q2 -2 4 -2q0 -2 2 -2l2 -2q2 0 4 -2q6 -6 10 -8q0 -2 2 -2v-2l2 -2v-2 q2 0 2 -2l2 -2v-2l2 -2l310 -607l309 607v2l2 2v2h2v2l2 2q0 2 2 2v2q8 8 12 10q0 2 3 2h2q0 2 2 2v2h2h2q0 2 2 2q2 2 5 2t7 2h2h2q0 2 2 2h2h2h2h2h4h5h4h2h2h2v-2h2h2h2h2v-2h4l2 -2h2l2 -2h4v-2h2v-2h2l2 -2q2 0 3 -2h2l2 -2q4 -2 8 -10q2 0 2 -2l2 -2v-2l2 -2l2 -2 q4 -8 4 -15v-2h2v-4v-2v-2v-2v-2v-4v-1381q0 -29 -20.5 -50t-51.5 -21q-29 0 -50 21.5t-21 49.5v1080l-234 -457q-10 -29 -35 -41q-20 -8 -32 -8q-10 0 -17.5 2t-15.5 6q-27 12 -37 41l-231 457v-1080q0 -29 -21.5 -50t-50.5 -21q-31 0 -52.5 21t-21.5 50z" />
<glyph unicode="N" horiz-adv-x="1038" d="M158 68v1378v4v2v2v2v2v2h2v4v2v2l2 2v5q2 0 2 2t1 2t1 2v2h2v2q0 2 2 2v2l2 2l2 2q0 2 2 2q0 2 1 2t1 2q2 0 2 2h2l2 2l2 2q2 0 2 2h2l3 2h2l2 2h2q4 4 8 4.5t8 2.5h2q4 2 16 2h5h2q2 0 2 -2h2h2h4q2 -2 4 -2l2 -3h4l2 -2q2 0 4 -2h2q0 -2 2 -2l2 -2h2v-2h2q0 -2 3 -2 q0 -2 2 -2q2 -2 2 -4q2 0 2 -2h2v-2h2v-2q0 -2 2 -2v-2l2 -2q0 -2 1 -2t1 -2l2 -4l459 -1059v1032q0 29 20.5 50.5t50.5 21.5q29 0 50.5 -21.5t21.5 -50.5v-1378v-7v-2v-2v-2v-2l-2 -2v-2v-4l-2 -2v-4q-2 0 -2 -2v-2l-2 -2v-2q-2 0 -2 -2v-2h-2v-2l-2 -2q0 -2 -2 -2 q0 -2 -1 -2.5t-1 -2.5l-2 -2q-2 0 -2 -2h-3l-2 -2q0 -2 -2 -2l-2 -2h-2q0 -2 -2 -2h-2v-2h-2l-2 -2q-8 -4 -16 -4q-4 -2 -15 -2h-2h-2h-2h-4q-4 0 -6 2h-4q-4 2 -5 2t-5 2q-2 2 -4 2t-5 2l-2 2l-2 2h-2q0 2 -2 2l-2 2l-2 2l-2 2l-2 2q-2 2 -2 5q-2 0 -2 2l-2 2q-2 2 -2 6 q-2 2 -2 3t-2 3l-459 1057v-1030q0 -29 -20.5 -50.5t-51.5 -21.5q-29 0 -50 21.5t-21 50.5z" />
<glyph unicode="O" horiz-adv-x="927" d="M129 321.5q0 26.5 2 36.5v801q0 94 29.5 164t77 116t106.5 67.5t121 21.5q37 0 100.5 -14.5t124.5 -67.5q20 -18 41 -43t37 -60.5t27.5 -80.5t11.5 -103v-815v-34q0 -26 -6 -60q-20 -113 -88 -187q-92 -98 -248 -98t-244 98q-68 74 -86 195q-6 37 -6 63.5zM274 328 q0 -20 4.5 -49t15.5 -62t36 -57q45 -49 135 -49q92 0 141 51q23 25 35 54.5t17.5 56t5.5 44.5v21v4v817q0 78 -25 122t-57.5 66.5t-66.5 28.5t-50 6q-76 0 -127 -47q-63 -59 -64 -176v-803v-6v-22z" />
<glyph unicode="P" horiz-adv-x="970" d="M143 61v1379q0 43 37 63q14 12 37 13h301q66 0 126.5 -40t107.5 -112q41 -66 63.5 -145.5t22.5 -161.5q0 -84 -22.5 -164t-63.5 -145q-47 -72 -107.5 -111t-126.5 -39h-231v-537q0 -31 -20.5 -51t-51.5 -20q-29 0 -50.5 20t-21.5 51zM287 741h231q27 0 56.5 21.5 t54.5 62.5q31 47 47 107.5t16 124.5q0 61 -16.5 121.5t-46.5 107.5q-25 41 -54.5 62.5t-56.5 21.5h-231v-629z" />
<glyph unicode="Q" horiz-adv-x="1024" d="M184 325.5q0 26.5 2 36.5v801q0 94 30 164t77 116t106.5 67.5t118.5 21.5q39 0 102.5 -14.5t124.5 -67.5q20 -18 41 -43t37.5 -60.5t27.5 -80.5t11 -103v-815v-34q0 -26 -6 -60q-18 -94 -70 -166l84 -96q18 -20 18 -45q0 -34 -26 -58q-20 -16 -47 -16q-35 0 -55 25 l-88 102q-68 -31 -152 -31q-156 0 -244 99q-68 74 -86 194q-6 37 -6 63.5zM330 332q0 -20 4 -49t15 -62t36 -57q45 -49 135 -49q92 0 142 51q23 25 35 54.5t17 56t5 45.5v20v6v815q0 78 -24.5 122t-58.5 66.5t-66.5 28.5t-51.5 6q-74 0 -125 -47q-63 -59 -63 -176v-803v-6 v-22z" />
<glyph unicode="R" horiz-adv-x="1005" d="M162 61v1379q0 31 21.5 52t49.5 21h306q66 0 126 -39.5t107 -111.5q41 -66 63.5 -145.5t22.5 -161.5q0 -84 -22.5 -164t-63.5 -146q-51 -78 -110 -112l237 -543q7 -16 7 -31q0 -13 -5 -25q-10 -28 -39 -38q-8 -4 -15 -5t-13 -1q-23 0 -40.5 10t-27.5 33l-246 563h-213 v-535q0 -31 -21.5 -51t-52.5 -20q-29 0 -50 20t-21 51zM307 739h232q27 0 56.5 22.5t53.5 61.5q31 47 48.5 107.5t17.5 124.5q0 61 -17.5 121.5t-48.5 107.5q-25 41 -54.5 62.5t-55.5 21.5h-232v-629z" />
<glyph unicode="S" horiz-adv-x="958" d="M127 344q0 31 21.5 51.5t52.5 20.5q29 0 49 -20.5t20 -51.5q0 -68 19.5 -111t50.5 -66.5t68.5 -32.5t74.5 -9q20 0 58.5 5t75 27.5t64.5 65.5t28 121q0 76 -21.5 133.5t-59.5 102.5t-87 83l-105 76l-99 74q-50 39 -91 86q-96 113 -99 260q0 8 1.5 33t7.5 57 q18 104 82 174q92 96 247 97q158 0 244 -97q31 -35 49.5 -80t22.5 -98q4 -37 3 -62.5t-3 -29.5q-6 -27 -15 -47q-10 -16 -24 -28.5t-43 -8.5t-41 21.5t-16 35.5q-6 23 -3 48q4 29 0 55q-4 23 -12 50.5t-26 49.5q-41 49 -136 49q-94 0 -141 -53q-23 -23 -34 -51.5t-15 -50.5 q-6 -29 -4 -56v-6q0 -51 16.5 -92t46 -76t71.5 -68.5l95 -72.5q59 -39 115.5 -83t105.5 -103q111 -135 111 -322q0 -94 -32 -162.5t-84 -112.5t-118.5 -65.5t-134.5 -21.5q-143 0 -241 81q-39 33 -77 99.5t-38 181.5z" />
<glyph unicode="T" horiz-adv-x="911" d="M82 1440q0 31 21.5 52t52.5 21h643q29 0 50 -21.5t21 -51.5q0 -29 -21.5 -50.5t-49.5 -21.5h-248v-1307q0 -31 -20.5 -51t-51.5 -20q-29 0 -50 20.5t-21 50.5v1307h-252q-31 0 -52.5 21.5t-21.5 50.5z" />
<glyph unicode="U" horiz-adv-x="1026" d="M182 326v36v1080q0 29 21.5 50t50.5 21q31 0 52.5 -21.5t21.5 -49.5v-1082v-6q0 -2 -1 -22.5t4 -49t16 -61.5t34 -57q45 -49 135 -49q94 0 143 51q23 25 35.5 54.5t16.5 58.5q6 31 4 63v6v1092q0 31 21.5 52t51.5 21q29 0 50.5 -21.5t21.5 -51.5v-1092q0 -8 -1 -33.5 t-7 -60.5q-18 -113 -88 -186q-90 -98 -248 -99q-154 0 -242 99q-70 78 -86 194q-6 37 -6 64z" />
<glyph unicode="V" horiz-adv-x="958" d="M139 1425q-2 8 -1 16q0 20 12 39q16 26 45 31q7 2 14 2q21 0 40 -13q26 -17 32 -46l211 -1038l210 1038q6 29 31 46q18 13 39 13q7 0 14 -2q31 -6 48 -31q12 -19 11 -39q0 -8 -1 -16l-277 -1366q-6 -25 -26.5 -41t-44.5 -16h-4h-7q-25 0 -45 16.5t-24 40.5z" />
<glyph unicode="W" horiz-adv-x="1280" d="M158 1432q-1 5 -1 10q0 23 15 42q18 24 49 27q5 1 10 1q23 0 42 -15q24 -18 28 -47l131 -1061l141 430l2 2v2q0 2 3 2v2v2l4 5v2l2 2l2 2q0 2 2 2v2h2v2l2 2q2 0 2 2h2v2l2 2q4 4 9 5t9 5h5l2 2h2h2h2h2v2h2h2h2h2h2h2h2h2h2h2h2l2 -2h2h5q2 0 2 -1t2 -1h4q4 -4 8 -5 t8 -5l2 -2q2 0 2 -2h2v-2h2v-2q2 0 2 -2h2v-2l2 -2l2 -2q0 -2 3 -2v-2v-3h2v-2v-2q2 0 2 -2l2 -2v-2v-2l143 -430l131 1061q4 29 28 47q19 15 42 15q5 0 10 -1q29 -4 48.5 -27.5t14.5 -51.5l-170 -1379q-2 -2 -2 -6v-2v-2l-2 -2v-2q0 -2 -2 -4q0 -4 -4 -8q0 -2 -2 -4v-3h-2 v-2l-2 -2v-2h-2v-2q-8 -8 -14 -10q0 -2 -2 -2l-2 -2h-2l-2 -2h-3q-6 -2 -14 -6h-2h-2h-2h-2h-4h-4h-4h-2h-2h-3q-4 0 -6 2h-4q-8 2 -16 8q-2 2 -4 3t-4 3l-4 4h-2l-3 2v2q-2 0 -2 1t-2 1v2q0 2 -1 2t-1 3h-2q0 4 -2 4v2l-2 4q0 2 -1 3t-1 3l-174 526l-174 -526q-2 -2 -2 -6 h-2q0 -4 -2 -4v-2l-2 -4q-2 -2 -2 -5q-2 0 -2 -2l-2 -2l-2 -2l-2 -2l-5 -4h-2q-4 -4 -8 -6q-6 -6 -14 -8h-4h-2q-2 -2 -4 -2h-2h-2h-5h-2h-2h-4h-2h-2h-2h-2h-2q-6 2 -14 6h-2h-2v2h-2l-3 2q-2 0 -2 2h-2q-4 2 -10 8v2h-2q0 2 -2 2q0 2 -2 2v2l-2 2l-2 3l-6 12v4q-2 0 -2 2 v2v2v2q-2 2 -2 6z" />
<glyph unicode="X" horiz-adv-x="976" d="M143 88l217 563l48 119l-244 631q-10 29 1 56.5t40 37.5q14 5 27 5q15 0 29 -6q28 -11 38 -40l184 -481l187 481q10 29 37 40q14 6 28 6q13 0 27 -5q29 -10 41 -37.5t2 -56.5l-244 -631l264 -682q5 -13 5 -26q0 -15 -7 -30q-12 -28 -41 -38q-8 -4 -24 -4q-23 0 -41.5 11 t-26.5 34l-207 534l-204 -534q-8 -23 -27 -34t-41 -11q-16 0 -25 4q-29 10 -41 38q-7 15 -6 30q-1 13 4 26z" />
<glyph unicode="Y" horiz-adv-x="913" d="M127 1413q-5 14 -5 27q0 15 6 28q11 27 40 37q15 6 30 7q13 0 26 -6q28 -11 38 -40l197 -499l196 499q10 29 38 40q13 5 27 6q15 0 30 -7q29 -10 40 -37q6 -14 5 -28q0 -13 -4 -27l-261 -655v-697q0 -31 -20.5 -51t-50.5 -20q-29 0 -50.5 20.5t-21.5 50.5v697z" />
<glyph unicode="Z" horiz-adv-x="976" d="M136 37q-5 13 -5 26q0 14 6 29l502 1276h-350q-29 0 -50.5 21.5t-21.5 50.5q0 31 21.5 52t50.5 21h456h5h4q0 -2 2 -2h2h2h2q2 0 4 -2h2h2l2 -2h4q0 -2 2 -2h2l2 -2l2 -2h2l2 -2q8 -6 13 -12l2 -2l2 -2v-2q2 0 2 -2l2 -2q2 -4 3 -8.5t3 -8.5q0 -2 2 -4v-2v-2v-2v-2v-4v-2 v-2v-2v-4v-4v-3v-2v-2q-2 0 -2 -2v-4q-2 0 -2 -2l-506 -1282h438q31 0 51.5 -21.5t20.5 -50.5q0 -31 -20.5 -52t-51.5 -21h-530q-25 0 -39 12q-29 10 -40 37z" />
<glyph unicode="[" />
<glyph unicode="\" />
<glyph unicode="]" />
<glyph unicode="^" />
<glyph unicode="_" />
<glyph unicode="`" d="M686 1594.5q8 27.5 35 43.5q27 14 55.5 6t42.5 -34l103 -187q16 -25 7 -53.5t-34 -42.5q-29 -16 -56.5 -7t-41.5 34l-103 186q-16 27 -8 54.5z" />
<glyph unicode="a" horiz-adv-x="866" d="M82 53l285 1415q2 8 4 11v2v2q4 10 10 14v4h2v2h2v2h2v2h2q4 4 8 6.5t11 4.5v2h2q4 2 9 2t9 2h2h4h2q4 -2 9.5 -2t9.5 -2h2v-2q8 -2 12 -4.5t8 -6.5h2v-2h2v-2h2v-2l2 -4q2 -4 5.5 -7t5.5 -7v-2v-2q2 -2 2 -11l286 -1415q2 -8 2 -15q0 -20 -12 -37q-16 -24 -43 -30h-12 q-23 0 -42.5 15.5t-23.5 38.5l-55 266h-332l-53 -266q-4 -23 -23.5 -38.5t-44.5 -15.5h-12q-27 6 -42 30q-11 17 -11 36q0 8 2 16zM293 424h278l-141 692z" />
<glyph unicode="b" horiz-adv-x="991" d="M178 63v1381q0 29 20.5 50.5t51.5 21.5h2h262q125 0 211 -127q80 -115 80 -269q0 -74 -20.5 -143.5t-59.5 -124.5q-12 -18 -27 -33q47 -33 86 -88q86 -127 86 -301q0 -84 -22.5 -160.5t-63.5 -140.5q-47 -66 -107.5 -102.5t-125.5 -36.5h-291q-2 0 -4 2q-2 -2 -6 -2 q-31 0 -51.5 21t-20.5 52zM322 135h229q29 0 58.5 20.5t54.5 55.5q31 45 47 102.5t16 116.5q0 61 -16.5 118.5t-46.5 100.5q-51 76 -113 76h-229v-590zM322 870h192q25 0 51.5 19.5t47 53.5t33.5 79t13 98t-13 98.5t-33.5 79t-47 53t-51.5 19.5h-192v-500z" />
<glyph unicode="c" horiz-adv-x="991" d="M166 340v37v788q0 94 29.5 164t76.5 115t106.5 66.5t119.5 21.5q37 0 101.5 -14.5t123.5 -67.5q41 -35 79 -102.5t38 -182.5q0 -31 -21.5 -52t-52.5 -21t-52.5 21.5t-21.5 51.5q0 76 -23.5 120t-56 65.5t-64.5 27.5t-50 6q-35 0 -67 -12t-54 -35q-63 -57 -64 -172v-792 v-6v-22q0 -19 4.5 -47t15.5 -59.5t34 -56.5q45 -49 133 -49q92 0 137 51q23 25 34 53.5t16 55t5 45.5v18q-2 31 18.5 53.5t51.5 24.5q29 2 52.5 -18.5t25.5 -48.5v-31q0 -27 -9 -68q-18 -115 -86 -184q-92 -98 -245 -98q-154 0 -242 98q-35 35 -55.5 84t-30.5 108 q-6 37 -6 64z" />
<glyph unicode="d" horiz-adv-x="976" d="M176 61v1381q0 29 20.5 50t51.5 21h112h158q61 0 120.5 -21.5t107 -66.5t77 -114.5t29.5 -163.5v-789q0 -96 -29.5 -164.5t-77 -114.5t-106.5 -67.5t-121 -21.5h-158h-112q-31 0 -51.5 21t-20.5 50zM319 135h41h158q76 0 127 47q63 59 64 176v789q0 113 -64 176 q-53 47 -127 47h-158h-41v-1235z" />
<glyph unicode="e" horiz-adv-x="974" d="M158 61v1381q0 29 21.5 50t51.5 21h543q31 0 52.5 -21.5t21.5 -49.5q0 -31 -21.5 -52.5t-52.5 -21.5h-471v-629h354q31 0 51.5 -21.5t20.5 -51.5q0 -29 -20.5 -50.5t-51.5 -21.5h-354v-459h471q31 0 52.5 -21.5t21.5 -52.5q0 -29 -21.5 -50t-52.5 -21h-543q-31 0 -52 21 t-21 50z" />
<glyph unicode="f" horiz-adv-x="870" d="M180 61v1381q0 29 21.5 50t52.5 21h491q31 0 52.5 -21.5t21.5 -49.5q0 -31 -21.5 -52.5t-52.5 -21.5h-419v-629h303q31 0 51 -21.5t20 -51.5q0 -29 -20.5 -50.5t-50.5 -21.5h-303v-533q0 -29 -21.5 -50t-50.5 -21q-31 0 -52.5 21t-21.5 50z" />
<glyph unicode="g" horiz-adv-x="976" d="M142 326v16q0 14 1 20v803q0 94 30 164t77 115t106.5 66.5t120.5 21.5q131 0 223 -82q39 -35 75 -103.5t36 -183.5q0 -29 -21.5 -50t-50.5 -21q-31 0 -52 21.5t-21 49.5q0 78 -24 123t-54.5 67.5t-62 29t-48.5 6.5q-74 0 -127 -48q-63 -59 -63 -176v-809v-2v-21 q0 -19 4 -48t15 -62t36 -57q45 -49 135 -49q96 0 141 51q23 25 35.5 55.5t17.5 57t5 45.5v18v2v260h-144q-31 0 -52 21.5t-21 52.5q0 29 21.5 50.5t51.5 21.5h287v-402q1 -5 2 -19q0 -7 -1 -16q-1 -27 -7 -61q-23 -113 -88 -184q-92 -98 -248 -99q-156 0 -241 99 q-70 72 -89 194q-4 35 -5 62z" />
<glyph unicode="h" horiz-adv-x="1040" d="M160 61v1381q0 29 21.5 50t49.5 21q31 0 52.5 -21.5t21.5 -49.5v-703h430v703q0 29 21.5 50t52.5 21q29 0 50.5 -21.5t21.5 -49.5v-1381q0 -29 -21.5 -50t-50.5 -21q-31 0 -52.5 21.5t-21.5 49.5v533h-430v-533q0 -29 -21.5 -50t-52.5 -21q-29 0 -50 21t-21 50z" />
<glyph unicode="i" horiz-adv-x="583" d="M207 61v1381q0 29 20.5 50t51.5 21q29 0 50 -21.5t21 -49.5v-1381q0 -29 -21.5 -50t-49.5 -21q-31 0 -51.5 21t-20.5 50z" />
<glyph unicode="j" horiz-adv-x="1009" d="M168 367q4 25 12 45q8 16 23.5 29.5t44.5 9.5t42 -19.5t17 -32.5q6 -20 4 -45q-1 -9 0 -17q0 -26 4 -52q4 -29 15.5 -62t36.5 -57q45 -51 135 -51t141 51q23 25 35 54.5t17 56t5 46.5v21v4v1094q0 29 21.5 50t50.5 21q31 0 52.5 -21.5t21.5 -49.5l-2 -1092q2 -8 1 -34.5 t-7 -61.5q-10 -55 -32 -103.5t-56 -82.5q-92 -96 -248 -97q-156 0 -242 97q-70 76 -88 196q-5 35 -5 61q0 13 1 42z" />
<glyph unicode="k" horiz-adv-x="1040" d="M176 70v440v2v932q0 31 21.5 52.5t50.5 21.5q31 0 52.5 -21.5t21.5 -52.5v-678l438 713q16 27 45 34t55 -10q25 -16 32 -44.5t-9 -55.5l-322 -522l391 -772q9 -16 9 -33q0 -11 -4 -22q-9 -28 -35 -42q-14 -8 -33 -8q-20 0 -37.5 10.5t-28.5 28.5l-350 694l-151 -248v-419 q0 -31 -21.5 -51.5t-52.5 -20.5q-29 0 -50.5 20.5t-21.5 51.5z" />
<glyph unicode="l" horiz-adv-x="856" d="M109 61v1381q0 29 21.5 50t49.5 21q31 0 51.5 -21.5t20.5 -49.5v-1307h473q29 0 50.5 -21.5t21.5 -52.5q0 -29 -21.5 -50t-50.5 -21h-545q-29 0 -50 21t-21 50z" />
<glyph unicode="m" horiz-adv-x="1167" d="M139 61v1381v4v2v2q2 0 2 2v2v4q2 4 6 17l3 2v2l2 2v2q2 0 2 2q4 4 5 6t5 4l2 2q0 2 2 2h2v2h2q0 2 2 2h2v2h2h2q0 2 2 2t2 1t2 1h2l2 2h3h2h2q0 2 2 2h2h4h4h2h2h2h2h2h2h2h2l2 -2q8 0 17 -4q2 -2 4 -2q0 -2 2 -2l2 -2q2 0 4 -2q6 -6 10 -8q0 -2 2 -2v-2l2 -2v-2 q2 0 2 -2l2 -2v-2l2 -2l310 -607l309 607v2l2 2v2h2v2l2 2q0 2 2 2v2q8 8 12 10q0 2 3 2h2q0 2 2 2v2h2h2q0 2 2 2q2 2 5 2t7 2h2h2q0 2 2 2h2h2h2h2h4h5h4h2h2h2v-2h2h2h2h2v-2h4l2 -2h2l2 -2h4v-2h2v-2h2l2 -2q2 0 3 -2h2l2 -2q4 -2 8 -10q2 0 2 -2l2 -2v-2l2 -2l2 -2 q4 -8 4 -15v-2h2v-4v-2v-2v-2v-2v-4v-1381q0 -29 -20.5 -50t-51.5 -21q-29 0 -50 21.5t-21 49.5v1080l-234 -457q-10 -29 -35 -41q-20 -8 -32 -8q-10 0 -17.5 2t-15.5 6q-27 12 -37 41l-231 457v-1080q0 -29 -21.5 -50t-50.5 -21q-31 0 -52.5 21t-21.5 50z" />
<glyph unicode="n" horiz-adv-x="1038" d="M158 68v1378v4v2v2v2v2v2h2v4v2v2l2 2v5q2 0 2 2t1 2t1 2v2h2v2q0 2 2 2v2l2 2l2 2q0 2 2 2q0 2 1 2t1 2q2 0 2 2h2l2 2l2 2q2 0 2 2h2l3 2h2l2 2h2q4 4 8 4.5t8 2.5h2q4 2 16 2h5h2q2 0 2 -2h2h2h4q2 -2 4 -2l2 -3h4l2 -2q2 0 4 -2h2q0 -2 2 -2l2 -2h2v-2h2q0 -2 3 -2 q0 -2 2 -2q2 -2 2 -4q2 0 2 -2h2v-2h2v-2q0 -2 2 -2v-2l2 -2q0 -2 1 -2t1 -2l2 -4l459 -1059v1032q0 29 20.5 50.5t50.5 21.5q29 0 50.5 -21.5t21.5 -50.5v-1378v-7v-2v-2v-2v-2l-2 -2v-2v-4l-2 -2v-4q-2 0 -2 -2v-2l-2 -2v-2q-2 0 -2 -2v-2h-2v-2l-2 -2q0 -2 -2 -2 q0 -2 -1 -2.5t-1 -2.5l-2 -2q-2 0 -2 -2h-3l-2 -2q0 -2 -2 -2l-2 -2h-2q0 -2 -2 -2h-2v-2h-2l-2 -2q-8 -4 -16 -4q-4 -2 -15 -2h-2h-2h-2h-4q-4 0 -6 2h-4q-4 2 -5 2t-5 2q-2 2 -4 2t-5 2l-2 2l-2 2h-2q0 2 -2 2l-2 2l-2 2l-2 2l-2 2q-2 2 -2 5q-2 0 -2 2l-2 2q-2 2 -2 6 q-2 2 -2 3t-2 3l-459 1057v-1030q0 -29 -20.5 -50.5t-51.5 -21.5q-29 0 -50 21.5t-21 50.5z" />
<glyph unicode="o" horiz-adv-x="927" d="M129 321.5q0 26.5 2 36.5v801q0 94 29.5 164t77 116t106.5 67.5t121 21.5q37 0 100.5 -14.5t124.5 -67.5q20 -18 41 -43t37 -60.5t27.5 -80.5t11.5 -103v-815v-34q0 -26 -6 -60q-20 -113 -88 -187q-92 -98 -248 -98t-244 98q-68 74 -86 195q-6 37 -6 63.5zM274 328 q0 -20 4.5 -49t15.5 -62t36 -57q45 -49 135 -49q92 0 141 51q23 25 35 54.5t17.5 56t5.5 44.5v21v4v817q0 78 -25 122t-57.5 66.5t-66.5 28.5t-50 6q-76 0 -127 -47q-63 -59 -64 -176v-803v-6v-22z" />
<glyph unicode="p" horiz-adv-x="976" d="M147 61v1379q0 43 37 63q14 12 37 13h301q66 0 126.5 -40t107.5 -112q41 -66 63.5 -145.5t22.5 -161.5q0 -84 -22.5 -164t-63.5 -145q-47 -72 -107.5 -111t-126.5 -39h-231v-537q0 -31 -20.5 -51t-51.5 -20q-29 0 -50.5 20t-21.5 51zM291 741h231q27 0 56.5 21.5 t54.5 62.5q31 47 47 107.5t16 124.5q0 61 -16 121.5t-47 107.5q-25 41 -54.5 62.5t-56.5 21.5h-231v-629z" />
<glyph unicode="q" horiz-adv-x="1024" d="M184 325.5q0 26.5 2 36.5v801q0 94 30 164t77 116t106.5 67.5t118.5 21.5q39 0 102.5 -14.5t124.5 -67.5q20 -18 41 -43t37.5 -60.5t27.5 -80.5t11 -103v-815v-34q0 -26 -6 -60q-18 -94 -70 -166l84 -96q18 -20 18 -45q0 -34 -26 -58q-20 -16 -47 -16q-35 0 -55 25 l-88 102q-68 -31 -152 -31q-156 0 -244 99q-68 74 -86 194q-6 37 -6 63.5zM330 332q0 -20 4 -49t15 -62t36 -57q45 -49 135 -49q92 0 142 51q23 25 35 54.5t17 56t5 45.5v20v6v815q0 78 -24.5 122t-58.5 66.5t-66.5 28.5t-51.5 6q-74 0 -125 -47q-63 -59 -63 -176v-803v-6 v-22z" />
<glyph unicode="r" horiz-adv-x="1005" d="M162 61v1379q0 31 21.5 52t49.5 21h306q66 0 126 -39.5t107 -111.5q41 -66 63.5 -145.5t22.5 -161.5q0 -84 -22.5 -164t-63.5 -146q-51 -78 -110 -112l237 -543q7 -16 7 -31q0 -13 -5 -25q-10 -28 -39 -38q-8 -4 -15 -5t-13 -1q-23 0 -40.5 10t-27.5 33l-246 563h-213 v-535q0 -31 -21.5 -51t-52.5 -20q-29 0 -50 20t-21 51zM307 739h232q27 0 56.5 22.5t53.5 61.5q31 47 48.5 107.5t17.5 124.5q0 61 -17.5 121.5t-48.5 107.5q-25 41 -54.5 62.5t-55.5 21.5h-232v-629z" />
<glyph unicode="s" horiz-adv-x="958" d="M127 344q0 31 21.5 51.5t52.5 20.5q29 0 49 -20.5t20 -51.5q0 -68 19.5 -111t50.5 -66.5t68.5 -32.5t74.5 -9q20 0 58.5 5t75 27.5t64.5 65.5t28 121q0 76 -21.5 133.5t-59.5 102.5t-87 83l-105 76l-99 74q-50 39 -91 86q-96 113 -99 260q0 8 1.5 33t7.5 57 q18 104 82 174q92 96 247 97q158 0 244 -97q31 -35 49.5 -80t22.5 -98q4 -37 3 -62.5t-3 -29.5q-6 -27 -15 -47q-10 -16 -24 -28.5t-43 -8.5t-41 21.5t-16 35.5q-6 23 -3 48q4 29 0 55q-4 23 -12 50.5t-26 49.5q-41 49 -136 49q-94 0 -141 -53q-23 -23 -34 -51.5t-15 -50.5 q-6 -29 -4 -56v-6q0 -51 16.5 -92t46 -76t71.5 -68.5l95 -72.5q59 -39 115.5 -83t105.5 -103q111 -135 111 -322q0 -94 -32 -162.5t-84 -112.5t-118.5 -65.5t-134.5 -21.5q-143 0 -241 81q-39 33 -77 99.5t-38 181.5z" />
<glyph unicode="t" horiz-adv-x="911" d="M82 1440q0 31 21.5 52t52.5 21h643q29 0 50 -21.5t21 -51.5q0 -29 -21.5 -50.5t-49.5 -21.5h-248v-1307q0 -31 -20.5 -51t-51.5 -20q-29 0 -50 20.5t-21 50.5v1307h-252q-31 0 -52.5 21.5t-21.5 50.5z" />
<glyph unicode="u" horiz-adv-x="1001" d="M158 326v36v1080q0 29 21.5 50t49.5 21q31 0 52.5 -21.5t21.5 -49.5v-1082v-6q0 -2 -1 -22.5t4 -49t16.5 -61.5t33.5 -57q45 -49 136 -49q94 0 143 51q23 25 35 54.5t16 58.5q6 31 4 63v6v1092q0 31 21.5 52t52.5 21q29 0 50.5 -21.5t21.5 -51.5v-1092q0 -8 -1 -33.5 t-8 -60.5q-18 -113 -88 -186q-90 -98 -247 -99q-154 0 -242 99q-70 78 -86 194q-6 37 -6 64z" />
<glyph unicode="v" horiz-adv-x="927" d="M109 1425q-2 8 -2 16q0 20 12 39q16 26 45 31q7 2 15 2q21 0 39 -13q26 -17 32 -46l211 -1038l211 1038q6 29 30 46q18 13 39 13q7 0 15 -2q31 -6 47 -31q12 -19 12 -39q0 -8 -2 -16l-276 -1366q-6 -25 -27 -41t-45 -16h-4h-6q-25 0 -45.5 16.5t-24.5 40.5z" />
<glyph unicode="w" horiz-adv-x="1255" d="M133 1432q-1 5 -1 10q0 23 15 42q18 24 50 27q5 1 10 1q23 0 42 -15q24 -18 27 -47l111 -1061l162 574l2 2v2q0 2 2 2v2v2l4 4v2l2 2l2 2q0 2 2 2v2h2v2l2 2q2 0 2 2h2v2l2 2q4 4 9.5 5.5t9.5 5.5h4l2 2h2h2h2h2v2h2h2h2h2h2h2h3h2h2h2h2l2 -2h2h4q2 0 2 -1t2 -1h4 q4 -4 8 -5.5t9 -5.5l2 -2q2 0 2 -2h2v-2h2v-2q2 0 2 -2h2v-2l2 -2l2 -2q0 -2 2 -2v-2v-2h2v-2v-2q2 0 2 -2l2 -2v-2v-2l168 -574l127 1061q4 29 28 47q19 15 42 15q5 0 10 -1q29 -4 48 -27.5t15 -51.5l-149 -1379q-2 -2 -2 -6v-2v-2l-2 -2v-2q0 -2 -2 -4q0 -4 -4 -8 q0 -2 -2 -4v-3h-2v-2l-3 -2v-2h-2v-2q-8 -8 -14 -10q0 -2 -2 -2l-2 -2h-2l-2 -2h-2q-6 -2 -14 -6h-3h-2h-2h-2h-4h-4h-4h-2h-2h-2q-4 0 -6 2h-4q-8 2 -17 8q-2 2 -4 3t-4 3l-4 4h-2l-2 2v2q-2 0 -2 1t-2 1v2q0 2 -1 2t-1 3h-2q0 4 -2 4v2l-2 4q0 2 -1 3t-1 3l-216 670 l-215 -670q-2 -2 -2 -6h-2q0 -4 -2 -4v-2l-2 -4q-2 -2 -2 -5q-2 0 -2 -2l-2 -2l-2 -2l-2 -2l-4 -4h-2q-4 -4 -8 -6q-6 -6 -15 -8h-4h-2q-2 -2 -4 -2h-2h-2h-4h-2h-2h-4h-2h-2h-2h-2h-3q-6 2 -14 6h-2h-2v2h-2l-2 2q-2 0 -2 2h-2q-4 2 -10 8v2h-2q0 2 -2 2q0 2 -3 2v2l-2 2 l-2 3l-6 12v4q-2 0 -2 2v2v2v2q-2 2 -2 6z" />
<glyph unicode="x" horiz-adv-x="976" d="M143 88l217 563l48 119l-244 631q-10 29 1 56.5t40 37.5q14 5 27 5q15 0 29 -6q28 -11 38 -40l184 -481l187 481q10 29 37 40q14 6 28 6q13 0 27 -5q29 -10 41 -37.5t2 -56.5l-244 -631l264 -682q5 -13 5 -26q0 -15 -7 -30q-12 -28 -41 -38q-8 -4 -24 -4q-23 0 -41.5 11 t-26.5 34l-207 534l-204 -534q-8 -23 -27 -34t-41 -11q-16 0 -25 4q-29 10 -41 38q-7 15 -6 30q-1 13 4 26z" />
<glyph unicode="y" horiz-adv-x="913" d="M127 1413q-5 14 -5 27q0 15 6 28q11 27 40 37q15 6 30 7q13 0 26 -6q28 -11 38 -40l197 -499l196 499q10 29 38 40q13 5 27 6q15 0 30 -7q29 -10 40 -37q6 -14 5 -28q0 -13 -4 -27l-261 -655v-697q0 -31 -20.5 -51t-50.5 -20q-29 0 -50.5 20.5t-21.5 50.5v697z" />
<glyph unicode="z" horiz-adv-x="976" d="M136 37q-5 13 -5 26q0 14 6 29l502 1276h-350q-29 0 -50.5 21.5t-21.5 50.5q0 31 21.5 52t50.5 21h456h5h4q0 -2 2 -2h2h2h2q2 0 4 -2h2h2l2 -2h4q0 -2 2 -2h2l2 -2l2 -2h2l2 -2q8 -6 13 -12l2 -2l2 -2v-2q2 0 2 -2l2 -2q2 -4 3 -8.5t3 -8.5q0 -2 2 -4v-2v-2v-2v-2v-4v-2 v-2v-2v-4v-4v-3v-2v-2q-2 0 -2 -2v-4q-2 0 -2 -2l-506 -1282h438q31 0 51.5 -21.5t20.5 -50.5q0 -31 -20.5 -52t-51.5 -21h-530q-25 0 -39 12q-29 10 -40 37z" />
<glyph unicode="{" />
<glyph unicode="|" />
<glyph unicode="}" />
<glyph unicode="~" />
<glyph unicode="&#xaa;" horiz-adv-x="866" d="M82 53l285 1415q2 8 4 11v2v2q4 10 10 14v4h2v2h2v2h2v2h2q4 4 8 6.5t11 4.5v2h2q4 2 9 2t9 2h2h4h2q4 -2 9.5 -2t9.5 -2h2v-2q8 -2 12 -4.5t8 -6.5h2v-2h2v-2h2v-2l2 -4q2 -4 5.5 -7t5.5 -7v-2v-2q2 -2 2 -11l286 -1415q2 -8 2 -15q0 -20 -12 -37q-16 -24 -43 -30h-12 q-23 0 -42.5 15.5t-23.5 38.5l-55 266h-332l-53 -266q-4 -23 -23.5 -38.5t-44.5 -15.5h-12q-27 6 -42 30q-11 17 -11 36q0 8 2 16zM293 424h278l-141 692z" />
<glyph unicode="&#xad;" d="M559 684q0 29 21.5 50.5t50.5 21.5h418q29 0 50 -21.5t21 -50.5q0 -31 -21.5 -51.5t-49.5 -20.5h-418q-29 0 -50.5 20.5t-21.5 51.5z" />
<glyph unicode="&#xb2;" horiz-adv-x="829" d="M39 27q0 186 108 376q47 82 105 157l117 147l95 119q46 58 81 118t56.5 119t21.5 121q0 2 2 4v20q0 18 -5.5 44t-17.5 54.5t-35 53.5q-47 53 -151 53q-98 0 -144 -51q-20 -23 -28 -52.5t-13 -54.5q-4 -31 0 -59q4 -25 -2 -47q-4 -18 -17 -33.5t-40 -17.5q-29 -4 -43 8 t-25 29q-10 18 -14 41q-2 4 -3 30.5t3 65.5q12 115 74 184q90 100 252 100q164 0 258 -100q37 -39 55.5 -83t27.5 -84t9 -69v-38q0 -143 -92 -303q-41 -68 -91 -134l-104 -129l-97 -120q-48 -61 -88 -125t-68.5 -131.5t-39.5 -141.5h349q76 0 92 25q12 16 15 49t3 64 t20.5 51t51.5 20q29 0 50 -20.5t21 -50.5q0 -61 -8 -109.5t-37 -87.5q-20 -29 -45.5 -45.5t-54.5 -25.5t-56.5 -11t-51.5 -2h-424q-31 0 -51.5 21.5t-20.5 50.5z" />
<glyph unicode="&#xb3;" horiz-adv-x="870" d="M74 293.5q2 25.5 2 30.5q2 20 10 34q8 12 23.5 20.5t44.5 4.5q27 -4 41 -16.5t19 -25.5t5 -25v-13l-2 -17q-2 -17 1 -43t12.5 -54.5t29.5 -51.5q45 -51 143 -51q166 0 228 80q45 57 45 168q0 233 -94 332q-78 80 -240 79q-31 0 -51.5 21.5t-20.5 50.5v2q0 29 20.5 50.5 t51.5 21.5q72 0 128 5t85 30q55 45 55 252v6v19q0 17 -5 43t-16 54.5t-34 53.5q-51 53 -152 53q-100 0 -143 -51q-20 -23 -28.5 -51.5t-11.5 -54t-2 -43.5l1 -17q4 -29 -14.5 -52.5t-46.5 -27.5q-29 -4 -53.5 13.5t-28.5 45.5q0 4 -2 31t2 66q12 111 76 184q86 100 251 100 q164 0 256 -98q37 -39 56.5 -84t29 -85t9.5 -70v-37q0 -131 -23 -218q-25 -92 -84 -143q-4 -2 -5 -4t-5 -4q25 -18 47 -41q135 -139 135 -432q0 -162 -76 -256q-104 -135 -340 -135q-164 0 -251 100q-63 72 -76 184q-4 41 -2 66.5z" />
<glyph unicode="&#xb9;" horiz-adv-x="843" d="M82 49q0 31 21.5 51.5t50.5 20.5h208v1175l-149 -151q-23 -20 -51.5 -20.5t-50.5 20.5q-20 23 -20.5 51.5t20.5 50.5l274 273q33 33 78 16q43 -20 43 -68v-1347h207q31 0 51 -20.5t20 -51.5q0 -29 -20.5 -50.5t-50.5 -21.5h-559q-29 0 -50.5 21.5t-21.5 50.5z" />
<glyph unicode="&#xba;" horiz-adv-x="927" d="M129 321.5q0 26.5 2 36.5v801q0 94 29.5 164t77 116t106.5 67.5t121 21.5q37 0 100.5 -14.5t124.5 -67.5q20 -18 41 -43t37 -60.5t27.5 -80.5t11.5 -103v-815v-34q0 -26 -6 -60q-20 -113 -88 -187q-92 -98 -248 -98t-244 98q-68 74 -86 195q-6 37 -6 63.5zM274 328 q0 -20 4.5 -49t15.5 -62t36 -57q45 -49 135 -49q92 0 141 51q23 25 35 54.5t17.5 56t5.5 44.5v21v4v817q0 78 -25 122t-57.5 66.5t-66.5 28.5t-50 6q-76 0 -127 -47q-63 -59 -64 -176v-803v-6v-22z" />
<glyph unicode="&#xbc;" horiz-adv-x="2701" d="M1886 745l187 709q8 29 33.5 44t54.5 7t44 -32.5t7 -53.5l-164 -620h455v637q0 31 21.5 51t50.5 20t50 -20.5t21 -50.5v-1420q0 -29 -21.5 -50t-49.5 -21q-29 0 -50.5 21.5t-21.5 49.5v639h-549q-37 0 -55 29q-23 24 -13 61zM82 49q0 31 21.5 51.5t50.5 20.5h208v1175 l-149 -151q-23 -20 -51.5 -20.5t-50.5 20.5q-20 23 -20.5 51.5t20.5 50.5l274 273q33 33 78 16q43 -20 43 -68v-1347h207q31 0 51 -20.5t20 -51.5q0 -29 -20.5 -50.5t-50.5 -21.5h-559q-29 0 -50.5 21.5t-21.5 50.5z" />
<glyph unicode="&#xbd;" horiz-adv-x="2697" d="M1907 27q0 186 108 376q47 82 105 157l117 147l95 119q46 58 81 118t56.5 119t21.5 121q0 2 2 4v20q0 18 -5.5 44t-17.5 54.5t-35 53.5q-47 53 -151 53q-98 0 -144 -51q-20 -23 -28 -52.5t-13 -54.5q-4 -31 0 -59q4 -25 -2 -47q-4 -18 -17 -33.5t-40 -17.5q-29 -4 -43 8 t-25 29q-10 18 -14 41q-2 4 -3 30.5t3 65.5q12 115 74 184q90 100 252 100q164 0 258 -100q37 -39 55.5 -83t27.5 -84t9 -69v-38q0 -143 -92 -303q-41 -68 -91 -134l-104 -129l-97 -120q-48 -61 -88 -125t-68.5 -131.5t-39.5 -141.5h349q76 0 92 25q12 16 15 49t3 64 t20.5 51t51.5 20q29 0 50 -20.5t21 -50.5q0 -61 -8 -109.5t-37 -87.5q-20 -29 -45.5 -45.5t-54.5 -25.5t-56.5 -11t-51.5 -2h-424q-31 0 -51.5 21.5t-20.5 50.5zM82 49q0 31 21.5 51.5t50.5 20.5h208v1175l-149 -151q-23 -20 -51.5 -20.5t-50.5 20.5q-20 23 -20.5 51.5 t20.5 50.5l274 273q33 33 78 16q43 -20 43 -68v-1347h207q31 0 51 -20.5t20 -51.5q0 -29 -20.5 -50.5t-50.5 -21.5h-559q-29 0 -50.5 21.5t-21.5 50.5z" />
<glyph unicode="&#xbe;" horiz-adv-x="2727" d="M1912 745l187 709q8 29 33.5 44t54.5 7t44 -32.5t7 -53.5l-164 -620h455v637q0 31 21.5 51t50.5 20t50 -20.5t21 -50.5v-1420q0 -29 -21.5 -50t-49.5 -21q-29 0 -50.5 21.5t-21.5 49.5v639h-549q-37 0 -55 29q-23 24 -13 61zM74 293.5q2 25.5 2 30.5q2 20 10 34 q8 12 23.5 20.5t44.5 4.5q27 -4 41 -16.5t19 -25.5t5 -25v-13l-2 -17q-2 -17 1 -43t12.5 -54.5t29.5 -51.5q45 -51 143 -51q166 0 228 80q45 57 45 168q0 233 -94 332q-78 80 -240 79q-31 0 -51.5 21.5t-20.5 50.5v2q0 29 20.5 50.5t51.5 21.5q72 0 128 5t85 30 q55 45 55 252v6v19q0 17 -5 43t-16 54.5t-34 53.5q-51 53 -152 53q-100 0 -143 -51q-20 -23 -28.5 -51.5t-11.5 -54t-2 -43.5l1 -17q4 -29 -14.5 -52.5t-46.5 -27.5q-29 -4 -53.5 13.5t-28.5 45.5q0 4 -2 31t2 66q12 111 76 184q86 100 251 100q164 0 256 -98 q37 -39 56.5 -84t29 -85t9.5 -70v-37q0 -131 -23 -218q-25 -92 -84 -143q-4 -2 -5 -4t-5 -4q25 -18 47 -41q135 -139 135 -432q0 -162 -76 -256q-104 -135 -340 -135q-164 0 -251 100q-63 72 -76 184q-4 41 -2 66.5z" />
<glyph unicode="&#xc0;" horiz-adv-x="866" d="M252 1928.5q8 27.5 35 43.5q27 14 55.5 6t42.5 -34l103 -187q16 -25 7 -53.5t-34 -42.5q-29 -16 -56.5 -7t-41.5 34l-103 186q-16 27 -8 54.5zM82 53l285 1415q2 8 4 11v2v2q4 10 10 14v4h2v2h2v2h2v2h2q4 4 8 6.5t11 4.5v2h2q4 2 9 2t9 2h2h4h2q4 -2 9.5 -2t9.5 -2h2v-2 q8 -2 12 -4.5t8 -6.5h2v-2h2v-2h2v-2l2 -4q2 -4 5.5 -7t5.5 -7v-2v-2q2 -2 2 -11l286 -1415q2 -8 2 -15q0 -20 -12 -37q-16 -24 -43 -30h-12q-23 0 -42.5 15.5t-23.5 38.5l-55 266h-332l-53 -266q-4 -23 -23.5 -38.5t-44.5 -15.5h-12q-27 6 -42 30q-11 17 -11 36q0 8 2 16z M293 424h278l-141 692z" />
<glyph unicode="&#xc2;" horiz-adv-x="866" d="M82 53l285 1415q2 8 4 11v2v2q4 10 10 14v4h2v2h2v2h2v2h2q4 4 8 6.5t11 4.5v2h2q4 2 9 2t9 2h2h4h2q4 -2 9.5 -2t9.5 -2h2v-2q8 -2 12 -4.5t8 -6.5h2v-2h2v-2h2v-2l2 -4q2 -4 5.5 -7t5.5 -7v-2v-2q2 -2 2 -11l286 -1415q2 -8 2 -15q0 -20 -12 -37q-16 -24 -43 -30h-12 q-23 0 -42.5 15.5t-23.5 38.5l-55 266h-332l-53 -266q-4 -23 -23.5 -38.5t-44.5 -15.5h-12q-27 6 -42 30q-11 17 -11 36q0 8 2 16zM293 424h278l-141 692z" />
<glyph unicode="&#xc3;" horiz-adv-x="866" d="M133 1774.5q2 17.5 20 35.5q16 16 34 20.5t32 0.5q16 -4 33 -15q2 -4 10 -8q4 -4 12 -7t19 -5q49 -12 106 27q72 49 130.5 53t96.5 -8q43 -12 67 -31t28 -25q8 -12 10 -26q2 -12 -1 -28.5t-20 -33.5q-16 -18 -31.5 -22t-29.5 0q-16 4 -33 12h2q-4 2 -10 6t-27 12 q-47 10 -100 -26q-47 -33 -88 -44.5t-76 -11.5q-20 0 -36.5 2.5t-30.5 6.5q-43 12 -68 30.5t-29 22.5q-12 14 -18 31q-4 14 -2 31.5zM82 53l285 1415q2 8 4 11v2v2q4 10 10 14v4h2v2h2v2h2v2h2q4 4 8 6.5t11 4.5v2h2q4 2 9 2t9 2h2h4h2q4 -2 9.5 -2t9.5 -2h2v-2 q8 -2 12 -4.5t8 -6.5h2v-2h2v-2h2v-2l2 -4q2 -4 5.5 -7t5.5 -7v-2v-2q2 -2 2 -11l286 -1415q2 -8 2 -15q0 -20 -12 -37q-16 -24 -43 -30h-12q-23 0 -42.5 15.5t-23.5 38.5l-55 266h-332l-53 -266q-4 -23 -23.5 -38.5t-44.5 -15.5h-12q-27 6 -42 30q-11 17 -11 36q0 8 2 16z M293 424h278l-141 692z" />
<glyph unicode="&#xc5;" horiz-adv-x="866" d="M82 53l285 1415q2 8 4 11v2v2q4 10 10 14v4h2v2h2v2h2v2h2q4 4 8 6.5t11 4.5v2h2q4 2 9 2t9 2h2h4h2q4 -2 9.5 -2t9.5 -2h2v-2q8 -2 12 -4.5t8 -6.5h2v-2h2v-2h2v-2l2 -4q2 -4 5.5 -7t5.5 -7v-2v-2q2 -2 2 -11l286 -1415q2 -8 2 -15q0 -20 -12 -37q-16 -24 -43 -30h-12 q-23 0 -42.5 15.5t-23.5 38.5l-55 266h-332l-53 -266q-4 -23 -23.5 -38.5t-44.5 -15.5h-12q-27 6 -42 30q-11 17 -11 36q0 8 2 16zM293 424h278l-141 692z" />
<glyph unicode="&#xc8;" horiz-adv-x="974" d="M321 1928.5q8 27.5 35 43.5q27 14 55.5 6t42.5 -34l103 -187q16 -25 7 -53.5t-34 -42.5q-29 -16 -56.5 -7t-41.5 34l-103 186q-16 27 -8 54.5zM158 61v1381q0 29 21.5 50t51.5 21h543q31 0 52.5 -21.5t21.5 -49.5q0 -31 -21.5 -52.5t-52.5 -21.5h-471v-629h354 q31 0 51.5 -21.5t20.5 -51.5q0 -29 -20.5 -50.5t-51.5 -21.5h-354v-459h471q31 0 52.5 -21.5t21.5 -52.5q0 -29 -21.5 -50t-52.5 -21h-543q-31 0 -52 21t-21 50z" />
<glyph unicode="&#xca;" horiz-adv-x="974" d="M158 61v1381q0 29 21.5 50t51.5 21h543q31 0 52.5 -21.5t21.5 -49.5q0 -31 -21.5 -52.5t-52.5 -21.5h-471v-629h354q31 0 51.5 -21.5t20.5 -51.5q0 -29 -20.5 -50.5t-51.5 -21.5h-354v-459h471q31 0 52.5 -21.5t21.5 -52.5q0 -29 -21.5 -50t-52.5 -21h-543q-31 0 -52 21 t-21 50z" />
<glyph unicode="&#xcc;" horiz-adv-x="507" d="M70 1928.5q8 27.5 35 43.5q27 14 55.5 6t42.5 -34l103 -187q16 -25 7 -53.5t-34 -42.5q-29 -16 -56.5 -7t-41.5 34l-103 186q-16 27 -8 54.5zM178 61v1381q0 29 20.5 50t51.5 21q29 0 50.5 -21.5t21.5 -49.5v-1381q0 -29 -21.5 -50t-50.5 -21q-31 0 -51.5 21t-20.5 50z " />
<glyph unicode="&#xce;" horiz-adv-x="507" d="M178 61v1381q0 29 20.5 50t51.5 21q29 0 50.5 -21.5t21.5 -49.5v-1381q0 -29 -21.5 -50t-50.5 -21q-31 0 -51.5 21t-20.5 50z" />
<glyph unicode="&#xd1;" horiz-adv-x="1038" d="M232 1774.5q2 17.5 20 35.5q16 16 34 20.5t32 0.5q16 -4 33 -15q2 -4 10 -8q4 -4 12 -7t19 -5q49 -12 106 27q72 49 130.5 53t96.5 -8q43 -12 67 -31t28 -25q8 -12 10 -26q2 -12 -1 -28.5t-20 -33.5q-16 -18 -31.5 -22t-29.5 0q-16 4 -33 12h2q-4 2 -10 6t-27 12 q-47 10 -100 -26q-47 -33 -88 -44.5t-76 -11.5q-20 0 -36.5 2.5t-30.5 6.5q-43 12 -68 30.5t-29 22.5q-12 14 -18 31q-4 14 -2 31.5zM158 68v1378v4v2v2v2v2v2h2v4v2v2l2 2v5q2 0 2 2t1 2t1 2v2h2v2q0 2 2 2v2l2 2l2 2q0 2 2 2q0 2 1 2t1 2q2 0 2 2h2l2 2l2 2q2 0 2 2h2l3 2 h2l2 2h2q4 4 8 4.5t8 2.5h2q4 2 16 2h5h2q2 0 2 -2h2h2h4q2 -2 4 -2l2 -3h4l2 -2q2 0 4 -2h2q0 -2 2 -2l2 -2h2v-2h2q0 -2 3 -2q0 -2 2 -2q2 -2 2 -4q2 0 2 -2h2v-2h2v-2q0 -2 2 -2v-2l2 -2q0 -2 1 -2t1 -2l2 -4l459 -1059v1032q0 29 20.5 50.5t50.5 21.5q29 0 50.5 -21.5 t21.5 -50.5v-1378v-7v-2v-2v-2v-2l-2 -2v-2v-4l-2 -2v-4q-2 0 -2 -2v-2l-2 -2v-2q-2 0 -2 -2v-2h-2v-2l-2 -2q0 -2 -2 -2q0 -2 -1 -2.5t-1 -2.5l-2 -2q-2 0 -2 -2h-3l-2 -2q0 -2 -2 -2l-2 -2h-2q0 -2 -2 -2h-2v-2h-2l-2 -2q-8 -4 -16 -4q-4 -2 -15 -2h-2h-2h-2h-4q-4 0 -6 2 h-4q-4 2 -5 2t-5 2q-2 2 -4 2t-5 2l-2 2l-2 2h-2q0 2 -2 2l-2 2l-2 2l-2 2l-2 2q-2 2 -2 5q-2 0 -2 2l-2 2q-2 2 -2 6q-2 2 -2 3t-2 3l-459 1057v-1030q0 -29 -20.5 -50.5t-51.5 -21.5q-29 0 -50 21.5t-21 50.5z" />
<glyph unicode="&#xd2;" horiz-adv-x="927" d="M285 1928.5q8 27.5 35 43.5q27 14 55.5 6t42.5 -34l103 -187q16 -25 7 -53.5t-34 -42.5q-29 -16 -56.5 -7t-41.5 34l-103 186q-16 27 -8 54.5zM129 321.5q0 26.5 2 36.5v801q0 94 29.5 164t77 116t106.5 67.5t121 21.5q37 0 100.5 -14.5t124.5 -67.5q20 -18 41 -43 t37 -60.5t27.5 -80.5t11.5 -103v-815v-34q0 -26 -6 -60q-20 -113 -88 -187q-92 -98 -248 -98t-244 98q-68 74 -86 195q-6 37 -6 63.5zM274 328q0 -20 4.5 -49t15.5 -62t36 -57q45 -49 135 -49q92 0 141 51q23 25 35 54.5t17.5 56t5.5 44.5v21v4v817q0 78 -25 122t-57.5 66.5 t-66.5 28.5t-50 6q-76 0 -127 -47q-63 -59 -64 -176v-803v-6v-22z" />
<glyph unicode="&#xd4;" horiz-adv-x="927" d="M129 321.5q0 26.5 2 36.5v801q0 94 29.5 164t77 116t106.5 67.5t121 21.5q37 0 100.5 -14.5t124.5 -67.5q20 -18 41 -43t37 -60.5t27.5 -80.5t11.5 -103v-815v-34q0 -26 -6 -60q-20 -113 -88 -187q-92 -98 -248 -98t-244 98q-68 74 -86 195q-6 37 -6 63.5zM274 328 q0 -20 4.5 -49t15.5 -62t36 -57q45 -49 135 -49q92 0 141 51q23 25 35 54.5t17.5 56t5.5 44.5v21v4v817q0 78 -25 122t-57.5 66.5t-66.5 28.5t-50 6q-76 0 -127 -47q-63 -59 -64 -176v-803v-6v-22z" />
<glyph unicode="&#xd5;" horiz-adv-x="927" d="M166 1774.5q2 17.5 20 35.5q16 16 34 20.5t32 0.5q16 -4 33 -15q2 -4 10 -8q4 -4 12 -7t19 -5q49 -12 106 27q72 49 130.5 53t96.5 -8q43 -12 67 -31t28 -25q8 -12 10 -26q2 -12 -1 -28.5t-20 -33.5q-16 -18 -31.5 -22t-29.5 0q-16 4 -33 12h2q-4 2 -10 6t-27 12 q-47 10 -100 -26q-47 -33 -88 -44.5t-76 -11.5q-20 0 -36.5 2.5t-30.5 6.5q-43 12 -68 30.5t-29 22.5q-12 14 -18 31q-4 14 -2 31.5zM129 321.5q0 26.5 2 36.5v801q0 94 29.5 164t77 116t106.5 67.5t121 21.5q37 0 100.5 -14.5t124.5 -67.5q20 -18 41 -43t37 -60.5 t27.5 -80.5t11.5 -103v-815v-34q0 -26 -6 -60q-20 -113 -88 -187q-92 -98 -248 -98t-244 98q-68 74 -86 195q-6 37 -6 63.5zM274 328q0 -20 4.5 -49t15.5 -62t36 -57q45 -49 135 -49q92 0 141 51q23 25 35 54.5t17.5 56t5.5 44.5v21v4v817q0 78 -25 122t-57.5 66.5 t-66.5 28.5t-50 6q-76 0 -127 -47q-63 -59 -64 -176v-803v-6v-22z" />
<glyph unicode="&#xd9;" horiz-adv-x="1026" d="M340 1928.5q8 27.5 35 43.5q27 14 55.5 6t42.5 -34l103 -187q16 -25 7 -53.5t-34 -42.5q-29 -16 -56.5 -7t-41.5 34l-103 186q-16 27 -8 54.5zM182 326v36v1080q0 29 21.5 50t50.5 21q31 0 52.5 -21.5t21.5 -49.5v-1082v-6q0 -2 -1 -22.5t4 -49t16 -61.5t34 -57 q45 -49 135 -49q94 0 143 51q23 25 35.5 54.5t16.5 58.5q6 31 4 63v6v1092q0 31 21.5 52t51.5 21q29 0 50.5 -21.5t21.5 -51.5v-1092q0 -8 -1 -33.5t-7 -60.5q-18 -113 -88 -186q-90 -98 -248 -99q-154 0 -242 99q-70 78 -86 194q-6 37 -6 64z" />
<glyph unicode="&#xdb;" horiz-adv-x="1026" d="M182 326v36v1080q0 29 21.5 50t50.5 21q31 0 52.5 -21.5t21.5 -49.5v-1082v-6q0 -2 -1 -22.5t4 -49t16 -61.5t34 -57q45 -49 135 -49q94 0 143 51q23 25 35.5 54.5t16.5 58.5q6 31 4 63v6v1092q0 31 21.5 52t51.5 21q29 0 50.5 -21.5t21.5 -51.5v-1092q0 -8 -1 -33.5 t-7 -60.5q-18 -113 -88 -186q-90 -98 -248 -99q-154 0 -242 99q-70 78 -86 194q-6 37 -6 64z" />
<glyph unicode="&#xe0;" horiz-adv-x="866" d="M252 1928.5q8 27.5 35 43.5q27 14 55.5 6t42.5 -34l103 -187q16 -25 7 -53.5t-34 -42.5q-29 -16 -56.5 -7t-41.5 34l-103 186q-16 27 -8 54.5zM82 53l285 1415q2 8 4 11v2v2q4 10 10 14v4h2v2h2v2h2v2h2q4 4 8 6.5t11 4.5v2h2q4 2 9 2t9 2h2h4h2q4 -2 9.5 -2t9.5 -2h2v-2 q8 -2 12 -4.5t8 -6.5h2v-2h2v-2h2v-2l2 -4q2 -4 5.5 -7t5.5 -7v-2v-2q2 -2 2 -11l286 -1415q2 -8 2 -15q0 -20 -12 -37q-16 -24 -43 -30h-12q-23 0 -42.5 15.5t-23.5 38.5l-55 266h-332l-53 -266q-4 -23 -23.5 -38.5t-44.5 -15.5h-12q-27 6 -42 30q-11 17 -11 36q0 8 2 16z M293 424h278l-141 692z" />
<glyph unicode="&#xe2;" horiz-adv-x="866" d="M82 53l285 1415q2 8 4 11v2v2q4 10 10 14v4h2v2h2v2h2v2h2q4 4 8 6.5t11 4.5v2h2q4 2 9 2t9 2h2h4h2q4 -2 9.5 -2t9.5 -2h2v-2q8 -2 12 -4.5t8 -6.5h2v-2h2v-2h2v-2l2 -4q2 -4 5.5 -7t5.5 -7v-2v-2q2 -2 2 -11l286 -1415q2 -8 2 -15q0 -20 -12 -37q-16 -24 -43 -30h-12 q-23 0 -42.5 15.5t-23.5 38.5l-55 266h-332l-53 -266q-4 -23 -23.5 -38.5t-44.5 -15.5h-12q-27 6 -42 30q-11 17 -11 36q0 8 2 16zM293 424h278l-141 692z" />
<glyph unicode="&#xe3;" horiz-adv-x="866" d="M133 1774.5q2 17.5 20 35.5q16 16 34 20.5t32 0.5q16 -4 33 -15q2 -4 10 -8q4 -4 12 -7t19 -5q49 -12 106 27q72 49 130.5 53t96.5 -8q43 -12 67 -31t28 -25q8 -12 10 -26q2 -12 -1 -28.5t-20 -33.5q-16 -18 -31.5 -22t-29.5 0q-16 4 -33 12h2q-4 2 -10 6t-27 12 q-47 10 -100 -26q-47 -33 -88 -44.5t-76 -11.5q-20 0 -36.5 2.5t-30.5 6.5q-43 12 -68 30.5t-29 22.5q-12 14 -18 31q-4 14 -2 31.5zM82 53l285 1415q2 8 4 11v2v2q4 10 10 14v4h2v2h2v2h2v2h2q4 4 8 6.5t11 4.5v2h2q4 2 9 2t9 2h2h4h2q4 -2 9.5 -2t9.5 -2h2v-2 q8 -2 12 -4.5t8 -6.5h2v-2h2v-2h2v-2l2 -4q2 -4 5.5 -7t5.5 -7v-2v-2q2 -2 2 -11l286 -1415q2 -8 2 -15q0 -20 -12 -37q-16 -24 -43 -30h-12q-23 0 -42.5 15.5t-23.5 38.5l-55 266h-332l-53 -266q-4 -23 -23.5 -38.5t-44.5 -15.5h-12q-27 6 -42 30q-11 17 -11 36q0 8 2 16z M293 424h278l-141 692z" />
<glyph unicode="&#xe5;" horiz-adv-x="866" d="M82 53l285 1415q2 8 4 11v2v2q4 10 10 14v4h2v2h2v2h2v2h2q4 4 8 6.5t11 4.5v2h2q4 2 9 2t9 2h2h4h2q4 -2 9.5 -2t9.5 -2h2v-2q8 -2 12 -4.5t8 -6.5h2v-2h2v-2h2v-2l2 -4q2 -4 5.5 -7t5.5 -7v-2v-2q2 -2 2 -11l286 -1415q2 -8 2 -15q0 -20 -12 -37q-16 -24 -43 -30h-12 q-23 0 -42.5 15.5t-23.5 38.5l-55 266h-332l-53 -266q-4 -23 -23.5 -38.5t-44.5 -15.5h-12q-27 6 -42 30q-11 17 -11 36q0 8 2 16zM293 424h278l-141 692z" />
<glyph unicode="&#xe8;" horiz-adv-x="974" d="M321 1928.5q8 27.5 35 43.5q27 14 55.5 6t42.5 -34l103 -187q16 -25 7 -53.5t-34 -42.5q-29 -16 -56.5 -7t-41.5 34l-103 186q-16 27 -8 54.5zM158 61v1381q0 29 21.5 50t51.5 21h543q31 0 52.5 -21.5t21.5 -49.5q0 -31 -21.5 -52.5t-52.5 -21.5h-471v-629h354 q31 0 51.5 -21.5t20.5 -51.5q0 -29 -20.5 -50.5t-51.5 -21.5h-354v-459h471q31 0 52.5 -21.5t21.5 -52.5q0 -29 -21.5 -50t-52.5 -21h-543q-31 0 -52 21t-21 50z" />
<glyph unicode="&#xea;" horiz-adv-x="974" d="M158 61v1381q0 29 21.5 50t51.5 21h543q31 0 52.5 -21.5t21.5 -49.5q0 -31 -21.5 -52.5t-52.5 -21.5h-471v-629h354q31 0 51.5 -21.5t20.5 -51.5q0 -29 -20.5 -50.5t-51.5 -21.5h-354v-459h471q31 0 52.5 -21.5t21.5 -52.5q0 -29 -21.5 -50t-52.5 -21h-543q-31 0 -52 21 t-21 50z" />
<glyph unicode="&#xec;" d="M-180 1928.5q8 27.5 35 43.5q27 14 55.5 6t42.5 -34l103 -187q16 -25 7 -53.5t-34 -42.5q-29 -16 -56.5 -7t-41.5 34l-103 186q-16 27 -8 54.5z" />
<glyph unicode="&#xf1;" horiz-adv-x="1038" d="M229 1774.5q2 17.5 20 35.5q16 16 34 20.5t32 0.5q16 -4 33 -15q2 -4 10 -8q4 -4 12 -7t19 -5q49 -12 106 27q72 49 130.5 53t96.5 -8q43 -12 67 -31t28 -25q8 -12 10 -26q2 -12 -1 -28.5t-20 -33.5q-16 -18 -31.5 -22t-29.5 0q-16 4 -33 12h2q-4 2 -10 6t-27 12 q-47 10 -100 -26q-47 -33 -88 -44.5t-76 -11.5q-20 0 -36.5 2.5t-30.5 6.5q-43 12 -68 30.5t-29 22.5q-12 14 -18 31q-4 14 -2 31.5zM158 68v1378v4v2v2v2v2v2h2v4v2v2l2 2v5q2 0 2 2t1 2t1 2v2h2v2q0 2 2 2v2l2 2l2 2q0 2 2 2q0 2 1 2t1 2q2 0 2 2h2l2 2l2 2q2 0 2 2h2l3 2 h2l2 2h2q4 4 8 4.5t8 2.5h2q4 2 16 2h5h2q2 0 2 -2h2h2h4q2 -2 4 -2l2 -3h4l2 -2q2 0 4 -2h2q0 -2 2 -2l2 -2h2v-2h2q0 -2 3 -2q0 -2 2 -2q2 -2 2 -4q2 0 2 -2h2v-2h2v-2q0 -2 2 -2v-2l2 -2q0 -2 1 -2t1 -2l2 -4l459 -1059v1032q0 29 20.5 50.5t50.5 21.5q29 0 50.5 -21.5 t21.5 -50.5v-1378v-7v-2v-2v-2v-2l-2 -2v-2v-4l-2 -2v-4q-2 0 -2 -2v-2l-2 -2v-2q-2 0 -2 -2v-2h-2v-2l-2 -2q0 -2 -2 -2q0 -2 -1 -2.5t-1 -2.5l-2 -2q-2 0 -2 -2h-3l-2 -2q0 -2 -2 -2l-2 -2h-2q0 -2 -2 -2h-2v-2h-2l-2 -2q-8 -4 -16 -4q-4 -2 -15 -2h-2h-2h-2h-4q-4 0 -6 2 h-4q-4 2 -5 2t-5 2q-2 2 -4 2t-5 2l-2 2l-2 2h-2q0 2 -2 2l-2 2l-2 2l-2 2l-2 2q-2 2 -2 5q-2 0 -2 2l-2 2q-2 2 -2 6q-2 2 -2 3t-2 3l-459 1057v-1030q0 -29 -20.5 -50.5t-51.5 -21.5q-29 0 -50 21.5t-21 50.5z" />
<glyph unicode="&#xf2;" horiz-adv-x="927" d="M285 1928.5q8 27.5 35 43.5q27 14 55.5 6t42.5 -34l103 -187q16 -25 7 -53.5t-34 -42.5q-29 -16 -56.5 -7t-41.5 34l-103 186q-16 27 -8 54.5zM129 321.5q0 26.5 2 36.5v801q0 94 29.5 164t77 116t106.5 67.5t121 21.5q37 0 100.5 -14.5t124.5 -67.5q20 -18 41 -43 t37 -60.5t27.5 -80.5t11.5 -103v-815v-34q0 -26 -6 -60q-20 -113 -88 -187q-92 -98 -248 -98t-244 98q-68 74 -86 195q-6 37 -6 63.5zM274 328q0 -20 4.5 -49t15.5 -62t36 -57q45 -49 135 -49q92 0 141 51q23 25 35 54.5t17.5 56t5.5 44.5v21v4v817q0 78 -25 122t-57.5 66.5 t-66.5 28.5t-50 6q-76 0 -127 -47q-63 -59 -64 -176v-803v-6v-22z" />
<glyph unicode="&#xf4;" horiz-adv-x="927" d="M129 321.5q0 26.5 2 36.5v801q0 94 29.5 164t77 116t106.5 67.5t121 21.5q37 0 100.5 -14.5t124.5 -67.5q20 -18 41 -43t37 -60.5t27.5 -80.5t11.5 -103v-815v-34q0 -26 -6 -60q-20 -113 -88 -187q-92 -98 -248 -98t-244 98q-68 74 -86 195q-6 37 -6 63.5zM274 328 q0 -20 4.5 -49t15.5 -62t36 -57q45 -49 135 -49q92 0 141 51q23 25 35 54.5t17.5 56t5.5 44.5v21v4v817q0 78 -25 122t-57.5 66.5t-66.5 28.5t-50 6q-76 0 -127 -47q-63 -59 -64 -176v-803v-6v-22z" />
<glyph unicode="&#xf5;" horiz-adv-x="927" d="M166 1774.5q2 17.5 20 35.5q16 16 34 20.5t32 0.5q16 -4 33 -15q2 -4 10 -8q4 -4 12 -7t19 -5q49 -12 106 27q72 49 130.5 53t96.5 -8q43 -12 67 -31t28 -25q8 -12 10 -26q2 -12 -1 -28.5t-20 -33.5q-16 -18 -31.5 -22t-29.5 0q-16 4 -33 12h2q-4 2 -10 6t-27 12 q-47 10 -100 -26q-47 -33 -88 -44.5t-76 -11.5q-20 0 -36.5 2.5t-30.5 6.5q-43 12 -68 30.5t-29 22.5q-12 14 -18 31q-4 14 -2 31.5zM129 321.5q0 26.5 2 36.5v801q0 94 29.5 164t77 116t106.5 67.5t121 21.5q37 0 100.5 -14.5t124.5 -67.5q20 -18 41 -43t37 -60.5 t27.5 -80.5t11.5 -103v-815v-34q0 -26 -6 -60q-20 -113 -88 -187q-92 -98 -248 -98t-244 98q-68 74 -86 195q-6 37 -6 63.5zM274 328q0 -20 4.5 -49t15.5 -62t36 -57q45 -49 135 -49q92 0 141 51q23 25 35 54.5t17.5 56t5.5 44.5v21v4v817q0 78 -25 122t-57.5 66.5 t-66.5 28.5t-50 6q-76 0 -127 -47q-63 -59 -64 -176v-803v-6v-22z" />
<glyph unicode="&#xf9;" horiz-adv-x="1001" d="M315 1928.5q8 27.5 35 43.5q27 14 55.5 6t42.5 -34l103 -187q16 -25 7 -53.5t-34 -42.5q-29 -16 -56.5 -7t-41.5 34l-103 186q-16 27 -8 54.5zM158 326v36v1080q0 29 21.5 50t49.5 21q31 0 52.5 -21.5t21.5 -49.5v-1082v-6q0 -2 -1 -22.5t4 -49t16.5 -61.5t33.5 -57 q45 -49 136 -49q94 0 143 51q23 25 35 54.5t16 58.5q6 31 4 63v6v1092q0 31 21.5 52t52.5 21q29 0 50.5 -21.5t21.5 -51.5v-1092q0 -8 -1 -33.5t-8 -60.5q-18 -113 -88 -186q-90 -98 -247 -99q-154 0 -242 99q-70 78 -86 194q-6 37 -6 64z" />
<glyph unicode="&#xfb;" horiz-adv-x="1001" d="M158 326v36v1080q0 29 21.5 50t49.5 21q31 0 52.5 -21.5t21.5 -49.5v-1082v-6q0 -2 -1 -22.5t4 -49t16.5 -61.5t33.5 -57q45 -49 136 -49q94 0 143 51q23 25 35 54.5t16 58.5q6 31 4 63v6v1092q0 31 21.5 52t52.5 21q29 0 50.5 -21.5t21.5 -51.5v-1092q0 -8 -1 -33.5 t-8 -60.5q-18 -113 -88 -186q-90 -98 -247 -99q-154 0 -242 99q-70 78 -86 194q-6 37 -6 64z" />
<glyph unicode="&#x131;" />
<glyph unicode="&#x152;" horiz-adv-x="1497" />
<glyph unicode="&#x153;" horiz-adv-x="1902" d="M1086 61v1381q0 29 21.5 50t51.5 21h543q31 0 52.5 -21.5t21.5 -49.5q0 -31 -21.5 -52.5t-52.5 -21.5h-471v-629h354q31 0 51.5 -21.5t20.5 -51.5q0 -29 -20.5 -50.5t-51.5 -21.5h-354v-459h471q31 0 52.5 -21.5t21.5 -52.5q0 -29 -21.5 -50t-52.5 -21h-543q-31 0 -52 21 t-21 50zM129 321.5q0 26.5 2 36.5v801q0 94 29.5 164t77 116t106.5 67.5t121 21.5q37 0 100.5 -14.5t124.5 -67.5q20 -18 41 -43t37 -60.5t27.5 -80.5t11.5 -103v-815v-34q0 -26 -6 -60q-20 -113 -88 -187q-92 -98 -248 -98t-244 98q-68 74 -86 195q-6 37 -6 63.5zM274 328 q0 -20 4.5 -49t15.5 -62t36 -57q45 -49 135 -49q92 0 141 51q23 25 35 54.5t17.5 56t5.5 44.5v21v4v817q0 78 -25 122t-57.5 66.5t-66.5 28.5t-50 6q-76 0 -127 -47q-63 -59 -64 -176v-803v-6v-22z" />
<glyph unicode="&#x2c6;" />
<glyph unicode="&#x2da;" />
<glyph unicode="&#x2dc;" horiz-adv-x="765" d="M82 1211.5q2 17.5 20 35.5q16 16 34 20.5t32 0.5q16 -4 33 -15q2 -4 10 -8q4 -4 12 -7t19 -5q49 -12 106 27q72 49 130.5 53t96.5 -8q43 -12 67 -31t28 -25q8 -12 10 -26q2 -12 -1 -28.5t-20 -33.5q-16 -18 -31.5 -22t-29.5 0q-16 4 -33 12h2q-4 2 -10 6t-27 12 q-47 10 -100 -26q-47 -33 -88 -44.5t-76 -11.5q-20 0 -36.5 2.5t-30.5 6.5q-43 12 -68 30.5t-29 22.5q-12 14 -18 31q-4 14 -2 31.5z" />
<glyph unicode="&#x2013;" />
<glyph unicode="&#x2014;" />
<glyph unicode="&#x2018;" d="M673 1602.5q7 29.5 32 46.5q25 16 53 8t45 -31l110 -180q16 -25 11.5 -53.5t-31.5 -44.5q-25 -14 -54.5 -7t-43.5 31l-113 176q-16 25 -9 54.5z" />
<glyph unicode="&#x2019;" horiz-adv-x="485" d="M150.5 1384.5q-9.5 28.5 5.5 53.5l96 186q14 27 43 36t55 -5q27 -14 35 -43t-6 -53l-98 -187q-14 -27 -41 -36t-56 5q-24 15 -33.5 43.5z" />
<glyph unicode="&#x201a;" />
<glyph unicode="&#x201c;" d="M594 1613.5q8 28.5 35 43.5q27 14 55.5 5t42.5 -36l98 -188q14 -25 5 -53.5t-33 -43.5q-29 -14 -56.5 -4.5t-42.5 35.5l-98 189q-14 24 -6 52.5zM835.5 1613.5q8.5 28.5 34.5 43.5q27 14 55.5 5t43.5 -36l98 -188q14 -25 5 -53.5t-34 -43.5q-29 -14 -56.5 -4.5 t-41.5 35.5l-98 189q-15 24 -6.5 52.5z" />
<glyph unicode="&#x201d;" d="M613.5 1384.5q-9.5 28.5 4.5 55.5l101 190q14 27 43 36t55 -5q29 -14 37 -43t-6 -55l-100 -191q-14 -27 -43 -36t-58 5q-24 15 -33.5 43.5zM859 1384.5q-9 28.5 5 55.5l99 190q14 27 43.5 36t56.5 -5t35 -43t-6 -55l-101 -191q-14 -27 -41.5 -36t-56.5 5q-25 15 -34 43.5 z" />
<glyph unicode="&#x201e;" />
<glyph unicode="&#x2022;" />
<glyph unicode="&#x2026;" />
<glyph unicode="&#x2039;" />
<glyph unicode="&#x203a;" horiz-adv-x="815" d="M104 1042.5q0 28.5 21 51.5q23 20 51.5 20t50.5 -20l486 -488q20 -18 20 -49q0 -33 -20 -51l-482 -479q-20 -20 -51 -21q-31 0 -51 21q-20 23 -20 51t22 51l430 428l-436 434q-21 23 -21 51.5z" />
<glyph unicode="&#x2044;" horiz-adv-x="1024" />
<glyph unicode="&#x20ac;" />
<glyph unicode="&#x2122;" horiz-adv-x="944" d="M61 1360q0 33 33 33h287q33 0 33 -33t-33 -33h-111v-418q0 -14 -9 -23t-21 -9q-33 0 -33 32v418h-113q-33 0 -33 33zM467 907v451v2v2v2v2q2 2 2 8h2v2q2 0 2 2l4 4q0 2 2 2h2v2h2h2v3h2l2 2h3h2h2h2h2h2h2h2l4 -2h2l2 -3h2v-2h2l4 -4h2v-2v-2h2v-2h2l138 -272l137 272h2 v2l2 2v2q2 2 3 2t3 2h2v2h2v3q4 0 6 2h2h2h2h2h3h2h2h2h2v-2h2h2v-3h2h2v-2h2v-2h2l4 -4v-2h2v-2q2 -2 2 -8h2v-2v-2v-2v-2v-451q0 -33 -33 -33q-12 0 -21 9.5t-9 23.5v318l-105 -205q-4 -4 -7 -9t-9 -10q-4 -2 -14 -2t-15 2q-12 6 -16 19l-105 205v-318q0 -14 -9 -23.5 t-21 -9.5q-33 0 -33 33z" />
<glyph unicode="&#xe000;" horiz-adv-x="1500" d="M0 1500h1500v-1500h-1500v1500z" />
<glyph unicode="&#xfb01;" horiz-adv-x="1454" d="M1077 61v1381q0 29 20.5 50t51.5 21q29 0 50 -21.5t21 -49.5v-1381q0 -29 -21.5 -50t-49.5 -21q-31 0 -51.5 21t-20.5 50zM180 61v1381q0 29 21.5 50t52.5 21h491q31 0 52.5 -21.5t21.5 -49.5q0 -31 -21.5 -52.5t-52.5 -21.5h-419v-629h303q31 0 51 -21.5t20 -51.5 q0 -29 -20.5 -50.5t-50.5 -21.5h-303v-533q0 -29 -21.5 -50t-50.5 -21q-31 0 -52.5 21t-21.5 50z" />
<glyph unicode="&#xfb02;" horiz-adv-x="1726" d="M979 61v1381q0 29 21.5 50t49.5 21q31 0 51.5 -21.5t20.5 -49.5v-1307h473q29 0 50.5 -21.5t21.5 -52.5q0 -29 -21.5 -50t-50.5 -21h-545q-29 0 -50 21t-21 50zM180 61v1381q0 29 21.5 50t52.5 21h491q31 0 52.5 -21.5t21.5 -49.5q0 -31 -21.5 -52.5t-52.5 -21.5h-419 v-629h303q31 0 51 -21.5t20 -51.5q0 -29 -20.5 -50.5t-50.5 -21.5h-303v-533q0 -29 -21.5 -50t-50.5 -21q-31 0 -52.5 21t-21.5 50z" />
<glyph unicode="&#xfb03;" horiz-adv-x="2324" d="M1948 61v1381q0 29 20.5 50t51.5 21q29 0 50 -21.5t21 -49.5v-1381q0 -29 -21.5 -50t-49.5 -21q-31 0 -51.5 21t-20.5 50zM1050 61v1381q0 29 21.5 50t52.5 21h491q31 0 52.5 -21.5t21.5 -49.5q0 -31 -21.5 -52.5t-52.5 -21.5h-419v-629h303q31 0 51 -21.5t20 -51.5 q0 -29 -20.5 -50.5t-50.5 -21.5h-303v-533q0 -29 -21.5 -50t-50.5 -21q-31 0 -52.5 21t-21.5 50zM180 61v1381q0 29 21.5 50t52.5 21h491q31 0 52.5 -21.5t21.5 -49.5q0 -31 -21.5 -52.5t-52.5 -21.5h-419v-629h303q31 0 51 -21.5t20 -51.5q0 -29 -20.5 -50.5t-50.5 -21.5 h-303v-533q0 -29 -21.5 -50t-50.5 -21q-31 0 -52.5 21t-21.5 50z" />
<glyph unicode="&#xfb04;" horiz-adv-x="2596" d="M1850 61v1381q0 29 21.5 50t49.5 21q31 0 51.5 -21.5t20.5 -49.5v-1307h473q29 0 50.5 -21.5t21.5 -52.5q0 -29 -21.5 -50t-50.5 -21h-545q-29 0 -50 21t-21 50zM1050 61v1381q0 29 21.5 50t52.5 21h491q31 0 52.5 -21.5t21.5 -49.5q0 -31 -21.5 -52.5t-52.5 -21.5h-419 v-629h303q31 0 51 -21.5t20 -51.5q0 -29 -20.5 -50.5t-50.5 -21.5h-303v-533q0 -29 -21.5 -50t-50.5 -21q-31 0 -52.5 21t-21.5 50zM180 61v1381q0 29 21.5 50t52.5 21h491q31 0 52.5 -21.5t21.5 -49.5q0 -31 -21.5 -52.5t-52.5 -21.5h-419v-629h303q31 0 51 -21.5t20 -51.5 q0 -29 -20.5 -50.5t-50.5 -21.5h-303v-533q0 -29 -21.5 -50t-50.5 -21q-31 0 -52.5 21t-21.5 50z" />
</font>
</defs>
</svg>
