<?xml version="1.0" encoding="UTF-8" standalone="no"?>

<svg xmlns="http://www.w3.org/2000/svg" width="2048" height="2048" viewBox="-256 -384 2048 2048">
  <rect x="-256" y="-384" width="2048" height="2048" fill="#D7E4DE" />
  <circle cx="767" cy="640" r="767" fill="#BBB1A7" />
  <path d="M 763,1046 413,573 q -16,-22 -24.5,-59 -8.5,-37 6,-85 14.5,-48 61.5,-79 40,-26 83,-25.5 43,0.5 73.5,17.5 30.5,17 54.5,45 36,40 96,40 59,0 95,-40 24,-28 54.5,-45 30.5,-17 73.5,-17.5 43,-0.5 84,25.5 46,31 60.5,79 14.5,48 6,85 -8.5,37 -24.5,59 z" fill="#FFFFFF" />
</svg>
