<?xml version="1.0" encoding="UTF-8" standalone="no"?>
<!-- Created with Inkscape (http://www.inkscape.org/) -->

<svg
   xmlns:dc="http://purl.org/dc/elements/1.1/"
   xmlns:cc="http://creativecommons.org/ns#"
   xmlns:rdf="http://www.w3.org/1999/02/22-rdf-syntax-ns#"
   xmlns:svg="http://www.w3.org/2000/svg"
   xmlns="http://www.w3.org/2000/svg"
   xmlns:sodipodi="http://sodipodi.sourceforge.net/DTD/sodipodi-0.dtd"
   xmlns:inkscape="http://www.inkscape.org/namespaces/inkscape"
   version="1.1"
   width="40"
   height="40"
   id="svg2"
   xml:space="preserve"
   inkscape:version="0.48.2 r9819"
   sodipodi:docname="heart-coin.svg"><sodipodi:namedview
     pagecolor="#ffffff"
     bordercolor="#666666"
     borderopacity="1"
     objecttolerance="10"
     gridtolerance="10"
     guidetolerance="10"
     inkscape:pageopacity="0"
     inkscape:pageshadow="2"
     inkscape:window-width="1443"
     inkscape:window-height="752"
     id="namedview3113"
     showgrid="false"
     inkscape:zoom="13.75"
     inkscape:cx="-4.2063754"
     inkscape:cy="17.119696"
     inkscape:window-x="0"
     inkscape:window-y="0"
     inkscape:window-maximized="0"
     inkscape:current-layer="layer1" /><metadata
     id="metadata8"><rdf:RDF><cc:Work
         rdf:about=""><dc:format>image/svg+xml</dc:format><dc:type
           rdf:resource="http://purl.org/dc/dcmitype/StillImage" /><dc:title></dc:title></cc:Work></rdf:RDF></metadata><defs
     id="defs6" /><g
     inkscape:groupmode="layer"
     id="layer1"
     inkscape:label="heart-coin"
     transform="matrix(1.25,0,0,-1.25,27.6245,12.933375)"><g
       id="logo-group"><path
         transform="translate(8.9004,-5.6533)"
         d="m 0,0 c 0,-8.285 -6.715,-15 -15,-15 -8.284,0 -15,6.715 -15,15 0,8.284 6.716,15 15,15 C -6.715,15 0,8.284 0,0"
         inkscape:connector-curvature="0"
         id="circle"
         style="fill:#663300;fill-opacity:1;fill-rule:nonzero;stroke:none" /><path
         d="M 0,0 C -1.688,1.113 -3.292,0.27 -4.132,-0.707 -4.445,-1.071 -4.982,-1.5 -5.996,-1.5 c -1.014,0 -1.551,0.429 -1.864,0.793 -0.841,0.977 -2.445,1.82 -4.132,0.707 -1.983,-1.307 -1.406,-3.67 -0.828,-4.35 l 6.824,-9.239 6.824,9.239 C 1.405,-3.67 1.982,-1.307 0,0"
         inkscape:connector-curvature="0"
         id="heart"
         style="fill:#ffffff;fill-opacity:1;fill-rule:nonzero;stroke:none" /></g></g></svg>