<?xml version="1.0" encoding="utf-8"?>
<!-- Generator: Adobe Illustrator 17.0.0, SVG Export Plug-In . SVG Version: 6.00 Build 0)  -->
<!DOCTYPE svg PUBLIC "-//W3C//DTD SVG 1.0//EN" "http://www.w3.org/TR/2001/REC-SVG-20010904/DTD/svg10.dtd">
<svg version="1.0" id="Layer_1" xmlns="http://www.w3.org/2000/svg" xmlns:xlink="http://www.w3.org/1999/xlink" x="0px" y="0px"
	 width="32px" height="32px" viewBox="0 0 32 32" enable-background="new 0 0 32 32" xml:space="preserve">
<path id="Heart_Coin" d="M31,16c0,8.285-6.715,15-15,15C7.716,31,1,24.284,1,16C1,7.715,7.716,1,16,1C24.285,1,31,7.715,31,16z
	 M22.1,10.346c-1.688-1.113-3.292-0.27-4.132,0.707c-0.313,0.364-0.851,0.793-1.864,0.793s-1.551-0.429-1.864-0.793
	c-0.841-0.977-2.444-1.819-4.132-0.707c-1.982,1.307-1.406,3.67-0.828,4.35l6.824,9.24l0,0l0,0l0,0l0,0l6.824-9.24
	C23.505,14.017,24.082,11.653,22.1,10.346z"/>
</svg>
