<?xml version="1.0"?>
<svg width="502" height="160" xmlns="http://www.w3.org/2000/svg">
 <metadata id="metadata8">image/svg+xml</metadata>
 <defs>
  <clipPath id="clipPath16">
   <path id="path18" d="m-1.494816,41.51609l106.999989,0l0,-40l-106.999989,0l0,40z"/>
  </clipPath>
 </defs>
 <g>
  <title>background</title>
  <rect fill="none" id="canvas_background" height="162" width="504" y="-1" x="-1"/>
 </g>
 <g>
  <title>Layer 1</title>
  <g id="g10" transform="matrix(5.1303170628778725,0,0,-5.1303170628778725,-15.926124824344924,189.39569960596938) ">
   <g id="g12">
    <g id="g14" clip-path="url(#clipPath16)">
     <g id="g20">
      <path fill="#ffffff" fill-rule="nonzero" id="path22" d="m46.947586,15.524888c-3.133007,0 -5.577007,2.508 -5.577007,5.625003c0,3.084999 2.474003,5.622997 5.577007,5.622997c1.753994,0 3.131996,-0.704998 4.197994,-1.941998l-1.660999,-1.441002c-0.610996,0.719994 -1.534996,1.237999 -2.553997,1.237999c-1.863003,0 -3.304005,-1.521 -3.304005,-3.477997c0,-1.990005 1.504002,-3.494003 3.304005,-3.494003c0.798996,0 1.675995,0.235001 2.240997,0.799002l0,1.363997l-2.192997,0l0,1.894003l4.276997,0l0,-4.135002c-1.049999,-1.253 -2.429001,-2.052999 -4.307995,-2.052999"/>
     </g>
     <g id="g24">
      <path fill="#ffffff" fill-rule="nonzero" id="path26" d="m55.330379,15.667488l0,1.848001l1.362,0l0,7.253l-1.362,0l0,1.862999l4.964996,0l0,-1.862999l-1.361996,0l0,-7.253l1.361996,0l0,-1.848001l-4.964996,0z"/>
     </g>
     <g id="g28">
      <path fill="#ffffff" fill-rule="nonzero" id="path30" d="m65.930969,15.667488l0,8.897001l-2.099998,0l0,2.066999l6.455002,0l0,-2.066999l-2.099007,0l0,-8.897001l-2.256004,0l0.000008,0z"/>
     </g>
     <g id="g32">
      <path fill="#ffffff" fill-rule="nonzero" id="path34" d="m75.622375,15.667488l0,8.897001l-2.101013,0l0,2.066999l6.453987,0l0,-2.066999l-2.098,0l0,-8.897001l-2.254997,0l0.000023,0z"/>
     </g>
     <g id="g36">
      <path fill="#ffffff" fill-rule="nonzero" id="path38" d="m83.520775,15.667488l0,1.848001l1.361,0l0,7.253l-1.361,0l0,1.862999l4.965996,0l0,-1.862999l-1.363007,0l0,-7.253l1.363007,0l0,-1.848001l-4.965996,0z"/>
     </g>
     <g id="g40">
      <path fill="#ffffff" fill-rule="nonzero" id="path42" d="m98.358673,23.029289c0,1.001999 -0.641998,1.566002 -1.737999,1.566002l-1.426003,0l0,-3.117001l1.426003,0c1.081001,0 1.737999,0.548 1.737999,1.550999m-5.387001,-7.362l0,10.965001l3.994003,0c2.160995,0 3.538986,-1.395 3.538986,-3.603003c0,-2.208 -1.377998,-3.587 -3.538986,-3.587l-1.771004,0l0,-3.775002l-2.223,0l0,0.000001l0,0.000001l0,0.000001l0,0.000001z"/>
     </g>
     <g id="g44">
      <path fill="#ffffff" fill-rule="evenodd" id="path46" d="m33.504684,21.51659c0,-8.285002 -6.713999,-15.000002 -14.999998,-15.000002c-8.284003,0 -15.000002,6.715001 -15.000002,15.000002c0,8.284 6.716001,15 15.000002,15c8.285999,0 14.999998,-6.716 14.999998,-15zm-8.899899,5.653301c-1.688,1.112999 -3.292,0.269997 -4.132,-0.707001c-0.313,-0.364002 -0.850002,-0.792999 -1.865002,-0.792999c-1.013,0 -1.549999,0.428997 -1.863998,0.792999c-0.84,0.976994 -2.444,1.82 -4.132,0.707001c-1.982002,-1.307003 -1.405003,-3.670002 -0.828003,-4.350002l6.824001,-9.239002l6.825001,9.239002c0.577,0.68 1.153999,3.043003 -0.827999,4.350002z"/>
     </g>
    </g>
   </g>
  </g>
 </g>
</svg>