<?xml version="1.0" standalone="no"?>
<!DOCTYPE svg PUBLIC "-//W3C//DTD SVG 1.1//EN" "http://www.w3.org/Graphics/SVG/1.1/DTD/svg11.dtd">
<svg width="160px" height="160px" version="1.1" xmlns="http://www.w3.org/2000/svg" xmlns:xlink="http://www.w3.org/1999/xlink" xml:space="preserve" style="fill-rule:evenodd;clip-rule:evenodd;stroke-linejoin:round;stroke-miterlimit:1.41421;">
    <g>
        <g id="7">
            <g id="Heart_Coin">
                <path d="M16.8382,43.54C18.5392,42.8354 20.4889,43.643 21.1935,45.344C21.8979,47.0447 21.0902,48.9947 19.3895,49.6992C17.6885,50.4038 15.7387,49.596 15.0343,47.8952C14.3297,46.1942 15.1373,44.2446 16.8382,43.54ZM16.4343,45.848C16.3494,46.2893 16.6588,46.5469 16.9308,46.6363C17.0322,46.6696 17.166,46.7435 17.2522,46.9515C17.3383,47.1595 17.296,47.3064 17.2479,47.4016C17.1188,47.6574 17.0823,48.0581 17.4541,48.3101C17.891,48.6059 18.3272,48.2866 18.4176,48.1102L19.7343,45.9234L17.257,45.3081C17.0685,45.2474 16.5341,45.33 16.4343,45.848Z" style="fill:white;fill-opacity:0.5;fill-rule:nonzero;"/>
            </g>
            <g id="Heart_Coin1">
                <path d="M59.4243,33.1162C57.7233,33.8208 55.7736,33.0132 55.069,31.3123C54.3646,29.6115 55.1723,27.6615 56.873,26.9571C58.574,26.2525 60.5238,27.0603 61.2282,28.761C61.9328,30.462 61.1252,32.4117 59.4243,33.1162ZM59.8282,30.8082C59.9131,30.367 59.6037,30.1094 59.3317,30.02C59.2303,29.9867 59.0965,29.9127 59.0103,29.7047C58.9242,29.4968 58.9665,29.3498 59.0146,29.2546C59.1437,28.9989 59.1802,28.5982 58.8084,28.3462C58.3715,28.0504 57.9353,28.3696 57.8449,28.5461L56.5282,30.7329L59.0055,31.3481C59.194,31.4088 59.7284,31.3263 59.8282,30.8082Z" style="fill:white;fill-opacity:0.5;fill-rule:nonzero;"/>
            </g>
            <g id="Heart_Coin2">
                <path d="M32.9194,17.0351C33.6239,18.7361 32.8164,20.6858 31.1154,21.3903C29.4146,22.0948 27.4647,21.2871 26.7602,19.5863C26.0556,17.8854 26.8634,15.9356 28.5642,15.2311C30.2651,14.5266 32.2148,15.3342 32.9194,17.0351ZM30.6113,16.6312C30.1701,16.5462 29.9125,16.8557 29.8231,17.1277C29.7898,17.2291 29.7158,17.3629 29.5079,17.449C29.2999,17.5352 29.153,17.4929 29.0577,17.4448C28.802,17.3157 28.4013,17.2791 28.1493,17.651C27.8535,18.0879 28.1727,18.524 28.3492,18.6145L30.536,19.9312L31.1512,17.4539C31.212,17.2654 31.1294,16.731 30.6113,16.6312Z" style="fill:white;fill-opacity:0.5;fill-rule:nonzero;"/>
            </g>
            <g id="Heart_Coin3">
                <path d="M20.4536,51.2917C21.7554,49.9899 23.8658,49.9899 25.1676,51.2917C26.4693,52.5935 26.4693,54.7041 25.1676,56.0058C23.8658,57.3077 21.7553,57.3075 20.4536,56.0058C19.1517,54.7039 19.1517,52.5936 20.4536,51.2917ZM20.9636,53.5787C21.054,54.0188 21.4385,54.1384 21.724,54.1169C21.8304,54.1089 21.9823,54.126 22.1415,54.2852C22.3007,54.4443 22.3178,54.5963 22.3098,54.7027C22.2884,54.9883 22.408,55.3725 22.848,55.4631C23.3648,55.5691 23.6456,55.1073 23.6616,54.9096L24.0413,52.3854L21.5171,52.765C21.3197,52.7811 20.8576,53.0619 20.9636,53.5787Z" style="fill:white;fill-opacity:0.5;fill-rule:nonzero;"/>
            </g>
            <g id="Heart_Coin4">
                <path d="M55.8089,25.3645C54.5071,26.6664 52.3967,26.6664 51.0949,25.3645C49.7932,24.0628 49.7932,21.9522 51.0949,20.6505C52.3967,19.3486 54.5072,19.3488 55.8089,20.6505C57.1108,21.9523 57.1108,24.0626 55.8089,25.3645ZM55.2989,23.0776C55.2085,22.6374 54.824,22.5178 54.5385,22.5394C54.4321,22.5474 54.2802,22.5303 54.121,22.3711C53.9618,22.2119 53.9447,22.06 53.9527,21.9536C53.9741,21.6679 53.8545,21.2837 53.4145,21.1932C52.8977,21.0871 52.6169,21.549 52.6009,21.7466L52.2212,24.2708L54.7454,23.8912C54.9428,23.8752 55.4049,23.5944 55.2989,23.0776Z" style="fill:white;fill-opacity:0.5;fill-rule:nonzero;"/>
            </g>
            <g id="Heart_Coin5">
                <path d="M25.1676,20.6505C26.4695,21.9523 26.4695,24.0626 25.1676,25.3645C23.8659,26.6662 21.7553,26.6662 20.4536,25.3645C19.1517,24.0626 19.1519,21.9522 20.4536,20.6505C21.7554,19.3486 23.8658,19.3486 25.1676,20.6505ZM22.8807,21.1605C22.4406,21.2509 22.321,21.6354 22.3425,21.9209C22.3505,22.0273 22.3334,22.1792 22.1742,22.3384C22.015,22.4976 21.8631,22.5147 21.7567,22.5067C21.471,22.4853 21.0868,22.6049 20.9963,23.0449C20.8903,23.5617 21.3521,23.8425 21.5498,23.8585L24.074,24.2382L23.6943,21.7139C23.6783,21.5166 23.3975,21.0544 22.8807,21.1605Z" style="fill:white;fill-opacity:0.5;fill-rule:nonzero;"/>
            </g>
            <g id="Heart_Coin6">
                <path d="M50.0949,57.0058C48.793,55.7039 48.793,53.5936 50.0949,52.2917C51.3966,50.99 53.5072,50.99 54.8089,52.2917C56.1108,53.5936 56.1106,55.7041 54.8089,57.0058C53.5071,58.3077 51.3967,58.3077 50.0949,57.0058ZM52.3818,56.4957C52.8219,56.4054 52.9415,56.0209 52.92,55.7354C52.912,55.629 52.9291,55.477 53.0883,55.3179C53.2475,55.1587 53.3994,55.1415 53.5058,55.1496C53.7915,55.1709 54.1757,55.0514 54.2662,54.6114C54.3722,54.0946 53.9104,53.8138 53.7127,53.7977L51.1885,53.4181L51.5682,55.9423C51.5842,56.1397 51.865,56.6018 52.3818,56.4957Z" style="fill:white;fill-opacity:0.5;fill-rule:nonzero;"/>
            </g>
            <g id="Heart_Coin7">
                <path d="M49.5023,19.5863C48.7978,21.2873 46.8481,22.0949 45.1471,21.3903C43.4464,20.6859 42.6386,18.7359 43.3431,17.0351C44.0477,15.3342 45.9976,14.5267 47.6983,15.2311C49.3993,15.9357 50.2069,17.8854 49.5023,19.5863ZM48.1559,17.6687C47.904,17.2966 47.503,17.3333 47.2475,17.4624C47.1522,17.5106 47.0053,17.5529 46.7973,17.4667C46.5894,17.3806 46.5154,17.2468 46.4821,17.1454C46.3925,16.8733 46.135,16.5641 45.6939,16.6489C45.1758,16.7487 45.0931,17.2828 45.154,17.4715L45.7692,19.9489L47.956,18.6322C48.1322,18.5418 48.4517,18.1056 48.1559,17.6687Z" style="fill:white;fill-opacity:0.5;fill-rule:nonzero;"/>
            </g>
            <g id="Heart_Coin8">
                <path d="M19.3895,26.9571C21.0904,27.6616 21.898,29.6113 21.1935,31.3123C20.489,33.013 18.539,33.8207 16.8382,33.1162C15.1373,32.4117 14.3298,30.4618 15.0343,28.761C15.7388,27.0601 17.6885,26.2525 19.3895,26.9571ZM17.4718,28.3035C17.0998,28.5554 17.1364,28.9564 17.2656,29.2119C17.3137,29.3071 17.356,29.4541 17.2699,29.662C17.1837,29.87 17.0499,29.944 16.9485,29.9773C16.6764,30.0669 16.3672,30.3244 16.452,30.7655C16.5518,31.2836 17.0859,31.3663 17.2747,31.3054L19.752,30.6902L18.4353,28.5034C18.345,28.3272 17.9087,28.0077 17.4718,28.3035Z" style="fill:white;fill-opacity:0.5;fill-rule:nonzero;"/>
            </g>
            <g id="Heart_Coin9">
                <path d="M55.873,50.6992C54.1721,49.9946 53.3645,48.045 54.069,46.344C54.7735,44.6432 56.7235,43.8355 58.4243,44.54C60.1252,45.2446 60.9327,47.1945 60.2282,48.8952C59.5237,50.5962 57.574,51.4038 55.873,50.6992ZM57.7907,49.3528C58.1627,49.1009 58.1261,48.6999 57.9969,48.4443C57.9488,48.3491 57.9065,48.2022 57.9926,47.9942C58.0788,47.7862 58.2126,47.7123 58.314,47.679C58.5861,47.5894 58.8953,47.3319 58.8105,46.8908C58.7107,46.3727 58.1766,46.29 57.9878,46.3508L55.5105,46.9661L56.8272,49.1529C56.9175,49.3291 57.3538,49.6486 57.7907,49.3528Z" style="fill:white;fill-opacity:0.5;fill-rule:nonzero;"/>
            </g>
            <g id="Heart_Coin10">
                <path d="M16.4646,34.9948C18.3057,34.9948 19.7979,36.487 19.7979,38.3281C19.7979,40.169 18.3055,41.6615 16.4646,41.6615C14.6235,41.6615 13.1312,40.169 13.1312,38.3281C13.1312,36.487 14.6235,34.9948 16.4646,34.9948ZM15.2081,36.9726C14.9608,37.3477 15.1481,37.7041 15.3652,37.8908C15.4461,37.9603 15.5415,38.0799 15.5415,38.305C15.5415,38.5301 15.4461,38.6497 15.3652,38.7192C15.1481,38.9061 14.961,39.2623 15.2081,39.6375C15.4986,40.0779 16.0237,39.9499 16.1748,39.8215L18.2281,38.305L16.1748,36.7886C16.0239,36.6603 15.4986,36.5321 15.2081,36.9726Z" style="fill:white;fill-opacity:0.5;fill-rule:nonzero;"/>
            </g>
            <g id="Heart_Coin11">
                <path d="M59.7979,41.6615C57.9568,41.6615 56.4646,40.1692 56.4646,38.3281C56.4646,36.4872 57.957,34.9948 59.7979,34.9948C61.639,34.9948 63.1312,36.4872 63.1312,38.3281C63.1312,40.1692 61.639,41.6615 59.7979,41.6615ZM61.0544,39.6837C61.3017,39.3086 61.1144,38.9521 60.8972,38.7655C60.8164,38.6959 60.721,38.5763 60.721,38.3512C60.721,38.1261 60.8164,38.0066 60.8972,37.937C61.1144,37.7501 61.3015,37.3939 61.0544,37.0188C60.7639,36.5783 60.2388,36.7063 60.0877,36.8348L58.0344,38.3512L60.0877,39.8677C60.2386,39.9959 60.7639,40.1241 61.0544,39.6837Z" style="fill:white;fill-opacity:0.5;fill-rule:nonzero;"/>
            </g>
            <g id="Heart_Coin12">
                <path d="M41.4646,16.6615C41.4646,18.5026 39.9724,19.9948 38.1312,19.9948C36.2904,19.9948 34.7979,18.5023 34.7979,16.6615C34.7979,14.8203 36.2904,13.3281 38.1312,13.3281C39.9724,13.3281 41.4646,14.8203 41.4646,16.6615ZM39.4868,15.405C39.1117,15.1577 38.7552,15.345 38.5686,15.5621C38.499,15.643 38.3795,15.7383 38.1544,15.7383C37.9292,15.7383 37.8097,15.643 37.7401,15.5621C37.5532,15.345 37.197,15.1579 36.8219,15.405C36.3815,15.6955 36.5095,16.2206 36.6379,16.3717L38.1544,18.425L39.6708,16.3717C39.799,16.2208 39.9272,15.6955 39.4868,15.405Z" style="fill:white;fill-opacity:0.5;fill-rule:nonzero;"/>
            </g>
            <g id="Heart_Coin13">
                <path d="M34.7979,59.9948C34.7979,58.1537 36.2901,56.6615 38.1312,56.6615C39.9721,56.6615 41.4646,58.1539 41.4646,59.9948C41.4646,61.8359 39.9721,63.3281 38.1312,63.3281C36.2901,63.3281 34.7979,61.8359 34.7979,59.9948ZM36.7757,61.2512C37.1508,61.4986 37.5072,61.3112 37.6939,61.0941C37.7635,61.0132 37.883,60.9179 38.1081,60.9179C38.3332,60.9179 38.4528,61.0132 38.5224,61.0941C38.7092,61.3112 39.0655,61.4983 39.4406,61.2512C39.881,60.9608 39.753,60.4357 39.6246,60.2846L38.1081,58.2312L36.5917,60.2846C36.4635,60.4355 36.3352,60.9608 36.7757,61.2512Z" style="fill:white;fill-opacity:0.5;fill-rule:nonzero;"/>
            </g>
        </g>
        <g id="6">
            <clipPath id="tag1">
                <rect x="13.0953" y="56.1649" width="50" height="50.5726"/>
            </clipPath>
            <g clip-path="url(#tag1)">
                <g opacity="0.5">
                    <g id="Heart_Coin14">
                        <path d="M16.8023,86.9494C18.5033,86.2448 20.453,87.0524 21.1575,88.7534C21.862,90.4541 21.0543,92.4041 19.3535,93.1086C17.6526,93.8131 15.7028,93.0053 14.9983,91.3046C14.2938,89.6036 15.1013,87.6539 16.8023,86.9494ZM16.3984,89.2574C16.3134,89.6986 16.6229,89.9563 16.8949,90.0456C16.9963,90.0789 17.1301,90.1529 17.2162,90.3609C17.3024,90.5689 17.2601,90.7158 17.2119,90.811C17.0829,91.0668 17.0463,91.4675 17.4182,91.7195C17.8551,92.0152 18.2912,91.696 18.3817,91.5195L19.6984,89.3327L17.221,88.7175C17.0326,88.6568 16.4982,88.7394 16.3984,89.2574Z" style="fill:white;fill-rule:nonzero;"/>
                    </g>
                    <g id="Heart_Coin15">
                        <path d="M59.3883,76.5256C57.6873,77.2302 55.7377,76.4226 55.0331,74.7216C54.3286,73.0209 55.1363,71.0709 56.8371,70.3664C58.5381,69.6619 60.4878,70.4697 61.1923,72.1704C61.8969,73.8714 61.0893,75.8211 59.3883,76.5256ZM59.7923,74.2176C59.8772,73.7764 59.5677,73.5187 59.2957,73.4294C59.1944,73.3961 59.0605,73.3221 58.9744,73.1141C58.8882,72.9061 58.9306,72.7592 58.9787,72.664C59.1077,72.4082 59.1443,72.0075 58.7724,71.7555C58.3356,71.4598 57.8994,71.779 57.8089,71.9555L56.4922,74.1423L58.9696,74.7575C59.1581,74.8182 59.6925,74.7356 59.7923,74.2176Z" style="fill:white;fill-rule:nonzero;"/>
                    </g>
                    <g id="Heart_Coin16">
                        <path d="M32.8491,59.2445C33.5536,60.9455 32.746,62.8951 31.0451,63.5997C29.3443,64.3042 27.3943,63.4965 26.6899,61.7957C25.9853,60.0948 26.7931,58.145 28.4939,57.4405C30.1948,56.7359 32.1445,57.5435 32.8491,59.2445ZM30.541,58.8406C30.0998,58.7556 29.8422,59.0651 29.7528,59.3371C29.7195,59.4384 29.6455,59.5723 29.4376,59.6584C29.2296,59.7446 29.0826,59.7022 28.9874,59.6541C28.7317,59.5251 28.331,59.4885 28.079,59.8604C27.7832,60.2973 28.1024,60.7334 28.2789,60.8239L30.4657,62.1406L31.0809,59.6632C31.1417,59.4748 31.0591,58.9403 30.541,58.8406Z" style="fill:white;fill-rule:nonzero;"/>
                    </g>
                    <g id="Heart_Coin17">
                        <path d="M43.3072,103.031C42.6026,101.33 43.4102,99.3799 45.1112,98.6753C46.8119,97.9708 48.7619,98.7785 49.4664,100.479C50.1709,102.18 49.3632,104.13 47.6624,104.834C45.9614,105.539 44.0118,104.731 43.3072,103.031ZM45.6152,103.434C46.0564,103.519 46.3141,103.21 46.4034,102.938C46.4367,102.837 46.5107,102.703 46.7187,102.617C46.9267,102.53 47.0736,102.573 47.1688,102.621C47.4246,102.75 47.8253,102.786 48.0773,102.415C48.373,101.978 48.0538,101.542 47.8773,101.451L45.6906,100.134L45.0753,102.612C45.0146,102.8 45.0972,103.335 45.6152,103.434Z" style="fill:white;fill-rule:nonzero;"/>
                    </g>
                    <g id="Heart_Coin18">
                        <path d="M20.4176,94.7011C21.7195,93.3993 23.8298,93.3993 25.1317,94.7011C26.4334,96.0028 26.4334,98.1135 25.1317,99.4152C23.8298,100.717 21.7193,100.717 20.4176,99.4152C19.1158,98.1133 19.1158,96.003 20.4176,94.7011ZM20.9277,96.9881C21.0181,97.4282 21.4026,97.5478 21.6881,97.5263C21.7945,97.5182 21.9464,97.5354 22.1056,97.6945C22.2648,97.8537 22.2819,98.0057 22.2739,98.1121C22.2525,98.3977 22.3721,98.7819 22.8121,98.8724C23.3289,98.9785 23.6097,98.5167 23.6257,98.319L24.0053,95.7948L21.4811,96.1744C21.2838,96.1904 20.8216,96.4712 20.9277,96.9881Z" style="fill:white;fill-rule:nonzero;"/>
                    </g>
                    <g id="Heart_Coin19">
                        <path d="M55.773,68.7739C54.4711,70.0757 52.3608,70.0757 51.0589,68.7739C49.7572,67.4722 49.7572,65.3615 51.0589,64.0598C52.3608,62.758 54.4713,62.7581 55.773,64.0598C57.0748,65.3617 57.0748,67.472 55.773,68.7739ZM55.2629,66.4869C55.1726,66.0468 54.7881,65.9272 54.5025,65.9487C54.3962,65.9568 54.2442,65.9396 54.085,65.7805C53.9259,65.6213 53.9087,65.4693 53.9167,65.3629C53.9381,65.0773 53.8185,64.6931 53.3786,64.6026C52.8617,64.4965 52.5809,64.9583 52.5649,65.156L52.1853,67.6802L54.7095,67.3006C54.9069,67.2846 55.369,67.0038 55.2629,66.4869Z" style="fill:white;fill-rule:nonzero;"/>
                    </g>
                    <g id="Heart_Coin20">
                        <path d="M25.1317,64.0598C26.4336,65.3617 26.4336,67.472 25.1317,68.7739C23.83,70.0756 21.7193,70.0756 20.4176,68.7739C19.1158,67.472 19.1159,65.3615 20.4176,64.0598C21.7195,62.758 23.8298,62.758 25.1317,64.0598ZM22.8447,64.5699C22.4046,64.6602 22.285,65.0448 22.3066,65.3303C22.3146,65.4366 22.2974,65.5886 22.1383,65.7478C21.9791,65.907 21.8271,65.9241 21.7208,65.9161C21.4351,65.8947 21.0509,66.0143 20.9604,66.4543C20.8543,66.9711 21.3161,67.2519 21.5138,67.2679L24.038,67.6475L23.6584,65.1233C23.6424,64.926 23.3616,64.4638 22.8447,64.5699Z" style="fill:white;fill-rule:nonzero;"/>
                    </g>
                    <g id="Heart_Coin21">
                        <path d="M51.0589,99.4152C49.7571,98.1133 49.7571,96.003 51.0589,94.7011C52.3606,93.3994 54.4713,93.3994 55.773,94.7011C57.0748,96.003 57.0747,98.1135 55.773,99.4152C54.4711,100.717 52.3608,100.717 51.0589,99.4152ZM53.3459,98.9051C53.786,98.8148 53.9056,98.4302 53.8841,98.1447C53.8761,98.0384 53.8932,97.8864 54.0524,97.7272C54.2115,97.568 54.3635,97.5509 54.4699,97.5589C54.7555,97.5803 55.1397,97.4607 55.2302,97.0207C55.3363,96.5039 54.8745,96.2231 54.6768,96.2071L52.1526,95.8275L52.5322,98.3517C52.5483,98.549 52.8291,99.0112 53.3459,98.9051Z" style="fill:white;fill-rule:nonzero;"/>
                    </g>
                    <g id="Heart_Coin22">
                        <path d="M26.7242,100.479C27.4288,98.7783 29.3785,97.9707 31.0794,98.6753C32.7802,99.3798 33.5879,101.33 32.8834,103.031C32.1789,104.731 30.229,105.539 28.5282,104.834C26.8273,104.13 26.0197,102.18 26.7242,100.479ZM28.0706,102.397C28.3226,102.769 28.7236,102.732 28.9791,102.603C29.0743,102.555 29.2213,102.513 29.4292,102.599C29.6372,102.685 29.7112,102.819 29.7445,102.92C29.8341,103.192 30.0916,103.502 30.5327,103.417C31.0507,103.317 31.1334,102.783 31.0726,102.594L30.4574,100.117L28.2706,101.433C28.0944,101.524 27.7749,101.96 28.0706,102.397Z" style="fill:white;fill-rule:nonzero;"/>
                    </g>
                    <g id="Heart_Coin23">
                        <path d="M49.1273,61.9957C48.4228,63.6967 46.4731,64.5043 44.7721,63.7997C43.0714,63.0952 42.2636,61.1453 42.9681,59.4445C43.6727,57.7435 45.6226,56.936 47.3233,57.6405C49.0243,58.3451 49.8319,60.2948 49.1273,61.9957ZM47.7809,60.0781C47.529,59.706 47.128,59.7427 46.8725,59.8718C46.7772,59.9199 46.6303,59.9623 46.4223,59.8761C46.2144,59.79 46.1404,59.6561 46.1071,59.5548C46.0175,59.2827 45.76,58.9735 45.3189,59.0582C44.8008,59.158 44.7181,59.6922 44.779,59.8809L45.3942,62.3583L47.581,61.0416C47.7572,60.9512 48.0767,60.5149 47.7809,60.0781Z" style="fill:white;fill-rule:nonzero;"/>
                    </g>
                    <g id="Heart_Coin24">
                        <path d="M19.3535,70.3664C21.0545,71.071 21.8621,73.0207 21.1575,74.7216C20.453,76.4224 18.5031,77.2301 16.8023,76.5256C15.1013,75.8211 14.2938,73.8712 14.9983,72.1704C15.7029,70.4694 17.6526,69.6619 19.3535,70.3664ZM17.4359,71.7128C17.0638,71.9647 17.1005,72.3657 17.2296,72.6213C17.2777,72.7165 17.3201,72.8634 17.2339,73.0714C17.1478,73.2794 17.0139,73.3534 16.9126,73.3867C16.6405,73.4762 16.3313,73.7337 16.4161,74.1749C16.5158,74.6929 17.05,74.7756 17.2387,74.7148L19.7161,74.0996L18.3994,71.9128C18.309,71.7366 17.8728,71.4171 17.4359,71.7128Z" style="fill:white;fill-rule:nonzero;"/>
                    </g>
                    <g id="Heart_Coin25">
                        <path d="M56.8371,93.1086C55.1361,92.404 54.3285,90.4543 55.0331,88.7534C55.7376,87.0526 57.6876,86.2449 59.3883,86.9494C61.0893,87.6539 61.8968,89.6038 61.1923,91.3046C60.4877,93.0056 58.5381,93.8131 56.8371,93.1086ZM58.7548,91.7622C59.1268,91.5103 59.0901,91.1093 58.961,90.8537C58.9129,90.7585 58.8706,90.6116 58.9567,90.4036C59.0428,90.1956 59.1767,90.1216 59.278,90.0883C59.5501,89.9988 59.8593,89.7413 59.7746,89.3001C59.6748,88.7821 59.1407,88.6994 58.9519,88.7602L56.4745,89.3754L57.7913,91.5622C57.8816,91.7384 58.3179,92.0579 58.7548,91.7622Z" style="fill:white;fill-rule:nonzero;"/>
                    </g>
                    <g id="Heart_Coin26">
                        <path d="M16.4286,78.4042C18.2698,78.4042 19.762,79.8964 19.762,81.7375C19.762,83.5784 18.2695,85.0708 16.4286,85.0708C14.5875,85.0708 13.0953,83.5784 13.0953,81.7375C13.0953,79.8964 14.5875,78.4042 16.4286,78.4042ZM15.1722,80.3819C14.9249,80.7571 15.1122,81.1135 15.3293,81.3002C15.4102,81.3697 15.5055,81.4893 15.5055,81.7144C15.5055,81.9395 15.4102,82.0591 15.3293,82.1286C15.1122,82.3155 14.9251,82.6717 15.1722,83.0468C15.4626,83.4873 15.9878,83.3593 16.1389,83.2308L18.1922,81.7144L16.1389,80.1979C15.988,80.0697 15.4626,79.9415 15.1722,80.3819Z" style="fill:white;fill-rule:nonzero;"/>
                    </g>
                    <g id="Heart_Coin27">
                        <path d="M59.762,85.0708C57.9209,85.0708 56.4286,83.5786 56.4286,81.7375C56.4286,79.8966 57.9211,78.4042 59.762,78.4042C61.6031,78.4042 63.0953,79.8966 63.0953,81.7375C63.0953,83.5786 61.6031,85.0708 59.762,85.0708ZM61.0184,83.0931C61.2658,82.7179 61.0784,82.3615 60.8613,82.1748C60.7804,82.1053 60.6851,81.9857 60.6851,81.7606C60.6851,81.5355 60.7804,81.4159 60.8613,81.3464C61.0784,81.1595 61.2655,80.8033 61.0184,80.4282C60.728,79.9877 60.2029,80.1157 60.0518,80.2442L57.9984,81.7606L60.0518,83.2771C60.2026,83.4053 60.728,83.5335 61.0184,83.0931Z" style="fill:white;fill-rule:nonzero;"/>
                    </g>
                    <g id="Heart_Coin28">
                        <path d="M34.762,103.404C34.762,101.563 36.2542,100.071 38.0953,100.071C39.9362,100.071 41.4286,101.563 41.4286,103.404C41.4286,105.245 39.9362,106.737 38.0953,106.737C36.2542,106.737 34.762,105.245 34.762,103.404ZM36.7398,104.661C37.1149,104.908 37.4713,104.721 37.658,104.503C37.7275,104.423 37.8471,104.327 38.0722,104.327C38.2973,104.327 38.4169,104.423 38.4864,104.503C38.6733,104.721 39.0295,104.908 39.4046,104.661C39.8451,104.37 39.7171,103.845 39.5886,103.694L38.0722,101.641L36.5558,103.694C36.4275,103.845 36.2993,104.37 36.7398,104.661Z" style="fill:white;fill-rule:nonzero;"/>
                    </g>
                </g>
            </g>
        </g>
        <g id="5">
            <g opacity="0.5">
                <g id="Heart_Coin29">
                    <path d="M25.0547,128.799C26.7556,128.094 28.7053,128.902 29.4099,130.603C30.1143,132.303 29.3066,134.253 27.6059,134.958C25.9049,135.662 23.9551,134.855 23.2507,133.154C22.5461,131.453 23.3537,129.503 25.0547,128.799ZM24.6507,131.107C24.5658,131.548 24.8752,131.805 25.1473,131.895C25.2486,131.928 25.3824,132.002 25.4686,132.21C25.5547,132.418 25.5124,132.565 25.4643,132.66C25.3352,132.916 25.2987,133.317 25.6705,133.569C26.1074,133.864 26.5436,133.545 26.634,133.369L27.9507,131.182L25.4734,130.567C25.2849,130.506 24.7505,130.589 24.6507,131.107Z" style="fill:white;fill-rule:nonzero;"/>
                </g>
                <g id="Heart_Coin30">
                    <path d="M51.5595,144.88C50.855,143.179 51.6626,141.229 53.3635,140.525C55.0643,139.82 57.0143,140.628 57.7187,142.328C58.4233,144.029 57.6155,145.979 55.9147,146.684C54.2138,147.388 52.2641,146.581 51.5595,144.88ZM53.8676,145.284C54.3088,145.369 54.5664,145.059 54.6558,144.787C54.6891,144.686 54.7631,144.552 54.971,144.466C55.179,144.38 55.326,144.422 55.4212,144.47C55.6769,144.599 56.0776,144.636 56.3296,144.264C56.6254,143.827 56.3062,143.391 56.1297,143.3L53.9429,141.984L53.3277,144.461C53.2669,144.649 53.3495,145.184 53.8676,145.284Z" style="fill:white;fill-rule:nonzero;"/>
                </g>
                <g id="Heart_Coin31">
                    <path d="M28.67,136.55C29.9718,135.248 32.0822,135.248 33.384,136.55C34.6857,137.852 34.6857,139.963 33.384,141.264C32.0822,142.566 29.9717,142.566 28.67,141.264C27.3681,139.963 27.3681,137.852 28.67,136.55ZM29.18,138.837C29.2704,139.277 29.6549,139.397 29.9404,139.375C30.0468,139.367 30.1988,139.385 30.3579,139.544C30.5171,139.703 30.5342,139.855 30.5262,139.961C30.5049,140.247 30.6244,140.631 31.0644,140.722C31.5812,140.828 31.862,140.366 31.8781,140.168L32.2577,137.644L29.7335,138.024C29.5361,138.04 29.074,138.32 29.18,138.837Z" style="fill:white;fill-rule:nonzero;"/>
                </g>
                <g id="Heart_Coin32">
                    <path d="M64.0253,110.623C62.7235,111.925 60.6131,111.925 59.3113,110.623C58.0096,109.321 58.0096,107.211 59.3113,105.909C60.6131,104.607 62.7236,104.607 64.0253,105.909C65.3272,107.211 65.3272,109.321 64.0253,110.623ZM63.5153,108.336C63.4249,107.896 63.0404,107.776 62.7549,107.798C62.6485,107.806 62.4966,107.789 62.3374,107.63C62.1782,107.47 62.1611,107.319 62.1691,107.212C62.1905,106.926 62.0709,106.542 61.6309,106.452C61.1141,106.346 60.8333,106.808 60.8173,107.005L60.4376,109.529L62.9618,109.15C63.1592,109.134 63.6213,108.853 63.5153,108.336Z" style="fill:white;fill-rule:nonzero;"/>
                </g>
                <g id="Heart_Coin33">
                    <path d="M33.384,105.909C34.6859,107.211 34.6859,109.321 33.384,110.623C32.0823,111.925 29.9717,111.925 28.67,110.623C27.3681,109.321 27.3683,107.211 28.67,105.909C29.9718,104.607 32.0822,104.607 33.384,105.909ZM31.0971,106.419C30.657,106.509 30.5374,106.894 30.5589,107.179C30.5669,107.286 30.5498,107.438 30.3906,107.597C30.2314,107.756 30.0795,107.773 29.9731,107.765C29.6874,107.744 29.3032,107.863 29.2127,108.303C29.1067,108.82 29.5685,109.101 29.7662,109.117L32.2904,109.497L31.9107,106.973C31.8947,106.775 31.6139,106.313 31.0971,106.419Z" style="fill:white;fill-rule:nonzero;"/>
                </g>
                <g id="Heart_Coin34">
                    <path d="M59.3113,141.264C58.0094,139.963 58.0094,137.852 59.3113,136.55C60.613,135.249 62.7236,135.249 64.0253,136.55C65.3272,137.852 65.327,139.963 64.0253,141.264C62.7235,142.566 60.6131,142.566 59.3113,141.264ZM61.5982,140.754C62.0384,140.664 62.1579,140.279 62.1364,139.994C62.1284,139.888 62.1455,139.736 62.3047,139.576C62.4639,139.417 62.6158,139.4 62.7222,139.408C63.0079,139.43 63.3921,139.31 63.4826,138.87C63.5886,138.353 63.1268,138.072 62.9292,138.056L60.4049,137.677L60.7846,140.201C60.8006,140.398 61.0814,140.86 61.5982,140.754Z" style="fill:white;fill-rule:nonzero;"/>
                </g>
                <g id="Heart_Coin35">
                    <path d="M34.9766,142.328C35.6811,140.628 37.6308,139.82 39.3318,140.525C41.0326,141.229 41.8403,143.179 41.1358,144.88C40.4312,146.581 38.4813,147.388 36.7806,146.684C35.0796,145.979 34.272,144.029 34.9766,142.328ZM36.323,144.246C36.5749,144.618 36.9759,144.582 37.2314,144.452C37.3267,144.404 37.4736,144.362 37.6816,144.448C37.8895,144.534 37.9635,144.668 37.9968,144.769C38.0864,145.042 38.3439,145.351 38.785,145.266C39.3031,145.166 39.3858,144.632 39.3249,144.443L38.7097,141.966L36.5229,143.283C36.3467,143.373 36.0272,143.809 36.323,144.246Z" style="fill:white;fill-rule:nonzero;"/>
                </g>
                <g id="Heart_Coin36">
                    <path d="M57.7187,104.845C57.0142,106.546 55.0645,107.353 53.3635,106.649C51.6628,105.944 50.8551,103.994 51.5595,102.294C52.2641,100.593 54.214,99.7853 55.9147,100.49C57.6157,101.194 58.4233,103.144 57.7187,104.845ZM56.3723,102.927C56.1204,102.555 55.7194,102.592 55.4639,102.721C55.3687,102.769 55.2217,102.811 55.0137,102.725C54.8058,102.639 54.7318,102.505 54.6985,102.404C54.6089,102.132 54.3514,101.823 53.9103,101.907C53.3922,102.007 53.3095,102.541 53.3704,102.73L53.9856,105.207L56.1724,103.891C56.3486,103.8 56.6681,103.364 56.3723,102.927Z" style="fill:white;fill-rule:nonzero;"/>
                </g>
                <g id="Heart_Coin37">
                    <path d="M27.6059,112.216C29.3068,112.92 30.1144,114.87 29.4099,116.571C28.7054,118.272 26.7554,119.079 25.0547,118.375C23.3537,117.67 22.5462,115.72 23.2507,114.02C23.9552,112.319 25.9049,111.511 27.6059,112.216ZM25.6882,113.562C25.3162,113.814 25.3528,114.215 25.482,114.471C25.5301,114.566 25.5724,114.713 25.4863,114.921C25.4001,115.129 25.2663,115.203 25.1649,115.236C24.8928,115.325 24.5837,115.583 24.6684,116.024C24.7682,116.542 25.3023,116.625 25.4911,116.564L27.9684,115.949L26.6517,113.762C26.5614,113.586 26.1251,113.266 25.6882,113.562Z" style="fill:white;fill-rule:nonzero;"/>
                </g>
                <g id="Heart_Coin38">
                    <path d="M65.0894,135.958C63.3885,135.253 62.5809,133.304 63.2854,131.603C63.9899,129.902 65.9399,129.094 67.6407,129.799C69.3416,130.503 70.1491,132.453 69.4446,134.154C68.7401,135.855 66.7904,136.662 65.0894,135.958ZM67.0071,134.611C67.3792,134.359 67.3425,133.958 67.2133,133.703C67.1652,133.608 67.1229,133.461 67.209,133.253C67.2952,133.045 67.429,132.971 67.5304,132.938C67.8025,132.848 68.1117,132.59 68.0269,132.149C67.9271,131.631 67.393,131.549 67.2042,131.609L64.7269,132.225L66.0436,134.411C66.1339,134.588 66.5702,134.907 67.0071,134.611Z" style="fill:white;fill-rule:nonzero;"/>
                </g>
                <g id="Heart_Coin39">
                    <path d="M24.681,120.253C26.5221,120.253 28.0143,121.746 28.0143,123.587C28.0143,125.428 26.5219,126.92 24.681,126.92C22.8399,126.92 21.3477,125.428 21.3477,123.587C21.3477,121.746 22.8399,120.253 24.681,120.253ZM23.4245,122.231C23.1772,122.606 23.3645,122.963 23.5817,123.149C23.6625,123.219 23.7579,123.338 23.7579,123.564C23.7579,123.789 23.6625,123.908 23.5817,123.978C23.3645,124.165 23.1774,124.521 23.4245,124.896C23.715,125.336 24.2401,125.208 24.3912,125.08L26.4445,123.564L24.3912,122.047C24.2403,121.919 23.715,121.791 23.4245,122.231Z" style="fill:white;fill-rule:nonzero;"/>
                </g>
                <g id="Heart_Coin40">
                    <path d="M43.0143,145.253C43.0143,143.412 44.5065,141.92 46.3477,141.92C48.1885,141.92 49.681,143.412 49.681,145.253C49.681,147.094 48.1885,148.587 46.3477,148.587C44.5065,148.587 43.0143,147.094 43.0143,145.253ZM44.9921,146.51C45.3672,146.757 45.7237,146.57 45.9103,146.353C45.9799,146.272 46.0994,146.176 46.3245,146.176C46.5497,146.176 46.6692,146.272 46.7388,146.353C46.9257,146.57 47.2819,146.757 47.657,146.51C48.0974,146.219 47.9694,145.694 47.841,145.543L46.3245,143.49L44.8081,145.543C44.6799,145.694 44.5517,146.219 44.9921,146.51Z" style="fill:white;fill-rule:nonzero;"/>
                </g>
            </g>
        </g>
        <g id="4">
            <clipPath id="tag2">
                <rect x="63.3539" y="94.6602" width="50" height="50"/>
            </clipPath>
            <g clip-path="url(#tag2)">
                <g opacity="0.5">
                    <g id="Heart_Coin41">
                        <path d="M67.0609,123.872C68.7619,123.167 70.7116,123.975 71.4161,125.676C72.1206,127.377 71.3129,129.327 69.6121,130.031C67.9112,130.736 65.9614,129.928 65.2569,128.227C64.5524,126.526 65.3599,124.577 67.0609,123.872ZM66.657,126.18C66.572,126.621 66.8815,126.879 67.1535,126.968C67.2549,127.002 67.3887,127.076 67.4748,127.284C67.561,127.492 67.5187,127.638 67.4705,127.734C67.3415,127.989 67.3049,128.39 67.6768,128.642C68.1137,128.938 68.5498,128.619 68.6403,128.442L69.957,126.255L67.4796,125.64C67.2912,125.579 66.7567,125.662 66.657,126.18Z" style="fill:white;fill-rule:nonzero;"/>
                    </g>
                    <g id="Heart_Coin42">
                        <path d="M109.647,114.448C107.946,115.153 105.996,114.345 105.292,112.644C104.587,110.944 105.395,108.994 107.096,108.289C108.797,107.585 110.746,108.392 111.451,110.093C112.155,111.794 111.348,113.744 109.647,114.448ZM110.051,112.14C110.136,111.699 109.826,111.441 109.554,111.352C109.453,111.319 109.319,111.245 109.233,111.037C109.147,110.829 109.189,110.682 109.237,110.587C109.366,110.331 109.403,109.93 109.031,109.678C108.594,109.382 108.158,109.702 108.068,109.878L106.751,112.065L109.228,112.68C109.417,112.741 109.951,112.658 110.051,112.14Z" style="fill:white;fill-rule:nonzero;"/>
                    </g>
                    <g id="Heart_Coin43">
                        <path d="M83.142,98.3672C83.8466,100.068 83.039,102.018 81.338,102.722C79.6373,103.427 77.6873,102.619 76.9828,100.918C76.2783,99.2174 77.0861,97.2676 78.7868,96.5632C80.4878,95.8586 82.4375,96.6662 83.142,98.3672ZM80.834,97.9632C80.3928,97.8783 80.1352,98.1877 80.0458,98.4598C80.0125,98.5611 79.9385,98.6949 79.7305,98.7811C79.5225,98.8672 79.3756,98.8249 79.2804,98.7768C79.0246,98.6477 78.6239,98.6112 78.3719,98.983C78.0762,99.4199 78.3954,99.8561 78.5719,99.9465L80.7587,101.263L81.3739,98.7859C81.4346,98.5974 81.352,98.063 80.834,97.9632Z" style="fill:white;fill-rule:nonzero;"/>
                    </g>
                    <g id="Heart_Coin44">
                        <path d="M93.5658,140.953C92.8612,139.252 93.6688,137.303 95.3698,136.598C97.0705,135.893 99.0205,136.701 99.725,138.402C100.43,140.103 99.6218,142.053 97.921,142.757C96.22,143.462 94.2703,142.654 93.5658,140.953ZM95.8738,141.357C96.315,141.442 96.5727,141.133 96.662,140.861C96.6953,140.759 96.7693,140.625 96.9773,140.539C97.1853,140.453 97.3322,140.495 97.4274,140.544C97.6832,140.673 98.0839,140.709 98.3359,140.337C98.6316,139.9 98.3124,139.464 98.1359,139.374L95.9491,138.057L95.3339,140.534C95.2732,140.723 95.3558,141.257 95.8738,141.357Z" style="fill:white;fill-rule:nonzero;"/>
                    </g>
                    <g id="Heart_Coin45">
                        <path d="M70.6762,132.624C71.9781,131.322 74.0884,131.322 75.3903,132.624C76.692,133.925 76.692,136.036 75.3903,137.338C74.0884,138.64 71.9779,138.64 70.6762,137.338C69.3744,136.036 69.3744,133.926 70.6762,132.624ZM71.1863,134.911C71.2766,135.351 71.6612,135.47 71.9467,135.449C72.0531,135.441 72.205,135.458 72.3642,135.617C72.5234,135.776 72.5405,135.928 72.5325,136.035C72.5111,136.32 72.6307,136.705 73.0707,136.795C73.5875,136.901 73.8683,136.439 73.8843,136.242L74.2639,133.717L71.7397,134.097C71.5424,134.113 71.0802,134.394 71.1863,134.911Z" style="fill:white;fill-rule:nonzero;"/>
                    </g>
                    <g id="Heart_Coin46">
                        <path d="M106.032,106.697C104.73,107.998 102.619,107.998 101.318,106.697C100.016,105.395 100.016,103.284 101.318,101.982C102.619,100.681 104.73,100.681 106.032,101.982C107.333,103.284 107.333,105.395 106.032,106.697ZM105.522,104.41C105.431,103.969 105.047,103.85 104.761,103.871C104.655,103.879 104.503,103.862 104.344,103.703C104.184,103.544 104.167,103.392 104.175,103.286C104.197,103 104.077,102.616 103.637,102.525C103.12,102.419 102.84,102.881 102.824,103.079L102.444,105.603L104.968,105.223C105.165,105.207 105.628,104.926 105.522,104.41Z" style="fill:white;fill-rule:nonzero;"/>
                    </g>
                    <g id="Heart_Coin47">
                        <path d="M75.3903,101.982C76.6921,103.284 76.6921,105.395 75.3903,106.697C74.0886,107.998 71.9779,107.998 70.6762,106.697C69.3744,105.395 69.3745,103.284 70.6762,101.982C71.9781,100.681 74.0884,100.681 75.3903,101.982ZM73.1033,102.493C72.6632,102.583 72.5436,102.967 72.5652,103.253C72.5732,103.359 72.556,103.511 72.3969,103.67C72.2377,103.83 72.0857,103.847 71.9794,103.839C71.6937,103.817 71.3095,103.937 71.219,104.377C71.1129,104.894 71.5747,105.175 71.7724,105.191L74.2966,105.57L73.917,103.046C73.901,102.849 73.6202,102.386 73.1033,102.493Z" style="fill:white;fill-rule:nonzero;"/>
                    </g>
                    <g id="Heart_Coin48">
                        <path d="M101.318,137.338C100.016,136.036 100.016,133.926 101.318,132.624C102.619,131.322 104.73,131.322 106.032,132.624C107.333,133.926 107.333,136.036 106.032,137.338C104.73,138.64 102.619,138.64 101.318,137.338ZM103.604,136.828C104.045,136.737 104.164,136.353 104.143,136.067C104.135,135.961 104.152,135.809 104.311,135.65C104.47,135.491 104.622,135.474 104.728,135.482C105.014,135.503 105.398,135.383 105.489,134.943C105.595,134.427 105.133,134.146 104.935,134.13L102.411,133.75L102.791,136.274C102.807,136.472 103.088,136.934 103.604,136.828Z" style="fill:white;fill-rule:nonzero;"/>
                    </g>
                    <g id="Heart_Coin49">
                        <path d="M76.9828,138.402C77.6874,136.701 79.6371,135.893 81.338,136.598C83.0388,137.302 83.8465,139.252 83.142,140.953C82.4375,142.654 80.4876,143.462 78.7868,142.757C77.0859,142.053 76.2783,140.103 76.9828,138.402ZM78.3292,140.32C78.5811,140.692 78.9821,140.655 79.2377,140.526C79.3329,140.478 79.4798,140.435 79.6878,140.522C79.8958,140.608 79.9698,140.742 80.0031,140.843C80.0927,141.115 80.3502,141.424 80.7913,141.339C81.3093,141.24 81.392,140.706 81.3312,140.517L80.716,138.039L78.5292,139.356C78.353,139.446 78.0335,139.883 78.3292,140.32Z" style="fill:white;fill-rule:nonzero;"/>
                    </g>
                    <g id="Heart_Coin50">
                        <path d="M99.725,100.918C99.0204,102.619 97.0707,103.427 95.3698,102.722C93.669,102.018 92.8613,100.068 93.5658,98.3672C94.2703,96.6662 96.2202,95.8587 97.921,96.5632C99.622,97.2677 100.43,99.2174 99.725,100.918ZM98.3786,99.0007C98.1267,98.6287 97.7257,98.6653 97.4701,98.7945C97.3749,98.8426 97.228,98.8849 97.02,98.7988C96.812,98.7126 96.738,98.5788 96.7047,98.4774C96.6152,98.2053 96.3577,97.8962 95.9165,97.9809C95.3985,98.0807 95.3158,98.6148 95.3766,98.8036L95.9918,101.281L98.1786,99.9642C98.3548,99.8739 98.6743,99.4376 98.3786,99.0007Z" style="fill:white;fill-rule:nonzero;"/>
                    </g>
                    <g id="Heart_Coin51">
                        <path d="M69.6121,108.289C71.3131,108.994 72.1207,110.943 71.4161,112.644C70.7116,114.345 68.7617,115.153 67.0609,114.448C65.3599,113.744 64.5524,111.794 65.2569,110.093C65.9615,108.392 67.9112,107.585 69.6121,108.289ZM67.6945,109.635C67.3224,109.887 67.3591,110.288 67.4882,110.544C67.5363,110.639 67.5787,110.786 67.4925,110.994C67.4064,111.202 67.2725,111.276 67.1712,111.309C66.8991,111.399 66.5899,111.656 66.6747,112.098C66.7744,112.616 67.3086,112.698 67.4973,112.637L69.9747,112.022L68.658,109.835C68.5676,109.659 68.1313,109.34 67.6945,109.635Z" style="fill:white;fill-rule:nonzero;"/>
                    </g>
                    <g id="Heart_Coin52">
                        <path d="M107.096,131.031C105.395,130.327 104.587,128.377 105.292,126.676C105.996,124.975 107.946,124.168 109.647,124.872C111.348,125.577 112.155,127.526 111.451,129.227C110.746,130.928 108.797,131.736 107.096,131.031ZM109.013,129.685C109.385,129.433 109.349,129.032 109.22,128.776C109.171,128.681 109.129,128.534 109.215,128.326C109.301,128.118 109.435,128.044 109.537,128.011C109.809,127.921 110.118,127.664 110.033,127.223C109.933,126.705 109.399,126.622 109.21,126.683L106.733,127.298L108.05,129.485C108.14,129.661 108.576,129.981 109.013,129.685Z" style="fill:white;fill-rule:nonzero;"/>
                    </g>
                    <g id="Heart_Coin53">
                        <path d="M66.6872,116.327C68.5284,116.327 70.0206,117.819 70.0206,119.66C70.0206,121.501 68.5281,122.993 66.6872,122.993C64.8461,122.993 63.3539,121.501 63.3539,119.66C63.3539,117.819 64.8461,116.327 66.6872,116.327ZM65.4308,118.305C65.1835,118.68 65.3708,119.036 65.5879,119.223C65.6688,119.292 65.7641,119.412 65.7641,119.637C65.7641,119.862 65.6688,119.982 65.5879,120.051C65.3708,120.238 65.1837,120.594 65.4308,120.969C65.7212,121.41 66.2464,121.282 66.3975,121.153L68.4508,119.637L66.3975,118.121C66.2466,117.992 65.7212,117.864 65.4308,118.305Z" style="fill:white;fill-rule:nonzero;"/>
                    </g>
                    <g id="Heart_Coin54">
                        <path d="M110.021,122.993C108.179,122.993 106.687,121.501 106.687,119.66C106.687,117.819 108.18,116.327 110.021,116.327C111.862,116.327 113.354,117.819 113.354,119.66C113.354,121.501 111.862,122.993 110.021,122.993ZM111.277,121.016C111.524,120.641 111.337,120.284 111.12,120.097C111.039,120.028 110.944,119.908 110.944,119.683C110.944,119.458 111.039,119.339 111.12,119.269C111.337,119.082 111.524,118.726 111.277,118.351C110.987,117.91 110.461,118.038 110.31,118.167L108.257,119.683L110.31,121.2C110.461,121.328 110.987,121.456 111.277,121.016Z" style="fill:white;fill-rule:nonzero;"/>
                    </g>
                    <g id="Heart_Coin55">
                        <path d="M91.6872,97.9935C91.6872,99.8346 90.195,101.327 88.3539,101.327C86.513,101.327 85.0206,99.8344 85.0206,97.9935C85.0206,96.1524 86.513,94.6602 88.3539,94.6602C90.195,94.6602 91.6872,96.1524 91.6872,97.9935ZM89.7095,96.737C89.3344,96.4897 88.9779,96.677 88.7912,96.8942C88.7217,96.975 88.6021,97.0704 88.377,97.0704C88.1519,97.0704 88.0324,96.975 87.9628,96.8942C87.7759,96.677 87.4197,96.4899 87.0446,96.737C86.6041,97.0275 86.7321,97.5526 86.8606,97.7037L88.377,99.757L89.8935,97.7037C90.0217,97.5528 90.1499,97.0275 89.7095,96.737Z" style="fill:white;fill-rule:nonzero;"/>
                    </g>
                    <g id="Heart_Coin56">
                        <path d="M85.0206,141.327C85.0206,139.486 86.5128,137.993 88.3539,137.993C90.1948,137.993 91.6872,139.486 91.6872,141.327C91.6872,143.168 90.1948,144.66 88.3539,144.66C86.5128,144.66 85.0206,143.168 85.0206,141.327ZM86.9984,142.583C87.3735,142.831 87.7299,142.643 87.9166,142.426C87.9861,142.345 88.1057,142.25 88.3308,142.25C88.5559,142.25 88.6755,142.345 88.745,142.426C88.9319,142.643 89.2881,142.83 89.6632,142.583C90.1037,142.293 89.9757,141.768 89.8472,141.617L88.3308,139.563L86.8144,141.617C86.6861,141.767 86.5579,142.293 86.9984,142.583Z" style="fill:white;fill-rule:nonzero;"/>
                    </g>
                </g>
            </g>
        </g>
        <g id="3">
            <clipPath id="tag3">
                <rect x="98.7641" y="71.3422" width="50" height="49.3726"/>
            </clipPath>
            <g clip-path="url(#tag3)">
                <g opacity="0.5">
                    <g id="Heart_Coin57">
                        <path d="M145.057,90.503C143.356,91.2075 141.406,90.3999 140.702,88.699C139.997,86.9982 140.805,85.0482 142.506,84.3438C144.207,83.6392 146.157,84.447 146.861,86.1478C147.566,87.8487 146.758,89.7984 145.057,90.503ZM145.461,88.1949C145.546,87.7537 145.236,87.4961 144.964,87.4067C144.863,87.3734 144.729,87.2994 144.643,87.0915C144.557,86.8835 144.599,86.7365 144.647,86.6413C144.776,86.3856 144.813,85.9849 144.441,85.7329C144.004,85.4371 143.568,85.7563 143.478,85.9328L142.161,88.1196L144.638,88.7348C144.827,88.7956 145.361,88.713 145.461,88.1949Z" style="fill:white;fill-rule:nonzero;"/>
                    </g>
                    <g id="Heart_Coin58">
                        <path d="M128.976,117.008C128.271,115.307 129.079,113.357 130.78,112.653C132.481,111.948 134.431,112.756 135.135,114.457C135.84,116.158 135.032,118.107 133.331,118.812C131.63,119.516 129.681,118.709 128.976,117.008ZM131.284,117.412C131.725,117.497 131.983,117.187 132.072,116.915C132.105,116.814 132.179,116.68 132.387,116.594C132.595,116.508 132.742,116.55 132.838,116.598C133.093,116.727 133.494,116.764 133.746,116.392C134.042,115.955 133.723,115.519 133.546,115.428L131.359,114.112L130.744,116.589C130.683,116.778 130.766,117.312 131.284,117.412Z" style="fill:white;fill-rule:nonzero;"/>
                    </g>
                    <g id="Heart_Coin59">
                        <path d="M141.442,82.7512C140.14,84.0531 138.03,84.0531 136.728,82.7512C135.426,81.4495 135.426,79.3389 136.728,78.0372C138.03,76.7353 140.14,76.7355 141.442,78.0372C142.744,79.339 142.744,81.4494 141.442,82.7512ZM140.932,80.4643C140.841,80.0241 140.457,79.9046 140.171,79.9261C140.065,79.9341 139.913,79.917 139.754,79.7578C139.595,79.5986 139.577,79.4467 139.585,79.3403C139.607,79.0546 139.487,78.6704 139.047,78.5799C138.53,78.4739 138.25,78.9357 138.234,79.1333L137.854,81.6576L140.378,81.2779C140.576,81.2619 141.038,80.9811 140.932,80.4643Z" style="fill:white;fill-rule:nonzero;"/>
                    </g>
                    <g id="Heart_Coin60">
                        <path d="M110.8,78.0372C112.102,79.339 112.102,81.4494 110.8,82.7512C109.499,84.0529 107.388,84.0529 106.086,82.7512C104.785,81.4494 104.785,79.3389 106.086,78.0372C107.388,76.7353 109.499,76.7353 110.8,78.0372ZM108.513,78.5472C108.073,78.6376 107.954,79.0221 107.975,79.3076C107.983,79.414 107.966,79.5659 107.807,79.7251C107.648,79.8843 107.496,79.9014 107.39,79.8934C107.104,79.872 106.72,79.9916 106.629,80.4316C106.523,80.9484 106.985,81.2292 107.183,81.2452L109.707,81.6249L109.327,79.1007C109.311,78.9033 109.03,78.4412 108.513,78.5472Z" style="fill:white;fill-rule:nonzero;"/>
                    </g>
                    <g id="Heart_Coin61">
                        <path d="M136.728,113.393C135.426,112.091 135.426,109.98 136.728,108.678C138.029,107.377 140.14,107.377 141.442,108.678C142.744,109.98 142.743,112.091 141.442,113.393C140.14,114.694 138.03,114.694 136.728,113.393ZM139.015,112.882C139.455,112.792 139.574,112.408 139.553,112.122C139.545,112.016 139.562,111.864 139.721,111.705C139.88,111.545 140.032,111.528 140.139,111.536C140.424,111.558 140.808,111.438 140.899,110.998C141.005,110.481 140.543,110.2 140.346,110.184L137.821,109.805L138.201,112.329C138.217,112.526 138.498,112.989 139.015,112.882Z" style="fill:white;fill-rule:nonzero;"/>
                    </g>
                    <g id="Heart_Coin62">
                        <path d="M112.393,114.457C113.098,112.756 115.047,111.948 116.748,112.653C118.449,113.357 119.257,115.307 118.552,117.008C117.848,118.709 115.898,119.516 114.197,118.812C112.496,118.107 111.688,116.158 112.393,114.457ZM113.739,116.374C113.991,116.746 114.392,116.71 114.648,116.581C114.743,116.532 114.89,116.49 115.098,116.576C115.306,116.662 115.38,116.796 115.413,116.898C115.503,117.17 115.76,117.479 116.201,117.394C116.719,117.294 116.802,116.76 116.741,116.571L116.126,114.094L113.939,115.411C113.763,115.501 113.444,115.937 113.739,116.374Z" style="fill:white;fill-rule:nonzero;"/>
                    </g>
                    <g id="Heart_Coin63">
                        <path d="M135.135,76.9731C134.431,78.674 132.481,79.4816 130.78,78.7771C129.079,78.0726 128.271,76.1226 128.976,74.4218C129.681,72.7209 131.63,71.9134 133.331,72.6179C135.032,73.3224 135.84,75.2721 135.135,76.9731ZM133.789,75.0554C133.537,74.6833 133.136,74.72 132.88,74.8492C132.785,74.8973 132.638,74.9396 132.43,74.8535C132.222,74.7673 132.148,74.6335 132.115,74.5321C132.025,74.26 131.768,73.9508 131.327,74.0356C130.809,74.1354 130.726,74.6695 130.787,74.8583L131.402,77.3356L133.589,76.0189C133.765,75.9286 134.084,75.4923 133.789,75.0554Z" style="fill:white;fill-rule:nonzero;"/>
                    </g>
                    <g id="Heart_Coin64">
                        <path d="M105.022,84.3438C106.723,85.0483 107.531,86.998 106.826,88.699C106.122,90.3997 104.172,91.2074 102.471,90.503C100.77,89.7984 99.9626,87.8485 100.667,86.1478C101.372,84.4468 103.321,83.6392 105.022,84.3438ZM103.105,85.6902C102.733,85.9421 102.769,86.3431 102.898,86.5986C102.946,86.6938 102.989,86.8408 102.903,87.0488C102.817,87.2567 102.683,87.3307 102.581,87.364C102.309,87.4536 102,87.7111 102.085,88.1522C102.185,88.6703 102.719,88.753 102.907,88.6921L105.385,88.0769L104.068,85.8901C103.978,85.7139 103.542,85.3944 103.105,85.6902Z" style="fill:white;fill-rule:nonzero;"/>
                    </g>
                    <g id="Heart_Coin65">
                        <path d="M142.506,107.086C140.805,106.381 139.997,104.432 140.702,102.731C141.406,101.03 143.356,100.222 145.057,100.927C146.758,101.631 147.566,103.581 146.861,105.282C146.156,106.983 144.207,107.79 142.506,107.086ZM144.424,105.74C144.796,105.488 144.759,105.087 144.63,104.831C144.582,104.736 144.539,104.589 144.625,104.381C144.712,104.173 144.845,104.099 144.947,104.066C145.219,103.976 145.528,103.719 145.443,103.277C145.344,102.759 144.809,102.677 144.621,102.738L142.143,103.353L143.46,105.54C143.55,105.716 143.987,106.035 144.424,105.74Z" style="fill:white;fill-rule:nonzero;"/>
                    </g>
                    <g id="Heart_Coin66">
                        <path d="M102.097,92.3815C103.939,92.3815 105.431,93.8737 105.431,95.7148C105.431,97.5557 103.938,99.0482 102.097,99.0482C100.256,99.0482 98.7641,97.5557 98.7641,95.7148C98.7641,93.8737 100.256,92.3815 102.097,92.3815ZM100.841,94.3593C100.594,94.7344 100.781,95.0908 100.998,95.2775C101.079,95.3471 101.174,95.4666 101.174,95.6917C101.174,95.9168 101.079,96.0364 100.998,96.106C100.781,96.2928 100.594,96.6491 100.841,97.0242C101.131,97.4646 101.657,97.3366 101.808,97.2082L103.861,95.6917L101.808,94.1753C101.657,94.0471 101.131,93.9188 100.841,94.3593Z" style="fill:white;fill-rule:nonzero;"/>
                    </g>
                    <g id="Heart_Coin67">
                        <path d="M145.431,99.0482C143.59,99.0482 142.097,97.556 142.097,95.7148C142.097,93.874 143.59,92.3815 145.431,92.3815C147.272,92.3815 148.764,93.874 148.764,95.7148C148.764,97.556 147.272,99.0482 145.431,99.0482ZM146.687,97.0704C146.935,96.6953 146.747,96.3388 146.53,96.1522C146.449,96.0826 146.354,95.9631 146.354,95.738C146.354,95.5128 146.449,95.3933 146.53,95.3237C146.747,95.1368 146.934,94.7806 146.687,94.4055C146.397,93.9651 145.872,94.0931 145.721,94.2215L143.667,95.738L145.721,97.2544C145.871,97.3826 146.397,97.5108 146.687,97.0704Z" style="fill:white;fill-rule:nonzero;"/>
                    </g>
                    <g id="Heart_Coin68">
                        <path d="M120.431,117.382C120.431,115.54 121.923,114.048 123.764,114.048C125.605,114.048 127.097,115.541 127.097,117.382C127.097,119.223 125.605,120.715 123.764,120.715C121.923,120.715 120.431,119.223 120.431,117.382ZM122.409,118.638C122.784,118.885 123.14,118.698 123.327,118.481C123.396,118.4 123.516,118.305 123.741,118.305C123.966,118.305 124.086,118.4 124.155,118.481C124.342,118.698 124.698,118.885 125.073,118.638C125.514,118.348 125.386,117.822 125.257,117.671L123.741,115.618L122.225,117.671C122.096,117.822 121.968,118.348 122.409,118.638Z" style="fill:white;fill-rule:nonzero;"/>
                    </g>
                </g>
            </g>
        </g>
        <g id="2">
            <clipPath id="tag4">
                <rect x="90.3656" y="28.9391" width="50" height="50"/>
            </clipPath>
            <g clip-path="url(#tag4)">
                <g opacity="0.5">
                    <g id="Heart_Coin69">
                        <path d="M94.0726,59.1509C95.7735,58.4464 97.7232,59.254 98.4278,60.9549C99.1323,62.6557 98.3246,64.6057 96.6238,65.3101C94.9228,66.0147 92.9731,65.2069 92.2686,63.5061C91.564,61.8052 92.3716,59.8555 94.0726,59.1509ZM93.6686,61.459C93.5837,61.9002 93.8931,62.1578 94.1652,62.2472C94.2665,62.2805 94.4003,62.3545 94.4865,62.5624C94.5726,62.7704 94.5303,62.9174 94.4822,63.0126C94.3531,63.2683 94.3166,63.669 94.6884,63.921C95.1253,64.2168 95.5615,63.8976 95.6519,63.7211L96.9686,61.5343L94.4913,60.9191C94.3028,60.8583 93.7684,60.9409 93.6686,61.459Z" style="fill:white;fill-rule:nonzero;"/>
                    </g>
                    <g id="Heart_Coin70">
                        <path d="M136.659,48.7272C134.958,49.4317 133.008,48.6242 132.303,46.9232C131.599,45.2224 132.407,43.2725 134.107,42.568C135.808,41.8634 137.758,42.6712 138.463,44.372C139.167,46.0729 138.36,48.0226 136.659,48.7272ZM137.063,46.4191C137.147,45.9779 136.838,45.7203 136.566,45.6309C136.465,45.5976 136.331,45.5237 136.245,45.3157C136.159,45.1077 136.201,44.9608 136.249,44.8656C136.378,44.6098 136.415,44.2091 136.043,43.9571C135.606,43.6613 135.17,43.9805 135.079,44.157L133.762,46.3438L136.24,46.9591C136.428,47.0198 136.963,46.9372 137.063,46.4191Z" style="fill:white;fill-rule:nonzero;"/>
                    </g>
                    <g id="Heart_Coin71">
                        <path d="M110.154,32.6461C110.858,34.347 110.051,36.2967 108.35,37.0013C106.649,37.7057 104.699,36.898 103.994,35.1973C103.29,33.4963 104.098,31.5466 105.798,30.8421C107.499,30.1375 109.449,30.9451 110.154,32.6461ZM107.846,32.2421C107.404,32.1572 107.147,32.4666 107.057,32.7387C107.024,32.84 106.95,32.9738 106.742,33.06C106.534,33.1461 106.387,33.1038 106.292,33.0557C106.036,32.9266 105.636,32.8901 105.384,33.2619C105.088,33.6988 105.407,34.135 105.584,34.2254L107.77,35.5421L108.386,33.0648C108.446,32.8763 108.364,32.3419 107.846,32.2421Z" style="fill:white;fill-rule:nonzero;"/>
                    </g>
                    <g id="Heart_Coin72">
                        <path d="M120.577,75.2321C119.873,73.5311 120.68,71.5814 122.381,70.8769C124.082,70.1724 126.032,70.9801 126.737,72.6808C127.441,74.3818 126.633,76.3316 124.933,77.0361C123.232,77.7406 121.282,76.933 120.577,75.2321ZM122.885,75.636C123.327,75.721 123.584,75.4115 123.674,75.1395C123.707,75.0381 123.781,74.9043 123.989,74.8181C124.197,74.732 124.344,74.7743 124.439,74.8224C124.695,74.9515 125.096,74.988 125.348,74.6162C125.643,74.1793 125.324,73.7432 125.148,73.6527L122.961,72.336L122.346,74.8133C122.285,75.0018 122.367,75.5362 122.885,75.636Z" style="fill:white;fill-rule:nonzero;"/>
                    </g>
                    <g id="Heart_Coin73">
                        <path d="M97.6879,66.9027C98.9898,65.6008 101.1,65.6008 102.402,66.9027C103.704,68.2044 103.704,70.315 102.402,71.6167C101.1,72.9186 98.9896,72.9184 97.6879,71.6167C96.386,70.3149 96.386,68.2045 97.6879,66.9027ZM98.198,69.1896C98.2883,69.6298 98.6728,69.7493 98.9583,69.7278C99.0647,69.7198 99.2167,69.7369 99.3758,69.8961C99.535,70.0553 99.5521,70.2072 99.5441,70.3136C99.5228,70.5993 99.6423,70.9835 100.082,71.074C100.599,71.1801 100.88,70.7182 100.896,70.5206L101.276,67.9963L98.7514,68.376C98.554,68.392 98.0919,68.6728 98.198,69.1896Z" style="fill:white;fill-rule:nonzero;"/>
                    </g>
                    <g id="Heart_Coin74">
                        <path d="M133.043,40.9754C131.741,42.2773 129.631,42.2773 128.329,40.9754C127.027,39.6737 127.027,37.5631 128.329,36.2614C129.631,34.9595 131.742,34.9597 133.043,36.2614C134.345,37.5633 134.345,39.6736 133.043,40.9754ZM132.533,38.6885C132.443,38.2484 132.058,38.1288 131.773,38.1503C131.666,38.1583 131.514,38.1412 131.355,37.982C131.196,37.8228 131.179,37.6709 131.187,37.5645C131.208,37.2788 131.089,36.8946 130.649,36.8041C130.132,36.6981 129.851,37.1599 129.835,37.3576L129.456,39.8818L131.98,39.5021C132.177,39.4861 132.639,39.2053 132.533,38.6885Z" style="fill:white;fill-rule:nonzero;"/>
                    </g>
                    <g id="Heart_Coin75">
                        <path d="M102.402,36.2614C103.704,37.5633 103.704,39.6736 102.402,40.9754C101.1,42.2771 98.9896,42.2771 97.6879,40.9754C96.386,39.6736 96.3862,37.5631 97.6879,36.2614C98.9898,34.9595 101.1,34.9595 102.402,36.2614ZM100.115,36.7715C99.6749,36.8618 99.5553,37.2463 99.5768,37.5318C99.5848,37.6382 99.5677,37.7902 99.4085,37.9493C99.2493,38.1085 99.0974,38.1256 98.991,38.1176C98.7053,38.0963 98.3212,38.2158 98.2306,38.6558C98.1246,39.1726 98.5864,39.4534 98.7841,39.4695L101.308,39.8491L100.929,37.3249C100.913,37.1275 100.632,36.6654 100.115,36.7715Z" style="fill:white;fill-rule:nonzero;"/>
                    </g>
                    <g id="Heart_Coin76">
                        <path d="M128.329,71.6167C127.027,70.3149 127.027,68.2045 128.329,66.9027C129.631,65.601 131.742,65.601 133.043,66.9027C134.345,68.2045 134.345,70.315 133.043,71.6167C131.741,72.9186 129.631,72.9186 128.329,71.6167ZM130.616,71.1067C131.056,71.0163 131.176,70.6318 131.154,70.3463C131.146,70.2399 131.163,70.088 131.323,69.9288C131.482,69.7696 131.634,69.7525 131.74,69.7605C132.026,69.7819 132.41,69.6623 132.5,69.2223C132.607,68.7055 132.145,68.4247 131.947,68.4087L129.423,68.029L129.802,70.5532C129.819,70.7506 130.099,71.2127 130.616,71.1067Z" style="fill:white;fill-rule:nonzero;"/>
                    </g>
                    <g id="Heart_Coin77">
                        <path d="M103.994,72.6808C104.699,70.9799 106.649,70.1723 108.35,70.8769C110.05,71.5813 110.858,73.5313 110.154,75.2321C109.449,76.933 107.499,77.7405 105.798,77.0361C104.098,76.3315 103.29,74.3818 103.994,72.6808ZM105.341,74.5985C105.593,74.9706 105.994,74.9339 106.249,74.8047C106.345,74.7566 106.492,74.7143 106.699,74.8005C106.907,74.8866 106.981,75.0204 107.015,75.1218C107.104,75.3939 107.362,75.7031 107.803,75.6183C108.321,75.5185 108.404,74.9844 108.343,74.7956L107.728,72.3183L105.541,73.635C105.365,73.7253 105.045,74.1616 105.341,74.5985Z" style="fill:white;fill-rule:nonzero;"/>
                    </g>
                    <g id="Heart_Coin78">
                        <path d="M126.737,35.1973C126.032,36.8982 124.082,37.7058 122.381,37.0013C120.681,36.2968 119.873,34.3468 120.577,32.6461C121.282,30.9451 123.232,30.1376 124.933,30.8421C126.634,31.5466 127.441,33.4963 126.737,35.1973ZM125.39,33.2796C125.138,32.9076 124.737,32.9442 124.482,33.0734C124.387,33.1215 124.24,33.1638 124.032,33.0777C123.824,32.9915 123.75,32.8577 123.716,32.7563C123.627,32.4842 123.369,32.1751 122.928,32.2598C122.41,32.3596 122.327,32.8937 122.388,33.0825L123.004,35.5598L125.19,34.2431C125.367,34.1528 125.686,33.7165 125.39,33.2796Z" style="fill:white;fill-rule:nonzero;"/>
                    </g>
                    <g id="Heart_Coin79">
                        <path d="M96.6238,42.568C98.3248,43.2726 99.1323,45.2222 98.4278,46.9232C97.7233,48.624 95.7733,49.4317 94.0726,48.7272C92.3716,48.0226 91.5641,46.0727 92.2686,44.372C92.9731,42.671 94.9228,41.8634 96.6238,42.568ZM94.7061,43.9144C94.3341,44.1663 94.3707,44.5673 94.4999,44.8228C94.548,44.9181 94.5903,45.065 94.5042,45.273C94.418,45.481 94.2842,45.5549 94.1829,45.5882C93.9108,45.6778 93.6016,45.9353 93.6863,46.3764C93.7861,46.8945 94.3202,46.9772 94.509,46.9164L96.9863,46.3011L95.6696,44.1143C95.5793,43.9381 95.143,43.6186 94.7061,43.9144Z" style="fill:white;fill-rule:nonzero;"/>
                    </g>
                    <g id="Heart_Coin80">
                        <path d="M134.107,65.3101C132.406,64.6056 131.599,62.6559 132.303,60.9549C133.008,59.2542 134.958,58.4465 136.659,59.1509C138.36,59.8555 139.167,61.8054 138.463,63.5061C137.758,65.2071 135.808,66.0147 134.107,65.3101ZM136.025,63.9637C136.397,63.7118 136.36,63.3108 136.231,63.0553C136.183,62.9601 136.141,62.8131 136.227,62.6051C136.313,62.3972 136.447,62.3232 136.548,62.2899C136.82,62.2003 137.13,61.9428 137.045,61.5017C136.945,60.9836 136.411,60.9009 136.222,60.9618L133.745,61.577L135.062,63.7638C135.152,63.94 135.588,64.2595 136.025,63.9637Z" style="fill:white;fill-rule:nonzero;"/>
                    </g>
                    <g id="Heart_Coin81">
                        <path d="M93.6989,50.6057C95.54,50.6057 97.0322,52.098 97.0322,53.9391C97.0322,55.78 95.5398,57.2724 93.6989,57.2724C91.8578,57.2724 90.3656,55.78 90.3656,53.9391C90.3656,52.098 91.8578,50.6057 93.6989,50.6057ZM92.4425,52.5835C92.1951,52.9586 92.3825,53.3151 92.5996,53.5017C92.6805,53.5713 92.7758,53.6908 92.7758,53.916C92.7758,54.1411 92.6805,54.2606 92.5996,54.3302C92.3825,54.5171 92.1953,54.8733 92.4425,55.2484C92.7329,55.6888 93.258,55.5608 93.4091,55.4324L95.4625,53.916L93.4091,52.3995C93.2582,52.2713 92.7329,52.1431 92.4425,52.5835Z" style="fill:white;fill-rule:nonzero;"/>
                    </g>
                    <g id="Heart_Coin82">
                        <path d="M137.032,57.2724C135.191,57.2724 133.699,55.7802 133.699,53.9391C133.699,52.0982 135.191,50.6057 137.032,50.6057C138.873,50.6057 140.366,52.0982 140.366,53.9391C140.366,55.7802 138.873,57.2724 137.032,57.2724ZM138.289,55.2946C138.536,54.9195 138.349,54.5631 138.132,54.3764C138.051,54.3068 137.955,54.1873 137.955,53.9622C137.955,53.7371 138.051,53.6175 138.132,53.548C138.349,53.3611 138.536,53.0048 138.289,52.6297C137.998,52.1893 137.473,52.3173 137.322,52.4457L135.269,53.9622L137.322,55.4786C137.473,55.6068 137.998,55.7351 138.289,55.2946Z" style="fill:white;fill-rule:nonzero;"/>
                    </g>
                    <g id="Heart_Coin83">
                        <path d="M118.699,32.2724C118.699,34.1135 117.207,35.6057 115.366,35.6057C113.525,35.6057 112.032,34.1133 112.032,32.2724C112.032,30.4313 113.525,28.9391 115.366,28.9391C117.207,28.9391 118.699,30.4313 118.699,32.2724ZM116.721,31.016C116.346,30.7686 115.99,30.956 115.803,31.1731C115.733,31.254 115.614,31.3493 115.389,31.3493C115.164,31.3493 115.044,31.254 114.974,31.1731C114.788,30.956 114.431,30.7688 114.056,31.016C113.616,31.3064 113.744,31.8315 113.872,31.9826L115.389,34.036L116.905,31.9826C117.033,31.8317 117.162,31.3064 116.721,31.016Z" style="fill:white;fill-rule:nonzero;"/>
                    </g>
                    <g id="Heart_Coin84">
                        <path d="M112.032,75.6057C112.032,73.7646 113.524,72.2724 115.366,72.2724C117.206,72.2724 118.699,73.7648 118.699,75.6057C118.699,77.4468 117.206,78.9391 115.366,78.9391C113.524,78.9391 112.032,77.4468 112.032,75.6057ZM114.01,76.8622C114.385,77.1095 114.742,76.9222 114.928,76.7051C114.998,76.6242 115.117,76.5288 115.342,76.5288C115.568,76.5288 115.687,76.6242 115.757,76.7051C115.944,76.9222 116.3,77.1093 116.675,76.8622C117.115,76.5717 116.987,76.0466 116.859,75.8955L115.342,73.8422L113.826,75.8955C113.698,76.0464 113.57,76.5717 114.01,76.8622Z" style="fill:white;fill-rule:nonzero;"/>
                    </g>
                </g>
            </g>
        </g>
        <g id="1">
            <clipPath id="tag5">
                <rect x="55.6274" y="5" width="49.3726" height="50"/>
            </clipPath>
            <g clip-path="url(#tag5)">
                <g opacity="0.5">
                    <g id="Heart_Coin85">
                        <path d="M101.293,24.7881C99.592,25.4927 97.6424,24.6851 96.9378,22.9841C96.2333,21.2834 97.041,19.3334 98.7418,18.6289C100.443,17.9244 102.393,18.7322 103.097,20.4329C103.802,22.1339 102.994,24.0836 101.293,24.7881ZM101.697,22.4801C101.782,22.0389 101.472,21.7812 101.2,21.6919C101.099,21.6586 100.965,21.5846 100.879,21.3766C100.793,21.1686 100.835,21.0217 100.883,20.9265C101.012,20.6707 101.049,20.27 100.677,20.018C100.24,19.7223 99.8041,20.0415 99.7136,20.218L98.3969,22.4048L100.874,23.02C101.063,23.0807 101.597,22.9981 101.697,22.4801Z" style="fill:white;fill-rule:nonzero;"/>
                    </g>
                    <g id="Heart_Coin86">
                        <path d="M74.7881,8.707C75.4927,10.408 74.6851,12.3576 72.9841,13.0622C71.2834,13.7667 69.3334,12.959 68.6289,11.2582C67.9244,9.55726 68.7322,7.60749 70.4329,6.90301C72.1339,6.19845 74.0836,7.00603 74.7881,8.707ZM72.4801,8.30306C72.0389,8.2181 71.7812,8.52758 71.6919,8.7996C71.6586,8.90095 71.5846,9.03478 71.3766,9.12092C71.1686,9.20707 71.0217,9.16474 70.9265,9.11663C70.6707,8.98757 70.27,8.95102 70.018,9.32287C69.7223,9.75975 70.0415,10.1959 70.218,10.2864L72.4048,11.6031L73.02,9.12573C73.0807,8.93726 72.9981,8.40284 72.4801,8.30306Z" style="fill:white;fill-rule:nonzero;"/>
                    </g>
                    <g id="Heart_Coin87">
                        <path d="M85.2119,51.293C84.5073,49.592 85.3149,47.6424 87.0159,46.9378C88.7166,46.2333 90.6666,47.041 91.3711,48.7418C92.0756,50.4427 91.2678,52.3925 89.5671,53.097C87.8661,53.8016 85.9164,52.994 85.2119,51.293ZM87.5199,51.6969C87.9611,51.7819 88.2188,51.4724 88.3081,51.2004C88.3414,51.0991 88.4154,50.9652 88.6234,50.8791C88.8314,50.7929 88.9783,50.8353 89.0735,50.8834C89.3293,51.0124 89.73,51.049 89.982,50.6771C90.2777,50.2402 89.9585,49.8041 89.782,49.7136L87.5952,48.3969L86.98,50.8743C86.9193,51.0627 87.0019,51.5972 87.5199,51.6969Z" style="fill:white;fill-rule:nonzero;"/>
                    </g>
                    <g id="Heart_Coin88">
                        <path d="M62.3223,42.9636C63.6242,41.6618 65.7345,41.6618 67.0364,42.9636C68.3381,44.2653 68.3381,46.376 67.0364,47.6777C65.7345,48.9795 63.624,48.9794 62.3223,47.6777C61.0205,46.3758 61.0205,44.2655 62.3223,42.9636ZM62.8324,45.2506C62.9227,45.6907 63.3073,45.8103 63.5928,45.7888C63.6991,45.7807 63.8511,45.7979 64.0103,45.957C64.1695,46.1162 64.1866,46.2682 64.1786,46.3746C64.1572,46.6602 64.2768,47.0444 64.7168,47.1349C65.2336,47.241 65.5144,46.7792 65.5304,46.5815L65.91,44.0573L63.3858,44.4369C63.1885,44.4529 62.7263,44.7337 62.8324,45.2506Z" style="fill:white;fill-rule:nonzero;"/>
                    </g>
                    <g id="Heart_Coin89">
                        <path d="M97.6777,17.0364C96.3758,18.3382 94.2655,18.3382 92.9636,17.0364C91.6619,15.7347 91.6619,13.624 92.9636,12.3223C94.2655,11.0205 96.376,11.0206 97.6777,12.3223C98.9795,13.6242 98.9795,15.7345 97.6777,17.0364ZM97.1676,14.7494C97.0773,14.3093 96.6927,14.1897 96.4072,14.2112C96.3009,14.2193 96.1489,14.2021 95.9897,14.043C95.8305,13.8838 95.8134,13.7318 95.8214,13.6254C95.8428,13.3398 95.7232,12.9556 95.2832,12.8651C94.7664,12.759 94.4856,13.2208 94.4696,13.4185L94.09,15.9427L96.6142,15.5631C96.8115,15.5471 97.2737,15.2663 97.1676,14.7494Z" style="fill:white;fill-rule:nonzero;"/>
                    </g>
                    <g id="Heart_Coin90">
                        <path d="M67.0364,12.3223C68.3382,13.6242 68.3382,15.7345 67.0364,17.0364C65.7347,18.3381 63.624,18.3381 62.3223,17.0364C61.0205,15.7345 61.0206,13.624 62.3223,12.3223C63.6242,11.0205 65.7345,11.0205 67.0364,12.3223ZM64.7494,12.8324C64.3093,12.9227 64.1897,13.3073 64.2112,13.5928C64.2193,13.6991 64.2021,13.8511 64.043,14.0103C63.8838,14.1695 63.7318,14.1866 63.6254,14.1786C63.3398,14.1572 62.9556,14.2768 62.8651,14.7168C62.759,15.2336 63.2208,15.5144 63.4185,15.5304L65.9427,15.91L65.5631,13.3858C65.5471,13.1885 65.2663,12.7263 64.7494,12.8324Z" style="fill:white;fill-rule:nonzero;"/>
                    </g>
                    <g id="Heart_Coin91">
                        <path d="M68.6289,48.7418C69.3335,47.0408 71.2832,46.2332 72.9841,46.9378C74.6849,47.6423 75.4926,49.5922 74.7881,51.293C74.0836,52.994 72.1337,53.8015 70.4329,53.097C68.7319,52.3924 67.9244,50.4427 68.6289,48.7418ZM69.9753,50.6594C70.2272,51.0315 70.6282,50.9948 70.8838,50.8657C70.979,50.8176 71.1259,50.7752 71.3339,50.8614C71.5419,50.9475 71.6159,51.0814 71.6492,51.1827C71.7387,51.4548 71.9962,51.764 72.4374,51.6793C72.9554,51.5795 73.0381,51.0453 72.9773,50.8566L72.3621,48.3792L70.1753,49.6959C69.9991,49.7863 69.6796,50.2226 69.9753,50.6594Z" style="fill:white;fill-rule:nonzero;"/>
                    </g>
                    <g id="Heart_Coin92">
                        <path d="M91.3711,11.2582C90.6665,12.9592 88.7168,13.7668 87.0159,13.0622C85.3151,12.3577 84.5074,10.4078 85.2119,8.707C85.9164,7.00603 87.8663,6.19853 89.5671,6.90301C91.2681,7.60757 92.0756,9.55726 91.3711,11.2582ZM90.0247,9.34056C89.7728,8.9685 89.3718,9.00517 89.1162,9.13432C89.021,9.18243 88.8741,9.22476 88.6661,9.13861C88.4581,9.05246 88.3841,8.91864 88.3508,8.81729C88.2613,8.54518 88.0038,8.23599 87.5626,8.32075C87.0446,8.42053 86.9619,8.95465 87.0227,9.14342L87.6379,11.6208L89.8247,10.3041C90.0009,10.2137 90.3204,9.77744 90.0247,9.34056Z" style="fill:white;fill-rule:nonzero;"/>
                    </g>
                    <g id="Heart_Coin93">
                        <path d="M61.2582,18.6289C62.9592,19.3335 63.7668,21.2832 63.0622,22.9841C62.3577,24.6849 60.4078,25.4926 58.707,24.7881C57.006,24.0836 56.1985,22.1337 56.903,20.4329C57.6076,18.7319 59.5573,17.9244 61.2582,18.6289ZM59.3406,19.9753C58.9685,20.2272 59.0052,20.6282 59.1343,20.8838C59.1824,20.979 59.2248,21.1259 59.1386,21.3339C59.0525,21.5419 58.9186,21.6159 58.8173,21.6492C58.5452,21.7387 58.236,21.9962 58.3207,22.4374C58.4205,22.9554 58.9547,23.0381 59.1434,22.9773L61.6208,22.3621L60.3041,20.1753C60.2137,19.9991 59.7774,19.6796 59.3406,19.9753Z" style="fill:white;fill-rule:nonzero;"/>
                    </g>
                    <g id="Heart_Coin94">
                        <path d="M101.667,33.3333C99.8256,33.3333 98.3333,31.8411 98.3333,30C98.3333,28.1591 99.8258,26.6667 101.667,26.6667C103.508,26.6667 105,28.1591 105,30C105,31.8411 103.508,33.3333 101.667,33.3333ZM102.923,31.3556C103.17,30.9804 102.983,30.624 102.766,30.4373C102.685,30.3678 102.59,30.2482 102.59,30.0231C102.59,29.798 102.685,29.6784 102.766,29.6089C102.983,29.422 103.17,29.0658 102.923,28.6907C102.633,28.2502 102.108,28.3782 101.956,28.5067L99.9031,30.0231L101.956,31.5396C102.107,31.6678 102.633,31.796 102.923,31.3556Z" style="fill:white;fill-rule:nonzero;"/>
                    </g>
                    <g id="Heart_Coin95">
                        <path d="M83.3333,8.33333C83.3333,10.1744 81.8411,11.6667 80,11.6667C78.1591,11.6667 76.6667,10.1742 76.6667,8.33333C76.6667,6.49222 78.1591,5 80,5C81.8411,5 83.3333,6.49222 83.3333,8.33333ZM81.3556,7.07689C80.9804,6.82956 80.624,7.01689 80.4373,7.234C80.3678,7.31489 80.2482,7.41022 80.0231,7.41022C79.798,7.41022 79.6784,7.31489 79.6089,7.234C79.422,7.01689 79.0658,6.82978 78.6907,7.07689C78.2502,7.36733 78.3782,7.89244 78.5067,8.04356L80.0231,10.0969L81.5396,8.04356C81.6678,7.89267 81.796,7.36733 81.3556,7.07689Z" style="fill:white;fill-rule:nonzero;"/>
                    </g>
                    <g id="Heart_Coin96">
                        <path d="M76.6667,51.6667C76.6667,49.8256 78.1589,48.3333 80,48.3333C81.8409,48.3333 83.3333,49.8258 83.3333,51.6667C83.3333,53.5078 81.8409,55 80,55C78.1589,55 76.6667,53.5078 76.6667,51.6667ZM78.6444,52.9231C79.0196,53.1704 79.376,52.9831 79.5627,52.766C79.6322,52.6851 79.7518,52.5898 79.9769,52.5898C80.202,52.5898 80.3216,52.6851 80.3911,52.766C80.578,52.9831 80.9342,53.1702 81.3093,52.9231C81.7498,52.6327 81.6218,52.1076 81.4933,51.9564L79.9769,49.9031L78.4604,51.9564C78.3322,52.1073 78.204,52.6327 78.6444,52.9231Z" style="fill:white;fill-rule:nonzero;"/>
                    </g>
                </g>
            </g>
        </g>
    </g>
</svg>
