<?xml version="1.0" standalone="no"?>
<!DOCTYPE svg PUBLIC "-//W3C//DTD SVG 1.1//EN" "http://www.w3.org/Graphics/SVG/1.1/DTD/svg11.dtd">
<svg width="160px" height="160px" version="1.1" xmlns="http://www.w3.org/2000/svg" xmlns:xlink="http://www.w3.org/1999/xlink" xml:space="preserve" style="fill-rule:evenodd;clip-rule:evenodd;stroke-linejoin:round;stroke-miterlimit:1.41421;">
    <g>
        <g id="67.5" opacity="0.5">
            <g id="Heart_Coin">
                <path d="M16.121,95.6356C21.2239,93.5219 27.0729,95.9447 29.1866,101.048C31.3001,106.15 28.8769,112 23.7747,114.113C18.6718,116.227 12.8225,113.804 10.709,108.701C8.59535,103.598 11.0181,97.7493 16.121,95.6356ZM14.9092,102.56C14.6543,103.883 15.5827,104.656 16.3988,104.924C16.7028,105.024 17.1043,105.246 17.3628,105.87C17.6212,106.494 17.4942,106.935 17.3499,107.221C16.9627,107.988 16.8531,109.19 17.9686,109.946C19.2793,110.833 20.5877,109.876 20.8591,109.346L24.8092,102.786L17.3772,100.94C16.8118,100.758 15.2085,101.006 14.9092,102.56Z" style="fill:white;fill-rule:nonzero;"/>
            </g>
            <g id="Heart_Coin1">
                <path d="M143.879,64.3644C138.776,66.4781 132.927,64.0553 130.813,58.9524C128.7,53.8501 131.123,48.0002 136.225,45.8868C141.328,43.7731 147.178,46.1965 149.291,51.2987C151.405,56.4016 148.982,62.2507 143.879,64.3644ZM145.091,57.4402C145.346,56.1166 144.417,55.3437 143.601,55.0756C143.297,54.9757 142.896,54.7538 142.637,54.1299C142.379,53.5059 142.506,53.0651 142.65,52.7795C143.037,52.0122 143.147,50.8101 142.031,50.0541C140.721,49.1668 139.412,50.1244 139.141,50.6539L135.191,57.2143L142.623,59.06C143.188,59.2421 144.791,58.9944 145.091,57.4402Z" style="fill:white;fill-rule:nonzero;"/>
            </g>
            <g id="Heart_Coin2">
                <path d="M64.3644,16.121C66.4781,21.2239 64.0553,27.0729 58.9524,29.1866C53.8501,31.3001 48.0002,28.8769 45.8868,23.7747C43.7731,18.6718 46.1965,12.8225 51.2987,10.709C56.4016,8.59535 62.2507,11.0181 64.3644,16.121ZM57.4402,14.9092C56.1166,14.6543 55.3437,15.5827 55.0756,16.3988C54.9757,16.7028 54.7538,17.1043 54.1299,17.3628C53.5059,17.6212 53.0651,17.4942 52.7795,17.3499C52.0122,16.9627 50.8101,16.8531 50.0541,17.9686C49.1668,19.2793 50.1244,20.5877 50.6539,20.8591L57.2143,24.8092L59.06,17.3772C59.2421,16.8118 58.9944,15.2085 57.4402,14.9092Z" style="fill:white;fill-rule:nonzero;"/>
            </g>
            <g id="Heart_Coin3">
                <path d="M95.6356,143.879C93.5219,138.776 95.9447,132.927 101.048,130.813C106.15,128.7 112,131.123 114.113,136.225C116.227,141.328 113.804,147.178 108.701,149.291C103.598,151.405 97.7493,148.982 95.6356,143.879ZM102.56,145.091C103.883,145.346 104.656,144.417 104.924,143.601C105.024,143.297 105.246,142.896 105.87,142.637C106.494,142.379 106.935,142.506 107.221,142.65C107.988,143.037 109.19,143.147 109.946,142.031C110.833,140.721 109.876,139.412 109.346,139.141L102.786,135.191L100.94,142.623C100.758,143.188 101.006,144.791 102.56,145.091Z" style="fill:white;fill-rule:nonzero;"/>
            </g>
        </g>
        <g id="45.0" opacity="0.5">
            <g id="Heart_Coin4">
                <path d="M26.967,118.891C30.8726,114.985 37.2035,114.985 41.1091,118.891C45.0142,122.796 45.0142,129.128 41.1091,133.033C37.2035,136.939 30.8721,136.938 26.967,133.033C23.0614,129.127 23.0614,122.796 26.967,118.891ZM28.4972,125.752C28.7682,127.072 29.9218,127.431 30.7783,127.366C31.0974,127.342 31.5533,127.394 32.0308,127.871C32.5084,128.349 32.5597,128.805 32.5357,129.124C32.4716,129.981 32.8303,131.133 34.1503,131.405C35.7007,131.723 36.5431,130.338 36.5912,129.744L37.7301,122.172L30.1575,123.311C29.5654,123.359 28.179,124.201 28.4972,125.752Z" style="fill:white;fill-rule:nonzero;"/>
            </g>
            <g id="Heart_Coin5">
                <path d="M133.033,41.1091C129.127,45.0147 122.796,45.0147 118.891,41.1091C114.986,37.204 114.986,30.8721 118.891,26.967C122.796,23.0614 129.128,23.0619 133.033,26.967C136.939,30.8726 136.939,37.2035 133.033,41.1091ZM131.503,34.2483C131.232,32.9279 130.078,32.5692 129.222,32.6337C128.903,32.6578 128.447,32.6064 127.969,32.1289C127.492,31.6513 127.44,31.1955 127.464,30.8763C127.528,30.0193 127.17,28.8668 125.85,28.5952C124.299,28.277 123.457,29.6625 123.409,30.2555L122.27,37.8282L129.843,36.6892C130.435,36.6412 131.821,35.7988 131.503,34.2483Z" style="fill:white;fill-rule:nonzero;"/>
            </g>
            <g id="Heart_Coin6">
                <path d="M41.1091,26.967C45.0147,30.8726 45.0147,37.2035 41.1091,41.1091C37.204,45.0142 30.8721,45.0142 26.967,41.1091C23.0614,37.2035 23.0619,30.8721 26.967,26.967C30.8726,23.0614 37.2035,23.0614 41.1091,26.967ZM34.2483,28.4972C32.9279,28.7682 32.5692,29.9218 32.6337,30.7783C32.6578,31.0974 32.6064,31.5533 32.1289,32.0308C31.6513,32.5084 31.1955,32.5597 30.8763,32.5357C30.0193,32.4716 28.8668,32.8303 28.5952,34.1503C28.277,35.7007 29.6625,36.5431 30.2555,36.5912L37.8282,37.7301L36.6892,30.1575C36.6412,29.5654 35.7988,28.179 34.2483,28.4972Z" style="fill:white;fill-rule:nonzero;"/>
            </g>
            <g id="Heart_Coin7">
                <path d="M118.891,133.033C114.985,129.127 114.985,122.796 118.891,118.891C122.796,114.986 129.128,114.986 133.033,118.891C136.939,122.796 136.938,129.128 133.033,133.033C129.127,136.939 122.796,136.939 118.891,133.033ZM125.752,131.503C127.072,131.232 127.431,130.078 127.366,129.222C127.342,128.903 127.394,128.447 127.871,127.969C128.349,127.492 128.805,127.44 129.124,127.464C129.981,127.528 131.133,127.17 131.405,125.85C131.723,124.299 130.338,123.457 129.744,123.409L122.172,122.27L123.311,129.843C123.359,130.435 124.201,131.821 125.752,131.503Z" style="fill:white;fill-rule:nonzero;"/>
            </g>
        </g>
        <g id="22.5" opacity="0.5">
            <g id="Heart_Coin8">
                <path d="M45.8868,136.225C48.0005,131.122 53.8495,128.7 58.9524,130.813C64.0547,132.927 66.4778,138.777 64.3644,143.879C62.2507,148.982 56.401,151.404 51.2987,149.291C46.1958,147.177 43.7731,141.328 45.8868,136.225ZM49.926,141.978C50.6817,143.094 51.8847,142.984 52.6514,142.597C52.937,142.453 53.3778,142.326 54.0017,142.584C54.6257,142.843 54.8476,143.244 54.9475,143.548C55.2162,144.364 55.9887,145.292 57.3121,145.038C58.8663,144.738 59.1144,143.136 58.9319,142.57L57.0862,135.138L50.5258,139.088C49.9972,139.359 49.0387,140.668 49.926,141.978Z" style="fill:white;fill-rule:nonzero;"/>
            </g>
            <g id="Heart_Coin9">
                <path d="M114.113,23.7747C112,28.8776 106.15,31.3003 101.048,29.1866C95.9453,27.0732 93.5222,21.2233 95.6356,16.121C97.7493,11.0181 103.599,8.5956 108.701,10.709C113.804,12.8227 116.227,18.6718 114.113,23.7747ZM110.074,18.0217C109.318,16.9055 108.115,17.0155 107.349,17.403C107.063,17.5473 106.622,17.6743 105.998,17.4158C105.374,17.1574 105.152,16.7559 105.052,16.4519C104.784,15.6355 104.011,14.708 102.688,14.9622C101.134,15.2616 100.886,16.864 101.068,17.4302L102.914,24.8623L109.474,20.9122C110.003,20.6412 110.961,19.3323 110.074,18.0217Z" style="fill:white;fill-rule:nonzero;"/>
            </g>
            <g id="Heart_Coin10">
                <path d="M23.7747,45.8868C28.8776,48.0005 31.3003,53.8495 29.1866,58.9524C27.0732,64.0547 21.2233,66.4778 16.121,64.3644C11.0181,62.2507 8.5956,56.401 10.709,51.2987C12.8227,46.1958 18.6718,43.7731 23.7747,45.8868ZM18.0217,49.926C16.9055,50.6817 17.0155,51.8847 17.403,52.6514C17.5473,52.937 17.6743,53.3778 17.4158,54.0017C17.1574,54.6257 16.7559,54.8476 16.4519,54.9475C15.6355,55.2162 14.708,55.9887 14.9622,57.3121C15.2616,58.8663 16.864,59.1144 17.4302,58.9319L24.8623,57.0862L20.9122,50.5258C20.6412,49.9972 19.3323,49.0387 18.0217,49.926Z" style="fill:white;fill-rule:nonzero;"/>
            </g>
            <g id="Heart_Coin11">
                <path d="M136.225,114.113C131.122,112 128.7,106.15 130.813,101.048C132.927,95.9453 138.777,93.5222 143.879,95.6356C148.982,97.7493 151.404,103.599 149.291,108.701C147.177,113.804 141.328,116.227 136.225,114.113ZM141.978,110.074C143.094,109.318 142.984,108.115 142.597,107.349C142.453,107.063 142.326,106.622 142.584,105.998C142.843,105.374 143.244,105.152 143.548,105.052C144.364,104.784 145.292,104.011 145.038,102.688C144.738,101.134 143.136,100.886 142.57,101.068L135.138,102.914L139.088,109.474C139.359,110.003 140.668,110.961 141.978,110.074Z" style="fill:white;fill-rule:nonzero;"/>
            </g>
        </g>
        <g id="00.0" opacity="0.5">
            <g id="Heart_Coin12">
                <path d="M15,70C20.5233,70 25,74.4767 25,80C25,85.5227 20.5227,90 15,90C9.47667,90 5,85.5227 5,80C5,74.4767 9.47667,70 15,70ZM11.2307,75.9333C10.4887,77.0587 11.0507,78.128 11.702,78.688C11.9447,78.8967 12.2307,79.2553 12.2307,79.9307C12.2307,80.606 11.9447,80.9647 11.702,81.1733C11.0507,81.734 10.4893,82.8027 11.2307,83.928C12.102,85.2493 13.6773,84.8653 14.1307,84.48L20.2907,79.9307L14.1307,75.3813C13.678,74.9967 12.102,74.612 11.2307,75.9333Z" style="fill:white;fill-rule:nonzero;"/>
            </g>
            <g id="Heart_Coin13">
                <path d="M145,90C139.477,90 135,85.5233 135,80C135,74.4773 139.477,70 145,70C150.523,70 155,74.4773 155,80C155,85.5233 150.523,90 145,90ZM148.769,84.0667C149.511,82.9413 148.949,81.872 148.298,81.312C148.055,81.1033 147.769,80.7447 147.769,80.0693C147.769,79.394 148.055,79.0353 148.298,78.8267C148.949,78.266 149.511,77.1973 148.769,76.072C147.898,74.7507 146.323,75.1347 145.869,75.52L139.709,80.0693L145.869,84.6187C146.322,85.0033 147.898,85.388 148.769,84.0667Z" style="fill:white;fill-rule:nonzero;"/>
            </g>
            <g id="Heart_Coin14">
                <path d="M90,15C90,20.5233 85.5233,25 80,25C74.4773,25 70,20.5227 70,15C70,9.47667 74.4773,5 80,5C85.5233,5 90,9.47667 90,15ZM84.0667,11.2307C82.9413,10.4887 81.872,11.0507 81.312,11.702C81.1033,11.9447 80.7447,12.2307 80.0693,12.2307C79.394,12.2307 79.0353,11.9447 78.8267,11.702C78.266,11.0507 77.1973,10.4893 76.072,11.2307C74.7507,12.102 75.1347,13.6773 75.52,14.1307L80.0693,20.2907L84.6187,14.1307C85.0033,13.678 85.388,12.102 84.0667,11.2307Z" style="fill:white;fill-rule:nonzero;"/>
            </g>
            <g id="Heart_Coin15">
                <path d="M70,145C70,139.477 74.4767,135 80,135C85.5227,135 90,139.477 90,145C90,150.523 85.5227,155 80,155C74.4767,155 70,150.523 70,145ZM75.9333,148.769C77.0587,149.511 78.128,148.949 78.688,148.298C78.8967,148.055 79.2553,147.769 79.9307,147.769C80.606,147.769 80.9647,148.055 81.1733,148.298C81.734,148.949 82.8027,149.511 83.928,148.769C85.2493,147.898 84.8653,146.323 84.48,145.869L79.9307,139.709L75.3813,145.869C74.9967,146.322 74.612,147.898 75.9333,148.769Z" style="fill:white;fill-rule:nonzero;"/>
            </g>
        </g>
    </g>
</svg>
