<?xml version="1.0" encoding="utf-8"?>
<!-- Generator: Adobe Illustrator 17.0.0, SVG Export Plug-In . SVG Version: 6.00 Build 0)  -->
<!DOCTYPE svg PUBLIC "-//W3C//DTD SVG 1.0//EN" "http://www.w3.org/TR/2001/REC-SVG-20010904/DTD/svg10.dtd">
<svg version="1.0" xmlns="http://www.w3.org/2000/svg" xmlns:xlink="http://www.w3.org/1999/xlink" x="0px" y="0px" width="124px"
	 height="40px" viewBox="0 0 124 40" enable-background="new 0 0 124 40" xml:space="preserve">
<g id="Background" display="none">
	<rect display="inline" fill="#359113" width="124" height="40"/>
</g>
<g id="Wordmark">
	<path id="Heart_Coin" fill="#663300" d="M34.999,20c0,8.285-6.714,15-15,15C11.716,35,5,28.284,5,20c0-8.284,6.716-15,14.999-15
		C28.285,5,34.999,11.715,34.999,20z M26.1,14.346c-1.688-1.113-3.292-0.27-4.132,0.707c-0.314,0.364-0.851,0.793-1.865,0.793
		c-1.014,0-1.551-0.429-1.864-0.793c-0.84-0.977-2.444-1.819-4.132-0.707c-1.982,1.307-1.406,3.67-0.828,4.35l6.824,9.24l0,0l0,0
		l0,0l0,0l6.825-9.24C27.505,18.017,28.081,15.653,26.1,14.346z"/>
	<g id="Gratipay">
		<path fill="#454545" d="M46.914,25.447c-4.195,0-6.914-2.827-6.914-6.572c0-4.051,3.079-7.094,7.274-7.094
			c1.908,0,3.547,0.666,4.447,1.296L50.93,15.67c-0.774-0.594-2.197-1.17-3.638-1.17c-2.538,0-4.068,1.747-4.068,4.141
			c0,2.736,1.836,4.178,3.961,4.178c0.72,0,1.332-0.108,1.891-0.324v-1.387c0-0.234,0-0.756-0.036-1.044
			c-0.612-0.018-0.396-0.018-1.026-0.018c-0.648,0-1.152,0.018-1.837,0.054c0.055-0.954,0.072-1.71,0.036-2.413
			c1.135,0.054,1.692,0.072,2.521,0.072c1.477,0,2.071-0.018,3.331-0.072c-0.09,0.738-0.144,3.331-0.144,4.537v1.909
			C50.821,24.78,49.309,25.447,46.914,25.447z"/>
		<path fill="#454545" d="M60.9,18.352c-1.585-0.198-3.188,0.27-3.188,2.017v2.719c0,0.702,0.019,1.531,0.072,2.053h-3.475
			c0.107-0.864,0.126-2.232,0.126-3.402v-3.025c0-1.152-0.055-2.179-0.162-3.025c0.666-0.018,2.664-0.27,3.259-0.36l0.162,2.305
			c0.612-1.386,1.729-2.25,3.438-2.413L60.9,18.352z"/>
		<path fill="#454545" d="M64.696,25.392c-1.782,0-2.916-1.008-2.916-2.664c0-1.928,1.638-3.224,4.933-3.224
			c0.217,0,0.469,0.018,0.757,0.036v-0.27c0.036-0.972-0.396-1.495-1.585-1.495c-1.08,0-2.232,0.414-2.971,0.882L62.5,16.318
			c1.044-0.63,2.557-1.098,4.069-1.098c2.845,0,4.087,1.314,4.033,3.907l-0.09,3.402c-0.019,0.559,0.162,0.721,0.576,0.721
			c0.162,0,0.378-0.036,0.558-0.107l-0.144,1.908c-0.559,0.197-1.045,0.324-1.711,0.324c-1.062,0-1.891-0.433-2.16-1.566
			C67.092,24.78,65.921,25.392,64.696,25.392z M67.397,21.828l0.036-0.9c-0.198-0.019-0.378-0.036-0.612-0.036
			c-1.458,0-2.034,0.63-2.034,1.404c0,0.685,0.396,1.171,1.152,1.171C66.768,23.467,67.361,22.872,67.397,21.828z"/>
		<path fill="#454545" d="M79.512,24.906c-0.612,0.342-1.494,0.559-2.341,0.559c-2.088,0-3.312-0.828-3.312-3.403V17.74H72.22
			l0.469-2.269h1.206l0.198-1.98l3.043-1.026v3.007h2.448c-0.036,0.432-0.054,1.548-0.054,2.269h-2.395v3.961
			c0,1.009,0.378,1.261,1.008,1.261c0.504,0,1.026-0.181,1.423-0.433L79.512,24.906z"/>
		<path fill="#454545" d="M83.093,13.833c-1.045,0-1.837-0.684-1.837-1.638c0-1.044,0.847-1.765,1.891-1.765
			c1.009,0,1.837,0.702,1.837,1.657C84.983,13.131,84.137,13.833,83.093,13.833z M81.256,25.14c0.09-0.864,0.145-2.106,0.145-3.277
			V18.91c0-1.152-0.055-2.521-0.145-3.385c0.721,0,2.899-0.126,3.493-0.18c-0.054,0.522-0.072,1.44-0.072,2.143v5.708
			c0,0.702,0.019,1.423,0.072,1.944H81.256z"/>
		<path fill="#454545" d="M92.651,25.501c-0.937,0-1.603-0.216-2.16-0.576v2.448c0,0.666,0.018,1.351,0.071,1.854
			c-0.396,0.036-3.15,0.271-3.475,0.343c0.09-0.847,0.108-2.161,0.108-3.313v-7.274c0-1.152-0.036-2.449-0.145-3.349
			c0.721,0,2.557-0.18,3.169-0.27l0.126,1.242c0.721-0.792,1.675-1.386,2.917-1.386c2.557,0,4.052,2.269,4.052,4.771
			C97.315,23.267,95.101,25.501,92.651,25.501z M92.075,17.56c-0.666,0-1.206,0.36-1.584,0.864v4.159
			c0.378,0.359,0.828,0.594,1.584,0.594c1.225,0,1.98-1.332,1.98-2.898C94.056,18.406,93.191,17.56,92.075,17.56z"/>
		<path fill="#454545" d="M101.452,25.392c-1.782,0-2.916-1.008-2.916-2.664c0-1.928,1.638-3.224,4.933-3.224
			c0.217,0,0.469,0.018,0.757,0.036v-0.27c0.036-0.972-0.396-1.495-1.585-1.495c-1.08,0-2.232,0.414-2.971,0.882l-0.414-2.341
			c1.044-0.63,2.557-1.098,4.069-1.098c2.845,0,4.087,1.314,4.033,3.907l-0.09,3.402c-0.019,0.559,0.162,0.721,0.576,0.721
			c0.162,0,0.378-0.036,0.558-0.107l-0.144,1.908c-0.559,0.197-1.045,0.324-1.711,0.324c-1.062,0-1.891-0.433-2.16-1.566
			C103.848,24.78,102.677,25.392,101.452,25.392z M104.153,21.828l0.036-0.9c-0.198-0.019-0.378-0.036-0.612-0.036
			c-1.458,0-2.034,0.63-2.034,1.404c0,0.685,0.396,1.171,1.152,1.171C103.523,23.467,104.117,22.872,104.153,21.828z"/>
		<path fill="#454545" d="M112.324,24.33c-0.324-0.828-0.54-1.387-0.973-2.377l-1.134-2.592c-0.504-1.17-1.242-2.863-1.692-3.745
			c0.378,0,3.061-0.18,3.366-0.216l2.071,5.744l0.792-2.449c0.36-1.081,0.774-2.341,1.062-3.169c1.206,0,2.269,0,3.241-0.072
			l-4.088,9.994c-0.288,0.738-1.134,2.881-1.458,3.889c-1.135,0-2.431,0.036-3.385,0.144L112.324,24.33z"/>
	</g>
</g>
</svg>
