<svg viewBox="0 0 63.27 63.27" xmlns="http://www.w3.org/2000/svg" xmlns:xlink="http://www.w3.org/1999/xlink"><linearGradient id="a" gradientUnits="userSpaceOnUse" x1="64.010002" x2="32.990002" y1="30.27" y2="54.48"><stop offset=".18" stop-color="#0052cc"/><stop offset="1" stop-color="#2684ff"/></linearGradient><g transform="translate(0 -2.689999)"><path d="m24.7 43.51h13.05l3.15-18.39h-19.67z" fill="none"/><path d="m2.4500002 6.26a2 2 0 0 0 -1.99999997 2.32l8.48999997 51.54a2.72 2.72 0 0 0 2.6599998 2.27h40.73a2 2 0 0 0 2-1.68l8.49-52.12a2 2 0 0 0 -2-2.32zm35.7499998 37.25h-13l-3.52-18.39h19.67z" fill="#2684ff"/><path d="m59.67 25.12h-18.77l-3.15 18.39h-13l-15.35 18.22a2.71 2.71 0 0 0 1.75.66h40.74a2 2 0 0 0 2-1.68z" fill="url(#a)"/></g></svg>
