<svg viewBox="0 0 32 32" xmlns="http://www.w3.org/2000/svg"><path d="m31.4618 12.7787-.0448-.1146-4.3503-11.35102c-.0884-.22262-.2449-.41163-.447-.540052-.2037-.128552-.4422-.19072-.6827-.177921s-.4711.099932-.66.249374c-.1871.150032-.322.355319-.3855.586579l-2.9412 9.00134h-11.8994l-2.94114-9.00134c-.06351-.23126-.19843-.436547-.38551-.586579-.18807-.150446-.41853-.238235-.65902-.25105-.2405-.012815-.47898.049989-.68197.179597-.20303.127896-.36014.317022-.44866.540052l-4.355286 11.36592-.044866.113c-.6252016 1.637-.702052 3.4327-.218996 5.1171s1.499908 3.1665 2.897638 4.2233l.01662.0116.03822.0299 6.63513 4.9668 3.28014 2.4843 1.9941 1.5104c.2342.177.5198.2728.8134.2728.2935 0 .5791-.0958.8134-.2728l1.994-1.5104 3.2818-2.4843 6.6734-4.9967.0182-.0133c1.4025-1.0558 2.4234-2.5391 2.9087-4.2262.4854-1.687.4087-3.4861-.2184-5.1258z" fill="#e24329"/><path d="m31.462 12.7787-.0448-.1146c-2.1217.4372-4.121 1.3364-5.8558 2.6337l-9.5531 7.24c3.2569 2.4627 6.0918 4.6029 6.0918 4.6029l6.6733-4.9967.0183-.0133c1.399-1.0584 2.4159-2.543 2.8976-4.2298.4817-1.6869.4019-3.4846-.2273-5.1222z" fill="#fc6d26"/><path d="m9.9082 27.1407 3.2752 2.4843 1.994 1.5104c.2343.177.5198.2728.8134.2728s.5792-.0958.8134-.2728l1.994-1.5104 3.2819-2.4843s-2.8349-2.1402-6.0918-4.6029z" fill="#fca326"/><path d="m6.43513 15.3045c-1.73437-1.2978-3.7339-2.1965-5.855797-2.6321l-.044866.113c-.6268073 1.6378-.704503 3.4349-.221388 5.1207s1.500881 3.169 2.900031 4.2263l.01662.0116.03822.0299 6.63512 4.9668 6.10503-4.6029z" fill="#fc6d26"/></svg>
