<svg viewBox="0 0 234.667 234.667" xmlns="http://www.w3.org/2000/svg"><g transform="matrix(.13333333 0 0 -.13333333 0 200.000172)"><path d="m1723.22 1046.37c-20.24 76.22-79.87 136.24-155.6 156.61-137.25 37.02-687.62 37.02-687.62 37.02s-550.367 0-687.621-37.02c-75.723-20.37-135.3634-80.39-155.6017-156.61-36.7773-138.143-36.7773-426.37-36.7773-426.37s0-288.223 36.7773-426.379c20.2383-76.211 79.8787-136.2304 155.6017-156.6093 137.254-37.0117 687.621-37.0117 687.621-37.0117s550.37 0 687.62 37.0117c75.73 20.3789 135.36 80.3983 155.6 156.6093 36.78 138.156 36.78 426.379 36.78 426.379s0 288.227-36.78 426.37" fill="#ed1d24"/><path d="m700 358.313 460 261.675-460 261.7z" fill="#fff"/></g></svg>
