<svg xmlns="http://www.w3.org/2000/svg" width="80" height="80" viewBox="0 0 64 64"><path d="m20.32 52.35h22.21v6.691h-32.617v-53.664h10.41"/><path d="m54.14 17.594c0 3.414-.59 6.04-1.766 7.883-1.164 1.828-2.676 3.043-4.531 3.637-1.844.594-4.04.895-6.574.895h-7.301v17.11h-8.06v-41.566h16.285c3.73 0 6.633.879 8.711 2.633 2.082 1.758 3.16 4.895 3.234 9.406m-7.617-.262c-.035-2.102-.539-3.73-1.504-4.875-.953-1.148-2.203-1.719-3.75-1.719h-7.301v14.172h7.078c1.805 0 3.168-.543 4.086-1.633.926-1.09 1.391-3.07 1.391-5.945"/></svg>