<svg height="35mm" viewBox="0 0 283.46457 124.01575" width="80mm" xmlns="http://www.w3.org/2000/svg"><rect fill="#f6c915" height="100%" width="100%" /><g fill="#1a171b"><g transform="matrix(1.5451665 0 0 1.5451665 -536.716628 -207.66593)"><path d="m410.269 182.212-.664 2.814h-11.498l4.408-18.401h3.346l-3.733 15.587z"/><path d="m415.393 185.026h-3.213l3.347-13.887h3.212zm2.391-15.984c-.479 0-.896-.141-1.249-.425-.354-.283-.531-.708-.531-1.274 0-.655.226-1.195.677-1.62s.97-.637 1.554-.637c.479 0 .898.146 1.262.438.362.292.545.722.545 1.288 0 .656-.23 1.191-.69 1.606-.461.415-.985.624-1.568.624z"/><path d="m428.489 170.821c.813 0 1.516.137 2.106.411.593.275 1.084.65 1.474 1.128.389.478.681 1.04.875 1.687s.291 1.34.291 2.084c0 1.221-.211 2.39-.638 3.505-.424 1.115-1.03 2.098-1.817 2.947-.787.85-1.749 1.527-2.882 2.032-1.133.504-2.407.757-3.823.757-.212 0-.496-.01-.849-.027-.355-.018-.743-.063-1.17-.133-.424-.07-.858-.168-1.301-.292s-.85-.283-1.221-.478l4.647-19.49 3.362-.531-1.707 7.117c.388-.195.803-.363 1.246-.505.443-.141.911-.212 1.407-.212zm-3.988 11.843c.813 0 1.562-.173 2.243-.518s1.265-.81 1.752-1.394c.485-.585.862-1.252 1.129-2.005.266-.751.398-1.536.398-2.35 0-.407-.037-.783-.105-1.128-.071-.345-.194-.646-.371-.902-.178-.257-.416-.461-.717-.61-.3-.15-.679-.227-1.138-.227-.389 0-.813.071-1.272.213s-.882.363-1.271.664l-1.95 8.125c.159.035.339.066.544.093.203.025.456.039.758.039z"/><path d="m435.147 180.007c0-1.185.19-2.331.571-3.438.38-1.106.929-2.088 1.646-2.948.716-.858 1.58-1.543 2.588-2.058 1.01-.513 2.142-.77 3.399-.77 1.345 0 2.39.345 3.134 1.036.743.689 1.114 1.575 1.114 2.655 0 1.115-.274 2.018-.822 2.708-.549.69-1.261 1.23-2.138 1.62-.876.39-1.868.655-2.975.797-1.106.142-2.227.23-3.358.265-.018.036-.027.071-.027.107v.265c0 1.61 1.02 2.417 3.055 2.417 1.204 0 2.406-.248 3.609-.744l.268 2.603c-.426.195-1.028.389-1.806.585-.78.194-1.665.292-2.655.292-.991 0-1.843-.143-2.549-.425-.709-.283-1.289-.672-1.74-1.167-.451-.496-.783-1.067-.995-1.714s-.319-1.341-.319-2.086zm7.728-6.584c-.53 0-1.035.105-1.514.318-.479.212-.903.505-1.274.876-.372.372-.695.81-.97 1.314s-.474 1.048-.597 1.633c2.124-.071 3.668-.328 4.633-.77.965-.443 1.447-1.106 1.447-1.992 0-.354-.128-.672-.386-.956-.254-.282-.702-.423-1.339-.423z"/><path d="m458.673 173.98c-.354-.124-.735-.221-1.146-.292-.406-.07-.887-.106-1.438-.106-.303 0-.621.022-.96.066-.337.045-.621.102-.853.172l-2.667 11.206h-3.212l3.187-13.25c.743-.248 1.548-.464 2.416-.65.866-.186 1.805-.279 2.813-.279.213 0 .452.014.719.041.264.025.524.057.783.092.255.036.494.08.716.132.222.054.412.116.57.186z"/><path d="m470.941 179.637c-.054.195-.107.513-.159.956-.054.443-.079.858-.079 1.248 0 .514.044 1.013.131 1.5.091.487.23.978.427 1.473l-2.869.425c-.212-.425-.381-.877-.504-1.354-.442.389-.986.74-1.633 1.049s-1.377.464-2.191.464c-.832 0-1.545-.137-2.138-.412-.592-.274-1.075-.654-1.446-1.142-.372-.486-.647-1.057-.823-1.712-.178-.655-.265-1.363-.265-2.125 0-1.291.23-2.496.69-3.611.459-1.115 1.101-2.079 1.924-2.894.824-.814 1.802-1.456 2.935-1.925 1.132-.469 2.372-.703 3.718-.703.69 0 1.384.058 2.083.173s1.404.332 2.111.65zm-1.747-6.002c-.337-.07-.716-.106-1.143-.106-.797 0-1.532.173-2.207.518-.674.346-1.253.806-1.74 1.38-.486.576-.863 1.234-1.128 1.979-.267.743-.399 1.522-.399 2.336 0 .408.034.789.107 1.142.07.354.188.664.356.929s.395.478.678.637c.282.159.646.24 1.088.24.567 0 1.066-.121 1.502-.359.433-.24.837-.562 1.208-.969.017-.461.057-.894.12-1.301.062-.407.146-.814.251-1.221z"/><path d="m483.023 166.439c2.213 0 3.906.435 5.084 1.301 1.176.868 1.766 2.107 1.766 3.718 0 1.274-.244 2.359-.73 3.253-.487.894-1.161 1.624-2.021 2.19-.858.566-1.886.978-3.082 1.234-1.196.257-2.512.386-3.945.386h-1.437l-1.553 6.505h-3.349l4.327-18.135c.85-.177 1.7-.296 2.549-.359.85-.061 1.647-.093 2.391-.093zm-.319 2.815c-.336 0-.654.009-.955.026-.302.018-.604.044-.903.079l-1.487 6.346h1.349c.741 0 1.454-.062 2.143-.185.688-.124 1.297-.332 1.826-.625.529-.292.952-.689 1.271-1.194.317-.505.476-1.146.476-1.925 0-.902-.332-1.549-.995-1.938-.667-.389-1.575-.584-2.725-.584z"/><path d="m501.822 179.637c-.054.195-.107.513-.16.956-.052.443-.079.858-.079 1.248 0 .514.045 1.013.132 1.5.09.487.23.978.427 1.473l-2.869.425c-.212-.425-.381-.877-.505-1.354-.44.389-.985.74-1.632 1.049s-1.377.464-2.191.464c-.832 0-1.545-.137-2.137-.412-.593-.274-1.075-.654-1.447-1.142-.372-.486-.647-1.057-.823-1.712-.179-.655-.266-1.363-.266-2.125 0-1.291.231-2.496.691-3.611.459-1.115 1.101-2.079 1.924-2.894.824-.814 1.802-1.456 2.935-1.925 1.132-.469 2.372-.703 3.718-.703.69 0 1.384.058 2.083.173s1.404.332 2.111.65zm-1.747-6.002c-.337-.07-.716-.106-1.143-.106-.798 0-1.532.173-2.207.518-.673.346-1.253.806-1.74 1.38-.486.576-.863 1.234-1.128 1.979-.267.743-.399 1.522-.399 2.336 0 .408.033.789.107 1.142.07.354.188.664.356.929s.395.478.679.637c.281.159.646.24 1.087.24.567 0 1.066-.121 1.502-.359.433-.24.837-.562 1.208-.969.017-.461.057-.894.12-1.301.062-.407.146-.814.25-1.221z"/><path d="m518.073 171.139c-.354 1.009-.745 2.058-1.171 3.146-.427 1.088-.901 2.182-1.425 3.28-.523 1.097-1.088 2.19-1.691 3.279-.602 1.088-1.249 2.147-1.941 3.173-.515.78-1.046 1.527-1.596 2.244-.551.718-1.147 1.35-1.794 1.898-.647.549-1.36.992-2.139 1.328-.781.336-1.668.505-2.658.505-.551 0-1.042-.063-1.478-.186-.433-.125-.801-.265-1.104-.425l1.036-2.576c.249.141.528.256.837.346.31.088.65.132 1.022.132.833 0 1.563-.217 2.192-.65.628-.434 1.198-1.023 1.712-1.766-.567-1.965-1.044-4.098-1.435-6.399s-.646-4.744-.772-7.329h3.242c.018.743.057 1.566.12 2.47.063.902.143 1.828.243 2.774.098.948.218 1.881.362 2.802.143.919.303 1.77.481 2.549.534-.85 1.031-1.744 1.491-2.683.462-.938.888-1.872 1.279-2.801.39-.929.732-1.833 1.025-2.708.292-.877.545-1.677.759-2.403z"/></g><g transform="matrix(1.1557619 0 0 1.1557619 -378.157334 -140.795448)"><path d="m354.338 189.396c-2.479 0-4.424-.322-5.837-.969-1.415-.646-2.427-1.526-3.037-2.644-.61-1.116-.906-2.399-.89-3.848.017-1.448.217-2.992.602-4.632l6.649-27.8 8.114-1.257-7.278 30.156c-.138.628-.217 1.205-.233 1.728-.019.523.078.986.287 1.387.209.402.566.725 1.072.969.505.245 1.214.402 2.122.471z"/><path d="m383.654 172.067c0 2.548-.418 4.877-1.256 6.989s-1.997 3.936-3.481 5.471c-1.483 1.537-3.263 2.731-5.341 3.586-2.075.855-4.337 1.283-6.779 1.283-1.187 0-2.372-.104-3.56-.314l-2.355 9.476h-7.748l8.69-36.229c1.396-.418 2.992-.793 4.79-1.125 1.797-.332 3.743-.498 5.837-.498 1.955 0 3.64.297 5.053.89 1.413.594 2.574 1.405 3.481 2.435.906 1.029 1.578 2.234 2.015 3.612.438 1.379.654 2.854.654 4.424zm-19.002 10.732c.592.14 1.324.209 2.198.209 1.361 0 2.599-.253 3.717-.759 1.117-.506 2.068-1.212 2.852-2.12.787-.908 1.397-1.998 1.834-3.272.435-1.273.654-2.678.654-4.214 0-1.5-.332-2.775-.994-3.822-.664-1.047-1.817-1.571-3.456-1.571-1.117 0-2.164.104-3.142.314z"/></g></g></svg>
