<svg xmlns="http://www.w3.org/2000/svg" width="50" height="24" viewBox="0 0 50 24"><title>American Express</title><g fill="none" fill-rule="evenodd"><path fill="#017ECD" fill-rule="nonzero" d="M25.45 11.51v-1.28c0-.5-.5-.99-1-.99h-1.4v2.27h-1.51V5.1h3.7c.9-.1 1.8.5 1.9 1.38v.5c0 .59-.3 1.18-.9 1.47.5.3.8.9.7 1.48v1.58h-1.5zm-2.5-3.75h1.6c.3.1.7-.1.8-.4.1-.29-.1-.68-.4-.78h-2v1.18zm21.33 3.75l-2.4-4.34v4.34h-3.01l-.5-1.38h-2.8l-.5 1.38h-3.21s-2-.3-2-3.06c0-3.35 1.7-3.45 2.4-3.45h1.9v1.48h-1.5c-.7.1-1.2.7-1.1 1.38v.5c0 2.17 2.6 1.48 2.7 1.48L36.16 5h2.1l2.31 5.82V5.1h2.1l2.41 4.24V5.1h1.5v6.51l-2.3-.1zm-8.01-2.96h1.5l-.7-1.87-.8 1.87zm-22.75 2.96V7.07l-1.9 4.44h-1.2l-1.9-4.44v4.44H5.5l-.5-1.38H2.2l-.5 1.38H0L2.5 5h2.1l2.31 5.92V5.1h2.4l1.71 4.04 1.7-4.04h2.4v6.51l-1.6-.1zM2.81 8.55h1.5l-.7-1.87-.8 1.87zm13.12 2.96V5.1h4.7v1.48h-3.2v.99h3.1v1.48h-3.1v1.08h3.2v1.38h-4.7zm11.82.1V5.1h1.5v6.51h-1.5zm3.3 8.3v-1.3c0-.58-.5-.98-1.1-.98h-1.6v2.27h-1.6V13.5h3.9c1-.2 1.9.49 2 1.48v.4c0 .58-.3 1.18-.9 1.47.5.3.8.89.8 1.48v1.58h-1.5zm-2.6-3.76h1.7c.3.1.7-.1.8-.4.1-.29-.1-.68-.4-.78a.3.3 0 0 0-.4 0h-1.7v1.18zm-8.11 3.75h-1.4l-1.7-1.87-1.71 1.87H9.52V13.5h5.9l1.81 2.07 1.9-2.07h5.11c1-.1 1.9.49 2 1.48v.4c0 1.87-.7 2.46-2.8 2.46h-1.6v2.07h-1.5zm-2-3.16l2 2.27v-4.44l-2 2.17zm-7.22 1.78h3.4l1.6-1.78-1.6-1.77h-3.4v.98h3.3v1.48h-3.3v1.09zm10.82-2.37h1.7c.3.1.7-.1.8-.4.1-.29-.1-.68-.4-.78a.3.3 0 0 0-.4 0h-1.7v1.18zm20.14 3.75h-2.9v-1.48h2.5s.9.1.9-.5c0-.58-1.4-.49-1.4-.49-1.1.2-2-.59-2.2-1.57v-.3c-.11-.99.7-1.88 1.7-1.97h3.4v1.38h-2.5s-.9-.2-.9.5c0 .48 1.2.48 1.2.48s2.5-.2 2.5 1.78c.1 1.09-.6 2.07-1.8 2.27h-.4l-.1-.1zm-8.62 0V13.5h5.01v1.48h-3.4v.98h3.3v1.48h-3.3v1.09h3.4v1.38h-5zm14.23 0h-2.9v-1.48h2.5s.9.1.9-.5c0-.58-1.4-.49-1.4-.49-1.1.2-2-.59-2.2-1.67v-.3c-.1-.99.7-1.87 1.7-1.97h3.4v1.48h-2.5s-.9-.2-.9.5c0 .48 1.2.48 1.2.48s2.5-.2 2.5 1.78c.1 1.09-.6 2.07-1.8 2.27h-.4c0-.1 0-.1-.1-.1z"/><path d="M0 0h50v24H0z"/></g></svg>
