<svg xmlns="http://www.w3.org/2000/svg" width="34" height="24"><defs><linearGradient id="a" x1="0%" y1="74.913%" y2="25.087%"><stop offset="0%" stop-color="#00A26C"/><stop offset="48.682%" stop-color="#007DB5"/><stop offset="100%" stop-color="#003877"/></linearGradient></defs><g fill="none" fill-rule="evenodd"><rect width="34" height="24" fill="url(#a)" rx="3.882"/><path fill="#FFFFFE" d="M10.817 6c4.06 0 6.64 2.212 6.808 5.64H11.03v.707h6.595C17.466 15.774 14.908 18 10.817 18 6.732 18 4 15.747 4 12c0-3.633 2.627-6 6.817-6zM26.7 12.347c.62 0 1.11.055 1.47.164.359.11.69.304.99.58.273.251.48.54.621.864.146.343.219.693.219 1.049s-.073.705-.219 1.048a2.53 2.53 0 0 1-.621.863c-.3.277-.631.47-.99.58-.36.11-.85.165-1.47.165h-8.325v-5.313zm0-6.007c.62 0 1.11.054 1.47.164.359.11.69.302.99.579.273.25.48.537.621.86.146.343.219.691.219 1.046 0 .355-.073.704-.219 1.046a2.523 2.523 0 0 1-.621.861c-.3.276-.631.47-.99.579-.36.11-.85.164-1.47.164h-8.325v-5.3z"/><path d="M0 0h34v24H0z"/></g></svg>
