<svg xmlns="http://www.w3.org/2000/svg" width="55" height="24" viewBox="0 0 55 24"><title>Discover</title><g fill="none" fill-rule="evenodd"><path fill="#0A2540" fill-rule="nonzero" d="M16.78 11.7c0-2.6 2-4.7 4.6-4.5.7 0 1.5.1 2.1.5v2c-.5-.6-1.3-1-2.1-1-1.6.1-2.9 1.5-2.8 3.1v.2c0 1.6 1.3 2.8 2.9 2.8.8 0 1.5-.4 2-1v2c-.7.3-1.4.5-2.2.5-2.5 0-4.5-2.1-4.5-4.6zm17.98-4.5l2.3 6 2.4-6h1.8l-3.7 9.1h-.9l-3.7-9.1h1.8zM13.22 7h.17c.9 0 1.8.4 2.5 1l-.9 1.2c-.4-.4-.9-.7-1.4-.7-.6-.1-1.1.4-1.2 1 0 .5.3.7 1.3 1.1 2 .8 2.5 1.4 2.6 2.6v.3c-.1 1.6-1.4 2.8-3 2.7-1.2 0-2.4-.6-3-1.7l1.1-1.1c.3.7 1 1.2 1.8 1.2h.1c.6 0 1.2-.6 1.2-1.3 0-.4-.2-.7-.5-.9-.4-.2-.8-.4-1.2-.5-1.6-.5-2.1-1.2-2.1-2.4v-.1c.1-1.4 1.3-2.5 2.7-2.4zM3 7.2c2.4.1 4.3 2.1 4.2 4.5 0 1.3-.6 2.5-1.6 3.4-.9.7-2 1.1-3.1 1H0V7.2zm6.59 0v8.9h-1.7V7.2h1.7zm37.26 0v1.5h-3.1v2h3v1.5h-3v2.4h3.1v1.5h-4.8V7.2h4.8zm3.6 0c2 0 3.09.9 3.09 2.6.1 1.3-.8 2.4-2 2.6l2.7 3.7h-2.1l-2.3-3.6h-.2v3.6h-1.7V7.2zM4.48 9.4c-.6-.5-1.5-.8-2.3-.7h-.5v5.9h.5c.8.1 1.7-.2 2.3-.7.6-.6.9-1.4.9-2.3 0-.8-.3-1.6-.9-2.2zm45.65-.8h-.5v2.7h.5c1.1 0 1.6-.5 1.6-1.4 0-.8-.5-1.3-1.6-1.3z"/><path fill="#FFA201" fill-rule="nonzero" d="M28.67 7.1c-2.5 0-4.6 2-4.6 4.6 0 2.5 2 4.6 4.6 4.7 2.6.1 4.6-2 4.7-4.6-.1-2.6-2.1-4.7-4.7-4.7z"/><path d="M0 0h55v24H0z"/></g></svg>
