<svg xmlns="http://www.w3.org/2000/svg" width="25" height="24" viewBox="0 0 25 24"><title>JCB</title><g fill="none" fill-rule="evenodd"><g fill-rule="nonzero"><path fill="#1B6BAF" d="M3 3C1.3 3 0 4.33 0 6.03v7.58c.75.47 1.6.76 2.53.76.84 0 1.5-.66 1.59-1.52V8.68h2.52v3.98c0 1.52-.84 2.85-3.55 2.85-1.03 0-2.06-.2-3-.38V21h4.5c1.68 0 2.99-1.33 2.99-3.03V3H2.99z"/><path fill="#D02644" d="M11.65 3a3 3 0 0 0-3.03 3.06V9.7c.76-.76 2.09-1.24 4.26-1.15.86.1 1.61.2 2.37.39v1.43a6.4 6.4 0 0 0-2.27-.76 2.5 2.5 0 0 0-2.65 2.1 2.52 2.52 0 0 0 2.08 2.68h.47c.86-.1 1.61-.38 2.28-.76v1.43c-.76.2-1.61.39-2.37.39-2.18.1-3.5-.39-4.26-1.15V21h4.54a3 3 0 0 0 3.04-3.06V3h-4.46z"/><path fill="#46A548" d="M20.12 3a3.01 3.01 0 0 0-3.07 3.03v2.65h4.7c.87-.1 1.63.67 1.73 1.52v.1c0 .85-.58 1.51-1.44 1.6.96 0 1.73.76 1.82 1.71 0 .95-.86 1.7-1.82 1.7h-4.99V21h4.51a3.01 3.01 0 0 0 3.07-3.03V3h-4.5zm-1.15 11.27h2.2c.49-.19.78-.66.68-1.23-.1-.28-.38-.57-.67-.66h-2.2v1.9zm2.69-3.79a.91.91 0 0 0-.67-.85h-2.02v1.7H21c.38-.09.67-.47.67-.85z"/></g><path d="M0 0h26v24H0z"/></g></svg>
