<svg width="85" height="24" viewBox="0 0 85 24" xmlns="http://www.w3.org/2000/svg"><title>Mastercard</title><path d="M37.451 15.0063v-3.1316c0-1.1816-.7537-1.977-1.9666-1.98743-.7036-.04549-1.3762.29523-1.7558.88933-.3459-.5766-.9795-.91783-1.6513-.88933-.5843-.02822-1.1401.25443-1.4614.74323v-.6263h-1.0877v5.0021h1.0981v-2.7704c0-.8685.4802-1.3278 1.2234-1.3278.7432 0 1.0877.4698 1.0877 1.3174v2.7808h1.0918v-2.7704c0-.8685.5011-1.3278 1.2234-1.3278.7224 0 1.0981.4698 1.0981 1.3174v2.7808h1.1003Zm16.2484-4.9979h-1.7766V8.49269h-1.0982v1.51571H49.81v.9937h1.0146v2.2776c0 1.1608.4489 1.8518 1.7349 1.8518.4803.0016.9514-.1323 1.3591-.3862l-.3132-.9311c-.2918.1738-.6229.2708-.9624.2818-.5428 0-.7223-.334-.7223-.835v-2.2589h1.7766l.0021-.9937Zm9.2756-.12531c-.5403-.01575-1.0458.26551-1.3174.73281v-.6075h-1.0772v4.9979h1.0877v-2.8017c0-.8351.3549-1.286 1.0668-1.286.2329-.0034.4641.0392.6806.1252l.334-1.025c-.2486-.08892-.5105-.13481-.7745-.13571Zm-14.023.52191c-.6158-.3658-1.3238-.54701-2.0397-.52191-1.2651 0-2.0877.60751-2.0877 1.59921 0 .8162.6055 1.3173 1.7245 1.4739l.5115.073c.5949.0835.8789.2401.8789.5219 0 .3863-.3967.6076-1.1399.6076-.5996.019-1.1881-.1649-1.6701-.522l-.4948.8456c.6334.4428 1.3923.6704 2.1649.6492 1.4426 0 2.2797-.6806 2.2797-1.6305 0-.8789-.6597-1.3382-1.7453-1.4947l-.5114-.0731c-.4698-.0626-.8476-.1566-.8476-.4906 0-.3654.3549-.5846.9519-.5846.5471.0081 1.0831.1554 1.5575.428l.4676-.881Zm29.1273-.52191c-.5402-.01575-1.0457.26551-1.3173.73281v-.6075h-1.0772v4.9979h1.0877v-2.8017c0-.8351.3549-1.286 1.0668-1.286.2329-.0034.4641.0392.6806.1252l.334-1.025c-.2486-.08892-.5105-.13481-.7746-.13571ZM64.0731 12.5073c0 1.5157 1.0563 2.6242 2.666 2.6242.6526.0323 1.2938-.1807 1.7975-.5971l-.522-.8789c-.376.2864-.8343.4438-1.3069.4489-.8684 0-1.5052-.6388-1.5052-1.5992 0-.9603.6389-1.5887 1.5052-1.5991.4726.0051.9309.1625 1.3069.4488l.522-.8789c-.5037-.4164-1.1449-.62938-1.7975-.59709-1.6097 0-2.666 1.10859-2.666 2.62419v.0042Zm10.1837 0v-2.5052h-1.0877v.6075c-.3763-.4856-.9645-.75868-1.5783-.73277-1.4008 0-2.5052 1.09807-2.5052 2.62417 0 1.5261 1.0981 2.6243 2.5052 2.6243.6138.0259 1.202-.2473 1.5783-.7328v.6054h1.0877v-2.4906Zm-4.0459 0c0-.8789.5741-1.5992 1.5156-1.5992.8998 0 1.5053.6911 1.5053 1.5992 0 .9081-.6055 1.5992-1.5053 1.5992-.9415 0-1.5156-.7224-1.5156-1.5992ZM57.0877 9.88309c-1.4614 0-2.4885 1.06681-2.4885 2.62421 0 1.5887 1.0668 2.6242 2.5616 2.6242.7463.0262 1.4762-.2235 2.0501-.7014l-.5324-.8059c-.4152.3322-.9296.516-1.4614.5219-.7014 0-1.3382-.3236-1.4947-1.2233h3.7119c.0104-.1357.0208-.2714.0208-.4176 0-1.5574-.9728-2.6242-2.3737-2.6242l.0063.00209Zm-.0209.97281c.7015 0 1.1503.4385 1.2652 1.213h-2.5909c.1149-.7223.5533-1.213 1.3278-1.213h-.0021Zm27.2756 1.6514V8h-1.0877v2.6138c-.3763-.4856-.9645-.7587-1.5783-.7328-1.4008 0-2.5052 1.0981-2.5052 2.6242s1.0981 2.6242 2.5052 2.6242c.6138.0259 1.202-.2472 1.5783-.7327v.6054h1.0877v-2.4948Zm-4.0418 0c0-.8789.5742-1.5992 1.5157-1.5992.8998 0 1.5052.6911 1.5052 1.5992 0 .9081-.6054 1.5992-1.5052 1.5992-.9415 0-1.5157-.7224-1.5157-1.5992Zm-36.7223 0v-2.5052h-1.0877v.6075c-.3763-.4814-.9615-.75184-1.572-.72651-1.4008 0-2.5052 1.09811-2.5052 2.62421 0 1.5261 1.0981 2.6242 2.5052 2.6242.6137.0259 1.202-.2472 1.5783-.7328v.6055h1.0877l-.0063-2.4969Zm-4.0459 0c0-.8789.5741-1.5992 1.5156-1.5992.8998 0 1.5052.6911 1.5052 1.5992 0 .9081-.6054 1.5992-1.5052 1.5992-.9415 0-1.5156-.7203-1.5156-1.5992Z" fill="#0A2540"/><path d="M15.6493 6.10547H9.07312V17.9238h6.57618V6.10547Z" fill="#FF5F00"/><path d="M9.49062 12.0177C9.4888 9.71182 10.5473 7.53319 12.3612 6.10952c-3.08148-2.4217-7.50658-2.06896-10.16549.81033-2.658897 2.87928-2.658897 7.31845 0 10.19775 2.65891 2.8793 7.08401 3.232 10.16549.8103-1.8145-1.4241-2.87304-3.6037-2.87058-5.9102Z" fill="#EB001B"/><path d="M24.522 12.0176c0 2.8776-1.6432 5.5025-4.2314 6.7599-2.5882 1.2575-5.6673.9268-7.9294-.8517 1.8131-1.4249 2.8717-3.6032 2.8717-5.9092 0-2.30598-1.0586-4.48432-2.8717-5.9092 2.2624-1.7787 5.3419-2.10928 7.9303-.85129 2.5884 1.25798 4.2312 3.88361 4.2305 6.76149Z" fill="#F79E1B"/></svg>
