<svg xmlns="http://www.w3.org/2000/svg" width="28" height="24" viewBox="0 0 28 24"><title>UnionPay</title><g fill="none" fill-rule="evenodd"><path d="M0 0h28v24H0z"/><path fill="#E21836" fill-rule="nonzero" d="M5.498 3h7.007c.978 0 1.586.797 1.358 1.779L10.6 18.785c-.23.978-1.21 1.776-2.189 1.776H1.406c-.977 0-1.586-.798-1.358-1.776L3.31 4.779C3.54 3.797 4.518 3 5.498 3"/><path fill="#00447C" fill-rule="nonzero" d="M11.922 3h8.057c.978 0 .537.797.307 1.779l-3.261 14.006c-.23.978-.158 1.776-1.138 1.776H7.83c-.98 0-1.586-.798-1.356-1.776L9.735 4.779C9.966 3.797 10.943 3 11.922 3"/><path fill="#007B84" fill-rule="nonzero" d="M19.66 3h7.007c.98 0 1.588.797 1.357 1.779l-3.261 14.006c-.23.978-1.21 1.776-2.19 1.776H15.57c-.98 0-1.588-.798-1.359-1.776l3.263-14.006C17.702 3.797 18.68 3 19.66 3"/><path fill="#FEFEFE" fill-rule="nonzero" d="M7.328 7.489c-.72.007-.934 0-1.002-.016l-.513 2.369c-.105.453-.181.777-.44.986a.783.783 0 0 1-.517.18c-.32 0-.506-.159-.537-.46l-.006-.103.097-.611s.51-2.044.602-2.315a.197.197 0 0 0 .007-.03c-.993.008-1.17 0-1.181-.016a3.214 3.214 0 0 0-.031.148l-.522 2.304-.044.195-.087.64c0 .19.037.344.112.475.237.415.914.477 1.297.477.494 0 .957-.105 1.27-.297.543-.32.685-.822.812-1.268l.058-.229s.526-2.123.615-2.399c.004-.015.005-.023.01-.03zM9.116 9.2c-.126 0-.358.03-.566.133-.076.039-.147.083-.222.128l.068-.245-.037-.042c-.442.09-.54.101-.948.159l-.034.023c-.047.392-.09.687-.265 1.458-.066.284-.136.571-.205.855l.018.036c.418-.022.545-.022.908-.016l.029-.032c.046-.237.052-.292.154-.77.048-.227.148-.725.198-.903a.677.677 0 0 1 .265-.083c.204 0 .179.177.171.248a8.9 8.9 0 0 1-.159.84l-.05.214c-.036.159-.075.313-.11.47l.015.032a9.76 9.76 0 0 1 .889-.016l.041-.032a21.1 21.1 0 0 1 .195-1.005l.057-.247c.11-.483.165-.728.082-.927-.088-.224-.3-.278-.494-.278zm1.998.506c-.218.042-.358.07-.497.088-.137.022-.271.042-.483.071l-.016.016-.016.012c-.022.157-.037.293-.066.453a8.312 8.312 0 0 1-.125.624 2.45 2.45 0 0 1-.1.352c-.027.072-.056.143-.11.347l.012.018.011.018c.198-.01.327-.016.46-.018.132-.004.27 0 .483.002l.018-.016.02-.016c.031-.184.036-.233.054-.323.02-.096.051-.229.13-.583.037-.167.079-.333.117-.503.04-.17.082-.337.122-.503l-.006-.02-.008-.02zm.005-.682c-.199-.117-.548-.08-.782.082-.235.159-.261.384-.063.503.195.114.545.08.778-.083.234-.162.263-.386.067-.502zm1.202 2.717c.403 0 .815-.11 1.125-.44.239-.266.348-.663.386-.827.124-.541.028-.794-.093-.948-.184-.235-.508-.31-.844-.31-.202 0-.684.02-1.06.366-.27.25-.395.59-.47.916-.076.331-.164.928.385 1.15.17.073.414.093.571.093zm-.031-1.219c.093-.41.202-.754.482-.754.218 0 .234.256.137.668-.017.091-.097.43-.205.575-.076.107-.165.172-.264.172-.03 0-.204 0-.207-.26a1.767 1.767 0 0 1 .057-.4zm2.548 1.167l.031-.032c.045-.237.052-.292.15-.77.05-.227.152-.725.2-.903a.676.676 0 0 1 .267-.083c.202 0 .178.177.17.248a8.067 8.067 0 0 1-.16.839l-.047.215c-.037.159-.077.313-.112.47l.015.032c.413-.022.534-.022.887-.016l.043-.032c.062-.37.079-.468.195-1.005l.055-.247c.11-.483.167-.728.085-.927-.09-.224-.304-.278-.495-.278-.127 0-.36.03-.566.133a3.766 3.766 0 0 0-.221.128l.063-.245-.034-.042c-.44.09-.542.102-.949.159l-.03.023c-.05.392-.09.687-.266 1.458a97.16 97.16 0 0 1-.205.855l.018.036a10.1 10.1 0 0 1 .906-.016zm3.034.016l.181-.878s.132-.551.14-.571c0 0 .041-.058.082-.08h.061c.574 0 1.222 0 1.73-.374.345-.256.581-.635.687-1.094.027-.113.047-.247.047-.381a.8.8 0 0 0-.137-.487c-.26-.362-.775-.368-1.37-.371l-.294.003c-.761.009-1.067.006-1.193-.01l-.03.155-.273 1.267-.684 2.816c.665-.008.938-.008 1.053.005zm.506-2.247l.288-1.258.01-.065.004-.049.116.012.612.053c.236.091.334.327.266.634a.923.923 0 0 1-.479.631c-.192.097-.429.105-.672.105h-.157l.012-.063zm1.806 1.088c-.076.327-.165.924.382 1.137.174.074.33.096.489.088.167-.01.323-.093.466-.214l-.039.149.025.032c.393-.017.515-.017.94-.013l.04-.03c.062-.365.12-.72.282-1.42.078-.334.157-.666.238-1l-.013-.036c-.44.081-.557.099-.98.159l-.032.026-.013.099a.604.604 0 0 0-.308-.253c-.188-.074-.63.02-1.01.367-.266.246-.394.584-.467.909zm.923.02c.095-.403.203-.744.483-.744.177 0 .27.163.251.442l-.05.226c-.028.12-.059.238-.088.357a.866.866 0 0 1-.104.21.487.487 0 0 1-.342.165c-.028 0-.2 0-.207-.255a1.751 1.751 0 0 1 .057-.401zm4.822-1.33l-.034-.04a10.07 10.07 0 0 1-.913.157l-.03.03-.004.018-.002-.007c-.297.687-.289.539-.53 1.079l-.003-.066-.061-1.171-.038-.04c-.456.089-.467.103-.887.157l-.033.03c-.005.013-.005.029-.008.045l.003.006c.053.27.04.21.093.633.024.209.057.418.082.624.041.344.065.513.115 1.038-.284.47-.351.647-.625 1.058l.002.004-.193.305c-.022.032-.042.054-.07.064a.29.29 0 0 1-.126.018h-.107l-.158.527.544.01c.32-.002.52-.151.629-.352l.342-.586h-.006l.036-.042c.23-.495 1.982-3.5 1.982-3.5zm-5.745 6.93h-.23l.854-2.826h.283l.09-.291.01.323c-.011.2.146.378.56.349h.478l.165-.545h-.18c-.104 0-.152-.026-.146-.082l-.009-.33h-.885v.002c-.287.006-1.142.028-1.315.074-.21.054-.43.213-.43.213l.086-.292h-.829l-.172.579-.866 2.87h-.168l-.165.54h1.65l-.055.18h.813l.054-.18h.228l.18-.583zm-.677-2.252c-.133.037-.38.148-.38.148l.22-.722h.658l-.158.526s-.204.012-.34.048zm.013 1.032s-.207.026-.343.057c-.134.04-.386.169-.386.169l.227-.752h.662l-.16.526zm-.37 1.227h-.66l.192-.634h.658l-.19.634zm1.591-1.753h.952l-.137.443h-.964l-.145.484h.844l-.64.9a.263.263 0 0 1-.129.108.38.38 0 0 1-.171.05h-.234l-.161.53h.612a.745.745 0 0 0 .646-.335l.438-.6.094.61c.02.113.102.18.157.206.062.03.125.084.215.092.096.004.165.007.211.007h.301l.18-.594h-.118c-.068 0-.185-.011-.205-.033-.02-.026-.02-.065-.031-.126l-.096-.61h-.39l.17-.205h.964l.148-.484h-.892l.14-.443h.888l.165-.546h-2.65l-.162.546zm-8.04 1.877l.222-.74h.913l.167-.55h-.914l.14-.454h.893l.165-.533h-2.235l-.162.533h.508l-.135.455h-.51l-.168.559h.507l-.296.978c-.04.13.019.179.056.239a.245.245 0 0 0 .164.119c.09.02.15.032.234.032h1.03l.183-.61-.457.064c-.088 0-.332-.011-.305-.092zm.105-3.539l-.232.418a.485.485 0 0 1-.134.174c-.035.023-.105.032-.207.032h-.12l-.162.535h.401a.91.91 0 0 0 .412-.106c.076-.04.096-.018.154-.074l.136-.118h1.252l.166-.557h-.916l.16-.304h-.91zm1.848 3.55c-.021-.031-.006-.086.027-.198l.342-1.133h1.218c.177-.003.305-.005.389-.01a.796.796 0 0 0 .293-.1.548.548 0 0 0 .212-.196c.053-.072.138-.231.21-.476l.43-1.434-1.263.008s-.389.057-.56.12c-.173.071-.42.269-.42.269l.114-.393h-.78l-1.093 3.624c-.039.14-.065.242-.07.304-.003.066.083.131.138.18.065.05.162.042.255.05.097.007.236.012.427.012h.6l.184-.622-.537.051a.141.141 0 0 1-.116-.057zm.59-2.096h1.279l-.081.255c-.012.005-.04-.013-.17.002h-1.107l.079-.257zm.256-.855h1.29l-.093.307s-.608-.006-.705.012a1.439 1.439 0 0 0-.679.303l.187-.622zm.97 1.963a.136.136 0 0 1-.05.079c-.026.016-.069.022-.131.022h-.182l.01-.31h-.758l-.03 1.517c-.002.11.009.173.09.224.08.063.326.071.658.071h.475l.172-.568-.414.023-.137.008a.147.147 0 0 1-.057-.035c-.017-.018-.047-.007-.042-.117l.003-.388.434-.018a.562.562 0 0 0 .42-.15c.08-.069.108-.149.138-.257l.073-.344h-.596l-.076.243z"/></g></svg>
