<svg xmlns="http://www.w3.org/2000/svg" width="42" height="24" viewBox="0 0 42 24"><title>Visa</title><path fill="#1434cb" d="M20.8 5.31L17.97 18.9h-3.43l2.83-13.58h3.43zm14.23 8.78l1.82-5.12 1.01 5.12h-2.83zm3.84 4.8H42L39.27 5.31h-2.92c-.61 0-1.22.42-1.42 1.05l-5.05 12.53h3.54l.7-1.98h4.35l.4 1.98zm-8.88-4.49c0-3.55-4.75-3.76-4.75-5.33.1-.73.7-1.15 1.41-1.15 1.11-.1 2.33.1 3.34.63l.6-2.92A8.36 8.36 0 0 0 27.46 5c-3.33 0-5.75 1.88-5.75 4.5 0 1.98 1.71 3.02 2.92 3.65 1.32.62 1.82 1.04 1.72 1.67 0 .94-1 1.36-2.02 1.36a8.37 8.37 0 0 1-3.53-.84l-.6 2.92c1.2.53 2.52.74 3.73.74 3.73.1 6.06-1.78 6.06-4.6zM15.95 5.31L10.5 18.9H6.87L4.14 8.03c0-.52-.4-.94-.8-1.15A11.5 11.5 0 0 0 0 5.73l.1-.42h5.76c.8 0 1.4.63 1.51 1.36l1.41 7.83 3.64-9.19h3.53z"/></svg>
